G04 EAGLE Gerber RS-274X export*
G75*
%MOMM*%
%FSLAX34Y34*%
%LPD*%
%INBottom Copper*%
%IPPOS*%
%AMOC8*
5,1,8,0,0,1.08239X$1,22.5*%
G01*
%ADD10C,1.447800*%
%ADD11C,1.270000*%
%ADD12C,1.879600*%
%ADD13C,1.879600*%
%ADD14C,4.800000*%
%ADD15C,4.495800*%
%ADD16C,0.600000*%
%ADD17C,0.254000*%
%ADD18C,1.016000*%

G36*
X746348Y2516D02*
X746348Y2516D01*
X746467Y2523D01*
X746505Y2536D01*
X746546Y2541D01*
X746656Y2584D01*
X746769Y2621D01*
X746804Y2643D01*
X746841Y2658D01*
X746937Y2727D01*
X747038Y2791D01*
X747066Y2821D01*
X747099Y2844D01*
X747175Y2936D01*
X747256Y3023D01*
X747276Y3058D01*
X747301Y3089D01*
X747352Y3197D01*
X747410Y3301D01*
X747420Y3341D01*
X747437Y3377D01*
X747459Y3494D01*
X747489Y3609D01*
X747493Y3669D01*
X747497Y3689D01*
X747495Y3710D01*
X747499Y3770D01*
X747499Y696230D01*
X747484Y696348D01*
X747477Y696467D01*
X747464Y696505D01*
X747459Y696546D01*
X747416Y696656D01*
X747379Y696769D01*
X747357Y696804D01*
X747342Y696841D01*
X747273Y696937D01*
X747209Y697038D01*
X747179Y697066D01*
X747156Y697099D01*
X747064Y697175D01*
X746977Y697256D01*
X746942Y697276D01*
X746911Y697301D01*
X746803Y697352D01*
X746699Y697410D01*
X746659Y697420D01*
X746623Y697437D01*
X746506Y697459D01*
X746391Y697489D01*
X746331Y697493D01*
X746311Y697497D01*
X746290Y697495D01*
X746230Y697499D01*
X3770Y697499D01*
X3652Y697484D01*
X3533Y697477D01*
X3495Y697464D01*
X3454Y697459D01*
X3344Y697416D01*
X3231Y697379D01*
X3196Y697357D01*
X3159Y697342D01*
X3063Y697273D01*
X2962Y697209D01*
X2934Y697179D01*
X2901Y697156D01*
X2825Y697064D01*
X2744Y696977D01*
X2724Y696942D01*
X2699Y696911D01*
X2648Y696803D01*
X2590Y696699D01*
X2580Y696659D01*
X2563Y696623D01*
X2541Y696506D01*
X2511Y696391D01*
X2507Y696331D01*
X2503Y696311D01*
X2505Y696290D01*
X2501Y696230D01*
X2501Y3770D01*
X2516Y3652D01*
X2523Y3533D01*
X2536Y3495D01*
X2541Y3454D01*
X2584Y3344D01*
X2621Y3231D01*
X2643Y3196D01*
X2658Y3159D01*
X2727Y3063D01*
X2791Y2962D01*
X2821Y2934D01*
X2844Y2901D01*
X2936Y2825D01*
X3023Y2744D01*
X3058Y2724D01*
X3089Y2699D01*
X3197Y2648D01*
X3301Y2590D01*
X3341Y2580D01*
X3377Y2563D01*
X3494Y2541D01*
X3609Y2511D01*
X3669Y2507D01*
X3689Y2503D01*
X3710Y2505D01*
X3770Y2501D01*
X746230Y2501D01*
X746348Y2516D01*
G37*
%LPC*%
G36*
X667832Y104501D02*
X667832Y104501D01*
X663826Y106160D01*
X660760Y109226D01*
X659101Y113232D01*
X659101Y117568D01*
X660186Y120187D01*
X660194Y120216D01*
X660207Y120242D01*
X660236Y120369D01*
X660270Y120494D01*
X660271Y120524D01*
X660277Y120552D01*
X660273Y120682D01*
X660275Y120812D01*
X660268Y120841D01*
X660267Y120870D01*
X660231Y120995D01*
X660201Y121121D01*
X660187Y121147D01*
X660179Y121176D01*
X660113Y121288D01*
X660052Y121402D01*
X660033Y121424D01*
X660018Y121450D01*
X659911Y121570D01*
X586224Y195258D01*
X584229Y197252D01*
X584229Y282230D01*
X584214Y282348D01*
X584207Y282467D01*
X584194Y282505D01*
X584189Y282546D01*
X584146Y282656D01*
X584109Y282769D01*
X584087Y282804D01*
X584072Y282841D01*
X584003Y282937D01*
X583939Y283038D01*
X583909Y283066D01*
X583886Y283099D01*
X583794Y283175D01*
X583707Y283256D01*
X583672Y283276D01*
X583641Y283301D01*
X583533Y283352D01*
X583429Y283410D01*
X583389Y283420D01*
X583353Y283437D01*
X583236Y283459D01*
X583121Y283489D01*
X583061Y283493D01*
X583041Y283497D01*
X583020Y283495D01*
X582960Y283499D01*
X580943Y283499D01*
X580845Y283487D01*
X580746Y283484D01*
X580688Y283467D01*
X580628Y283459D01*
X580536Y283423D01*
X580441Y283395D01*
X580389Y283365D01*
X580332Y283342D01*
X580252Y283284D01*
X580167Y283234D01*
X580091Y283168D01*
X580075Y283156D01*
X580067Y283146D01*
X580046Y283128D01*
X566998Y270079D01*
X350823Y270079D01*
X350725Y270067D01*
X350626Y270064D01*
X350568Y270047D01*
X350508Y270039D01*
X350416Y270003D01*
X350321Y269976D01*
X350268Y269945D01*
X350212Y269922D01*
X350132Y269864D01*
X350047Y269814D01*
X349971Y269748D01*
X349955Y269736D01*
X349947Y269726D01*
X349926Y269708D01*
X349022Y268804D01*
X348962Y268726D01*
X348894Y268654D01*
X348865Y268601D01*
X348827Y268553D01*
X348788Y268462D01*
X348740Y268375D01*
X348725Y268317D01*
X348701Y268261D01*
X348686Y268163D01*
X348661Y268067D01*
X348655Y267967D01*
X348651Y267947D01*
X348652Y267935D01*
X348651Y267907D01*
X348651Y265986D01*
X346014Y263349D01*
X342286Y263349D01*
X339649Y265986D01*
X339649Y269714D01*
X342286Y272351D01*
X344207Y272351D01*
X344305Y272363D01*
X344404Y272366D01*
X344462Y272383D01*
X344522Y272391D01*
X344614Y272427D01*
X344709Y272455D01*
X344761Y272485D01*
X344818Y272508D01*
X344898Y272566D01*
X344983Y272616D01*
X345059Y272682D01*
X345075Y272695D01*
X345083Y272704D01*
X345104Y272723D01*
X345714Y273332D01*
X345799Y273442D01*
X345888Y273549D01*
X345897Y273568D01*
X345909Y273584D01*
X345964Y273712D01*
X346023Y273837D01*
X346027Y273857D01*
X346035Y273876D01*
X346057Y274014D01*
X346083Y274150D01*
X346082Y274170D01*
X346085Y274190D01*
X346072Y274329D01*
X346063Y274467D01*
X346057Y274486D01*
X346055Y274506D01*
X346008Y274637D01*
X345965Y274769D01*
X345955Y274787D01*
X345948Y274806D01*
X345870Y274920D01*
X345795Y275038D01*
X345780Y275052D01*
X345769Y275069D01*
X345665Y275161D01*
X345564Y275256D01*
X345546Y275266D01*
X345531Y275279D01*
X345407Y275342D01*
X345285Y275410D01*
X345266Y275415D01*
X345248Y275424D01*
X345201Y275434D01*
X342499Y278136D01*
X342499Y281864D01*
X345136Y284501D01*
X347057Y284501D01*
X347155Y284513D01*
X347254Y284516D01*
X347312Y284533D01*
X347372Y284541D01*
X347464Y284577D01*
X347559Y284605D01*
X347611Y284635D01*
X347668Y284658D01*
X347748Y284716D01*
X347833Y284766D01*
X347909Y284832D01*
X347925Y284844D01*
X347933Y284854D01*
X347954Y284872D01*
X352428Y289347D01*
X489872Y289347D01*
X493076Y286142D01*
X493154Y286082D01*
X493226Y286014D01*
X493279Y285985D01*
X493327Y285948D01*
X493418Y285908D01*
X493505Y285860D01*
X493563Y285845D01*
X493619Y285821D01*
X493717Y285806D01*
X493813Y285781D01*
X493913Y285775D01*
X493933Y285771D01*
X493945Y285773D01*
X493973Y285771D01*
X494440Y285771D01*
X494489Y285777D01*
X494538Y285775D01*
X494646Y285797D01*
X494755Y285811D01*
X494801Y285829D01*
X494850Y285839D01*
X494949Y285887D01*
X495051Y285928D01*
X495091Y285957D01*
X495136Y285979D01*
X495219Y286050D01*
X495308Y286114D01*
X495340Y286153D01*
X495378Y286185D01*
X495441Y286275D01*
X495511Y286359D01*
X495532Y286404D01*
X495561Y286445D01*
X495600Y286548D01*
X495646Y286647D01*
X495656Y286696D01*
X495673Y286742D01*
X495686Y286852D01*
X495706Y286959D01*
X495703Y287009D01*
X495709Y287058D01*
X495693Y287167D01*
X495686Y287277D01*
X495671Y287324D01*
X495664Y287373D01*
X495612Y287526D01*
X495191Y288541D01*
X495154Y288731D01*
X500000Y288731D01*
X504846Y288731D01*
X504809Y288541D01*
X504388Y287526D01*
X504375Y287478D01*
X504354Y287433D01*
X504333Y287325D01*
X504304Y287219D01*
X504303Y287169D01*
X504294Y287120D01*
X504301Y287011D01*
X504299Y286901D01*
X504310Y286853D01*
X504314Y286803D01*
X504347Y286699D01*
X504373Y286592D01*
X504396Y286548D01*
X504412Y286501D01*
X504470Y286408D01*
X504522Y286311D01*
X504555Y286274D01*
X504582Y286232D01*
X504662Y286156D01*
X504736Y286075D01*
X504777Y286048D01*
X504813Y286014D01*
X504910Y285961D01*
X505001Y285901D01*
X505048Y285884D01*
X505092Y285860D01*
X505198Y285833D01*
X505302Y285797D01*
X505352Y285793D01*
X505400Y285781D01*
X505560Y285771D01*
X551327Y285771D01*
X551425Y285783D01*
X551524Y285786D01*
X551582Y285803D01*
X551642Y285811D01*
X551734Y285847D01*
X551829Y285875D01*
X551881Y285905D01*
X551938Y285928D01*
X552018Y285986D01*
X552103Y286036D01*
X552179Y286102D01*
X552195Y286114D01*
X552203Y286124D01*
X552224Y286142D01*
X553128Y287046D01*
X553188Y287124D01*
X553256Y287196D01*
X553285Y287249D01*
X553322Y287297D01*
X553362Y287388D01*
X553410Y287475D01*
X553425Y287533D01*
X553449Y287589D01*
X553464Y287687D01*
X553489Y287783D01*
X553495Y287883D01*
X553499Y287903D01*
X553497Y287915D01*
X553499Y287943D01*
X553499Y289864D01*
X555698Y292063D01*
X555783Y292172D01*
X555871Y292279D01*
X555880Y292298D01*
X555892Y292314D01*
X555948Y292442D01*
X556007Y292567D01*
X556011Y292587D01*
X556019Y292606D01*
X556041Y292744D01*
X556067Y292880D01*
X556065Y292900D01*
X556069Y292920D01*
X556056Y293059D01*
X556047Y293197D01*
X556041Y293216D01*
X556039Y293236D01*
X555992Y293368D01*
X555949Y293499D01*
X555938Y293517D01*
X555931Y293536D01*
X555853Y293651D01*
X555779Y293768D01*
X555764Y293782D01*
X555753Y293799D01*
X555649Y293891D01*
X555547Y293986D01*
X555529Y293996D01*
X555514Y294009D01*
X555390Y294073D01*
X555269Y294140D01*
X555249Y294145D01*
X555231Y294154D01*
X555095Y294184D01*
X554961Y294219D01*
X554933Y294221D01*
X554921Y294224D01*
X554900Y294223D01*
X554800Y294229D01*
X505560Y294229D01*
X505511Y294223D01*
X505462Y294225D01*
X505354Y294203D01*
X505245Y294189D01*
X505199Y294171D01*
X505150Y294161D01*
X505051Y294113D01*
X504949Y294072D01*
X504909Y294043D01*
X504864Y294021D01*
X504781Y293950D01*
X504692Y293886D01*
X504660Y293847D01*
X504622Y293815D01*
X504559Y293725D01*
X504489Y293641D01*
X504468Y293596D01*
X504439Y293555D01*
X504400Y293452D01*
X504354Y293353D01*
X504344Y293304D01*
X504327Y293258D01*
X504314Y293148D01*
X504294Y293041D01*
X504297Y292991D01*
X504291Y292942D01*
X504307Y292833D01*
X504314Y292723D01*
X504329Y292676D01*
X504336Y292627D01*
X504388Y292474D01*
X504809Y291459D01*
X504846Y291269D01*
X500000Y291269D01*
X495154Y291269D01*
X495191Y291459D01*
X495612Y292474D01*
X495625Y292522D01*
X495646Y292567D01*
X495667Y292675D01*
X495696Y292781D01*
X495697Y292831D01*
X495706Y292880D01*
X495699Y292989D01*
X495701Y293099D01*
X495690Y293147D01*
X495686Y293197D01*
X495653Y293301D01*
X495627Y293408D01*
X495604Y293452D01*
X495588Y293499D01*
X495530Y293592D01*
X495478Y293689D01*
X495445Y293726D01*
X495418Y293768D01*
X495338Y293844D01*
X495264Y293925D01*
X495223Y293952D01*
X495187Y293986D01*
X495090Y294039D01*
X494999Y294099D01*
X494952Y294116D01*
X494908Y294140D01*
X494802Y294167D01*
X494698Y294203D01*
X494648Y294207D01*
X494600Y294219D01*
X494440Y294229D01*
X363852Y294229D01*
X353954Y304128D01*
X353876Y304188D01*
X353804Y304256D01*
X353751Y304285D01*
X353703Y304322D01*
X353612Y304362D01*
X353525Y304410D01*
X353467Y304425D01*
X353411Y304449D01*
X353313Y304464D01*
X353217Y304489D01*
X353117Y304495D01*
X353097Y304499D01*
X353085Y304497D01*
X353057Y304499D01*
X351136Y304499D01*
X348499Y307136D01*
X348499Y310864D01*
X351136Y313501D01*
X354864Y313501D01*
X357501Y310864D01*
X357501Y308943D01*
X357513Y308845D01*
X357516Y308746D01*
X357533Y308688D01*
X357541Y308628D01*
X357577Y308536D01*
X357605Y308441D01*
X357635Y308389D01*
X357658Y308332D01*
X357716Y308252D01*
X357766Y308167D01*
X357832Y308091D01*
X357844Y308075D01*
X357854Y308067D01*
X357872Y308046D01*
X365776Y300142D01*
X365854Y300082D01*
X365926Y300014D01*
X365979Y299985D01*
X366027Y299948D01*
X366118Y299908D01*
X366205Y299860D01*
X366263Y299845D01*
X366319Y299821D01*
X366417Y299806D01*
X366513Y299781D01*
X366613Y299775D01*
X366633Y299771D01*
X366645Y299773D01*
X366673Y299771D01*
X474247Y299771D01*
X474384Y299788D01*
X474523Y299801D01*
X474542Y299808D01*
X474562Y299811D01*
X474691Y299862D01*
X474822Y299909D01*
X474839Y299920D01*
X474858Y299928D01*
X474970Y300009D01*
X475085Y300087D01*
X475099Y300103D01*
X475115Y300114D01*
X475204Y300222D01*
X475296Y300326D01*
X475305Y300344D01*
X475318Y300359D01*
X475377Y300485D01*
X475440Y300609D01*
X475445Y300629D01*
X475454Y300647D01*
X475480Y300783D01*
X475510Y300919D01*
X475510Y300940D01*
X475513Y300959D01*
X475505Y301098D01*
X475500Y301237D01*
X475495Y301257D01*
X475494Y301277D01*
X475451Y301409D01*
X475412Y301543D01*
X475402Y301560D01*
X475396Y301579D01*
X475321Y301697D01*
X475251Y301817D01*
X475232Y301838D01*
X475225Y301848D01*
X475211Y301862D01*
X475144Y301937D01*
X450224Y326858D01*
X448229Y328852D01*
X448229Y387880D01*
X448217Y387978D01*
X448214Y388077D01*
X448197Y388135D01*
X448189Y388196D01*
X448153Y388288D01*
X448125Y388383D01*
X448095Y388435D01*
X448072Y388491D01*
X448014Y388571D01*
X447964Y388657D01*
X447898Y388732D01*
X447886Y388749D01*
X447876Y388756D01*
X447858Y388777D01*
X446499Y390136D01*
X446499Y393864D01*
X449136Y396501D01*
X452864Y396501D01*
X455510Y393855D01*
X455518Y393792D01*
X455531Y393653D01*
X455538Y393634D01*
X455541Y393614D01*
X455592Y393485D01*
X455639Y393354D01*
X455650Y393338D01*
X455658Y393319D01*
X455739Y393206D01*
X455817Y393091D01*
X455833Y393078D01*
X455844Y393061D01*
X455952Y392973D01*
X456056Y392881D01*
X456074Y392871D01*
X456089Y392859D01*
X456215Y392799D01*
X456339Y392736D01*
X456359Y392732D01*
X456377Y392723D01*
X456514Y392697D01*
X456649Y392666D01*
X456670Y392667D01*
X456689Y392663D01*
X456828Y392672D01*
X456967Y392676D01*
X456987Y392682D01*
X457007Y392683D01*
X457139Y392726D01*
X457273Y392765D01*
X457290Y392775D01*
X457309Y392781D01*
X457427Y392856D01*
X457547Y392926D01*
X457568Y392945D01*
X457578Y392951D01*
X457592Y392966D01*
X457668Y393033D01*
X457858Y393223D01*
X457918Y393301D01*
X457986Y393373D01*
X458015Y393426D01*
X458052Y393474D01*
X458092Y393565D01*
X458140Y393651D01*
X458155Y393710D01*
X458179Y393766D01*
X458194Y393864D01*
X458219Y393959D01*
X458225Y394060D01*
X458229Y394080D01*
X458227Y394092D01*
X458229Y394120D01*
X458229Y438800D01*
X458212Y438938D01*
X458199Y439076D01*
X458192Y439096D01*
X458189Y439116D01*
X458138Y439244D01*
X458091Y439376D01*
X458080Y439392D01*
X458072Y439411D01*
X457991Y439524D01*
X457913Y439639D01*
X457897Y439652D01*
X457886Y439669D01*
X457778Y439757D01*
X457674Y439849D01*
X457656Y439858D01*
X457641Y439871D01*
X457515Y439931D01*
X457391Y439994D01*
X457371Y439998D01*
X457353Y440007D01*
X457217Y440033D01*
X457081Y440064D01*
X457060Y440063D01*
X457041Y440067D01*
X456902Y440058D01*
X456763Y440054D01*
X456743Y440048D01*
X456723Y440047D01*
X456591Y440004D01*
X456457Y439965D01*
X456440Y439955D01*
X456421Y439949D01*
X456303Y439874D01*
X456183Y439804D01*
X456162Y439785D01*
X456152Y439779D01*
X456138Y439764D01*
X456063Y439698D01*
X453864Y437499D01*
X450136Y437499D01*
X447499Y440136D01*
X447499Y443864D01*
X450136Y446501D01*
X452057Y446501D01*
X452155Y446513D01*
X452254Y446516D01*
X452312Y446533D01*
X452372Y446541D01*
X452464Y446577D01*
X452559Y446605D01*
X452611Y446635D01*
X452668Y446658D01*
X452748Y446716D01*
X452833Y446766D01*
X452909Y446832D01*
X452925Y446844D01*
X452933Y446854D01*
X452954Y446872D01*
X453434Y447352D01*
X453494Y447430D01*
X453562Y447502D01*
X453591Y447555D01*
X453628Y447603D01*
X453668Y447694D01*
X453716Y447781D01*
X453731Y447839D01*
X453755Y447895D01*
X453770Y447993D01*
X453795Y448089D01*
X453801Y448189D01*
X453805Y448209D01*
X453803Y448221D01*
X453805Y448249D01*
X453805Y455376D01*
X453788Y455514D01*
X453775Y455653D01*
X453768Y455672D01*
X453765Y455692D01*
X453714Y455821D01*
X453667Y455952D01*
X453656Y455969D01*
X453648Y455987D01*
X453567Y456100D01*
X453489Y456215D01*
X453473Y456228D01*
X453462Y456245D01*
X453354Y456333D01*
X453250Y456425D01*
X453232Y456435D01*
X453217Y456447D01*
X453091Y456507D01*
X452967Y456570D01*
X452947Y456574D01*
X452929Y456583D01*
X452792Y456609D01*
X452657Y456640D01*
X452636Y456639D01*
X452617Y456643D01*
X452478Y456634D01*
X452339Y456630D01*
X452319Y456624D01*
X452299Y456623D01*
X452167Y456580D01*
X452033Y456541D01*
X452016Y456531D01*
X451997Y456525D01*
X451956Y456499D01*
X449943Y456499D01*
X449845Y456487D01*
X449746Y456484D01*
X449688Y456467D01*
X449628Y456459D01*
X449536Y456423D01*
X449441Y456395D01*
X449389Y456365D01*
X449332Y456342D01*
X449252Y456284D01*
X449167Y456234D01*
X449091Y456168D01*
X449075Y456156D01*
X449067Y456146D01*
X449046Y456128D01*
X438142Y445224D01*
X438082Y445146D01*
X438014Y445074D01*
X437985Y445021D01*
X437948Y444973D01*
X437908Y444882D01*
X437860Y444795D01*
X437845Y444737D01*
X437821Y444681D01*
X437806Y444583D01*
X437781Y444487D01*
X437775Y444387D01*
X437771Y444367D01*
X437773Y444355D01*
X437771Y444327D01*
X437771Y313696D01*
X437783Y313598D01*
X437786Y313499D01*
X437803Y313441D01*
X437811Y313380D01*
X437847Y313288D01*
X437875Y313193D01*
X437905Y313141D01*
X437928Y313085D01*
X437986Y313005D01*
X438036Y312919D01*
X438102Y312844D01*
X438114Y312827D01*
X438124Y312820D01*
X438142Y312799D01*
X439501Y311440D01*
X439501Y307712D01*
X436864Y305075D01*
X433136Y305075D01*
X430499Y307712D01*
X430499Y311440D01*
X431858Y312799D01*
X431918Y312877D01*
X431986Y312949D01*
X432015Y313002D01*
X432052Y313050D01*
X432092Y313141D01*
X432140Y313227D01*
X432155Y313286D01*
X432179Y313342D01*
X432194Y313440D01*
X432219Y313535D01*
X432225Y313635D01*
X432229Y313656D01*
X432227Y313668D01*
X432229Y313696D01*
X432229Y447148D01*
X445128Y460046D01*
X445188Y460124D01*
X445256Y460196D01*
X445285Y460249D01*
X445322Y460297D01*
X445362Y460388D01*
X445410Y460475D01*
X445425Y460533D01*
X445449Y460589D01*
X445464Y460687D01*
X445489Y460783D01*
X445495Y460883D01*
X445499Y460903D01*
X445497Y460915D01*
X445499Y460943D01*
X445499Y462864D01*
X448136Y465501D01*
X451961Y465501D01*
X452018Y465476D01*
X452143Y465417D01*
X452163Y465413D01*
X452182Y465405D01*
X452319Y465383D01*
X452456Y465357D01*
X452476Y465359D01*
X452496Y465355D01*
X452634Y465368D01*
X452773Y465377D01*
X452792Y465383D01*
X452812Y465385D01*
X452944Y465432D01*
X453075Y465475D01*
X453092Y465486D01*
X453112Y465493D01*
X453226Y465571D01*
X453344Y465645D01*
X453358Y465660D01*
X453375Y465671D01*
X453466Y465775D01*
X453562Y465877D01*
X453572Y465895D01*
X453585Y465910D01*
X453648Y466034D01*
X453716Y466155D01*
X453721Y466175D01*
X453730Y466193D01*
X453760Y466329D01*
X453795Y466463D01*
X453797Y466491D01*
X453800Y466503D01*
X453799Y466524D01*
X453805Y466624D01*
X453805Y485724D01*
X475858Y507776D01*
X475918Y507854D01*
X475986Y507926D01*
X476015Y507979D01*
X476052Y508027D01*
X476092Y508118D01*
X476140Y508205D01*
X476155Y508263D01*
X476179Y508319D01*
X476194Y508417D01*
X476219Y508513D01*
X476225Y508613D01*
X476229Y508633D01*
X476227Y508645D01*
X476229Y508673D01*
X476229Y513266D01*
X476217Y513364D01*
X476214Y513463D01*
X476197Y513521D01*
X476189Y513582D01*
X476153Y513674D01*
X476125Y513769D01*
X476095Y513821D01*
X476072Y513877D01*
X476014Y513957D01*
X475964Y514043D01*
X475898Y514118D01*
X475886Y514135D01*
X475876Y514142D01*
X475858Y514163D01*
X474499Y515522D01*
X474499Y519250D01*
X477136Y521887D01*
X480864Y521887D01*
X483501Y519250D01*
X483501Y515522D01*
X482142Y514163D01*
X482082Y514085D01*
X482014Y514013D01*
X481985Y513960D01*
X481948Y513912D01*
X481908Y513821D01*
X481860Y513735D01*
X481845Y513676D01*
X481821Y513620D01*
X481806Y513522D01*
X481781Y513427D01*
X481775Y513327D01*
X481771Y513306D01*
X481773Y513294D01*
X481771Y513266D01*
X481771Y505852D01*
X459718Y483800D01*
X459658Y483722D01*
X459590Y483650D01*
X459561Y483597D01*
X459524Y483549D01*
X459484Y483458D01*
X459436Y483371D01*
X459421Y483313D01*
X459397Y483257D01*
X459382Y483159D01*
X459357Y483063D01*
X459351Y482963D01*
X459347Y482943D01*
X459349Y482931D01*
X459347Y482903D01*
X459347Y476329D01*
X459364Y476192D01*
X459377Y476053D01*
X459384Y476034D01*
X459387Y476014D01*
X459438Y475885D01*
X459485Y475754D01*
X459496Y475737D01*
X459504Y475718D01*
X459585Y475606D01*
X459663Y475491D01*
X459679Y475477D01*
X459690Y475461D01*
X459798Y475372D01*
X459902Y475280D01*
X459920Y475271D01*
X459935Y475258D01*
X460061Y475199D01*
X460185Y475136D01*
X460205Y475131D01*
X460223Y475122D01*
X460359Y475096D01*
X460495Y475066D01*
X460516Y475066D01*
X460535Y475063D01*
X460674Y475071D01*
X460813Y475076D01*
X460833Y475081D01*
X460853Y475082D01*
X460985Y475125D01*
X461119Y475164D01*
X461136Y475174D01*
X461155Y475180D01*
X461273Y475255D01*
X461393Y475325D01*
X461414Y475344D01*
X461424Y475351D01*
X461438Y475365D01*
X461513Y475432D01*
X510144Y524063D01*
X510229Y524172D01*
X510318Y524279D01*
X510327Y524298D01*
X510339Y524314D01*
X510395Y524442D01*
X510454Y524567D01*
X510457Y524587D01*
X510465Y524606D01*
X510487Y524744D01*
X510513Y524880D01*
X510512Y524900D01*
X510515Y524920D01*
X510502Y525059D01*
X510494Y525197D01*
X510487Y525216D01*
X510485Y525236D01*
X510438Y525368D01*
X510396Y525499D01*
X510385Y525517D01*
X510378Y525536D01*
X510300Y525651D01*
X510225Y525768D01*
X510211Y525782D01*
X510199Y525799D01*
X510095Y525891D01*
X509994Y525986D01*
X509976Y525996D01*
X509961Y526009D01*
X509837Y526072D01*
X509715Y526140D01*
X509696Y526145D01*
X509678Y526154D01*
X509542Y526184D01*
X509407Y526219D01*
X509379Y526221D01*
X509367Y526224D01*
X509347Y526223D01*
X509247Y526229D01*
X464770Y526229D01*
X464652Y526214D01*
X464533Y526207D01*
X464495Y526194D01*
X464454Y526189D01*
X464344Y526146D01*
X464231Y526109D01*
X464196Y526087D01*
X464159Y526072D01*
X464063Y526003D01*
X463962Y525939D01*
X463934Y525909D01*
X463901Y525886D01*
X463825Y525794D01*
X463744Y525707D01*
X463724Y525672D01*
X463699Y525641D01*
X463648Y525533D01*
X463590Y525429D01*
X463580Y525389D01*
X463563Y525353D01*
X463541Y525236D01*
X463511Y525121D01*
X463507Y525061D01*
X463503Y525041D01*
X463505Y525020D01*
X463501Y524960D01*
X463501Y521136D01*
X462142Y519777D01*
X462082Y519699D01*
X462014Y519627D01*
X461985Y519574D01*
X461948Y519526D01*
X461908Y519435D01*
X461860Y519349D01*
X461845Y519290D01*
X461821Y519234D01*
X461806Y519136D01*
X461781Y519041D01*
X461775Y518941D01*
X461771Y518920D01*
X461773Y518908D01*
X461771Y518880D01*
X461771Y503852D01*
X453872Y495954D01*
X453812Y495876D01*
X453744Y495804D01*
X453715Y495751D01*
X453678Y495703D01*
X453638Y495612D01*
X453590Y495525D01*
X453575Y495467D01*
X453551Y495411D01*
X453536Y495313D01*
X453511Y495217D01*
X453505Y495117D01*
X453501Y495097D01*
X453503Y495085D01*
X453501Y495057D01*
X453501Y492136D01*
X450864Y489499D01*
X447136Y489499D01*
X444499Y492136D01*
X444499Y495864D01*
X447136Y498501D01*
X448057Y498501D01*
X448155Y498513D01*
X448254Y498516D01*
X448312Y498533D01*
X448372Y498541D01*
X448464Y498577D01*
X448559Y498605D01*
X448611Y498635D01*
X448668Y498658D01*
X448748Y498716D01*
X448833Y498766D01*
X448909Y498832D01*
X448925Y498844D01*
X448933Y498854D01*
X448954Y498872D01*
X455858Y505776D01*
X455918Y505854D01*
X455986Y505926D01*
X456015Y505979D01*
X456052Y506027D01*
X456092Y506118D01*
X456140Y506205D01*
X456155Y506263D01*
X456179Y506319D01*
X456194Y506417D01*
X456219Y506513D01*
X456225Y506613D01*
X456229Y506633D01*
X456227Y506645D01*
X456229Y506673D01*
X456229Y518880D01*
X456217Y518978D01*
X456214Y519077D01*
X456197Y519135D01*
X456189Y519196D01*
X456153Y519288D01*
X456125Y519383D01*
X456095Y519435D01*
X456072Y519491D01*
X456014Y519571D01*
X455964Y519657D01*
X455898Y519732D01*
X455886Y519749D01*
X455876Y519756D01*
X455858Y519777D01*
X454499Y521136D01*
X454499Y524960D01*
X454484Y525078D01*
X454477Y525197D01*
X454464Y525235D01*
X454459Y525276D01*
X454416Y525386D01*
X454379Y525499D01*
X454357Y525534D01*
X454342Y525571D01*
X454273Y525667D01*
X454209Y525768D01*
X454179Y525796D01*
X454156Y525829D01*
X454064Y525905D01*
X453977Y525986D01*
X453942Y526006D01*
X453911Y526031D01*
X453803Y526082D01*
X453699Y526140D01*
X453659Y526150D01*
X453623Y526167D01*
X453506Y526189D01*
X453391Y526219D01*
X453331Y526223D01*
X453311Y526227D01*
X453290Y526225D01*
X453230Y526229D01*
X404673Y526229D01*
X404575Y526217D01*
X404476Y526214D01*
X404418Y526197D01*
X404358Y526189D01*
X404266Y526153D01*
X404171Y526125D01*
X404119Y526095D01*
X404062Y526072D01*
X403982Y526014D01*
X403897Y525964D01*
X403821Y525898D01*
X403805Y525886D01*
X403797Y525876D01*
X403776Y525858D01*
X402586Y524667D01*
X402501Y524558D01*
X402412Y524451D01*
X402403Y524432D01*
X402391Y524416D01*
X402336Y524289D01*
X402276Y524163D01*
X402273Y524143D01*
X402265Y524124D01*
X402243Y523986D01*
X402217Y523850D01*
X402218Y523830D01*
X402215Y523810D01*
X402228Y523671D01*
X402236Y523533D01*
X402243Y523514D01*
X402245Y523494D01*
X402292Y523362D01*
X402334Y523231D01*
X402345Y523213D01*
X402352Y523194D01*
X402430Y523079D01*
X402505Y522962D01*
X402519Y522948D01*
X402531Y522931D01*
X402635Y522839D01*
X402736Y522744D01*
X402754Y522734D01*
X402769Y522721D01*
X402893Y522658D01*
X403015Y522590D01*
X403034Y522585D01*
X403052Y522576D01*
X403188Y522546D01*
X403323Y522511D01*
X403351Y522509D01*
X403363Y522506D01*
X403383Y522507D01*
X403483Y522501D01*
X406864Y522501D01*
X409501Y519864D01*
X409501Y516136D01*
X406864Y513499D01*
X405040Y513499D01*
X404922Y513484D01*
X404803Y513477D01*
X404765Y513464D01*
X404724Y513459D01*
X404614Y513416D01*
X404501Y513379D01*
X404466Y513357D01*
X404429Y513342D01*
X404333Y513273D01*
X404232Y513209D01*
X404204Y513179D01*
X404171Y513156D01*
X404095Y513064D01*
X404014Y512977D01*
X403994Y512942D01*
X403969Y512911D01*
X403918Y512803D01*
X403860Y512699D01*
X403850Y512659D01*
X403833Y512623D01*
X403811Y512506D01*
X403781Y512391D01*
X403777Y512331D01*
X403773Y512311D01*
X403775Y512290D01*
X403771Y512230D01*
X403771Y492120D01*
X403783Y492022D01*
X403786Y491923D01*
X403803Y491865D01*
X403811Y491804D01*
X403847Y491712D01*
X403875Y491617D01*
X403905Y491565D01*
X403928Y491509D01*
X403986Y491429D01*
X404036Y491343D01*
X404102Y491268D01*
X404114Y491251D01*
X404124Y491244D01*
X404142Y491223D01*
X405501Y489864D01*
X405501Y486136D01*
X402864Y483499D01*
X399136Y483499D01*
X396499Y486136D01*
X396499Y489864D01*
X397858Y491223D01*
X397918Y491301D01*
X397986Y491373D01*
X398015Y491426D01*
X398052Y491474D01*
X398092Y491565D01*
X398140Y491651D01*
X398155Y491710D01*
X398179Y491766D01*
X398194Y491864D01*
X398219Y491959D01*
X398225Y492059D01*
X398229Y492080D01*
X398227Y492092D01*
X398229Y492120D01*
X398229Y515148D01*
X400128Y517046D01*
X400188Y517124D01*
X400256Y517196D01*
X400285Y517249D01*
X400322Y517297D01*
X400362Y517388D01*
X400410Y517475D01*
X400425Y517533D01*
X400449Y517589D01*
X400464Y517687D01*
X400489Y517783D01*
X400495Y517883D01*
X400499Y517903D01*
X400497Y517915D01*
X400499Y517943D01*
X400499Y519517D01*
X400482Y519654D01*
X400469Y519793D01*
X400462Y519812D01*
X400459Y519832D01*
X400408Y519961D01*
X400361Y520092D01*
X400350Y520109D01*
X400342Y520128D01*
X400261Y520240D01*
X400183Y520355D01*
X400167Y520369D01*
X400156Y520385D01*
X400048Y520474D01*
X399944Y520566D01*
X399926Y520575D01*
X399911Y520588D01*
X399785Y520647D01*
X399661Y520710D01*
X399641Y520715D01*
X399623Y520724D01*
X399487Y520750D01*
X399351Y520780D01*
X399330Y520780D01*
X399311Y520783D01*
X399172Y520775D01*
X399033Y520770D01*
X399013Y520765D01*
X398993Y520764D01*
X398861Y520721D01*
X398727Y520682D01*
X398710Y520672D01*
X398691Y520666D01*
X398573Y520591D01*
X398453Y520521D01*
X398432Y520502D01*
X398422Y520495D01*
X398408Y520481D01*
X398333Y520414D01*
X351142Y473224D01*
X351082Y473146D01*
X351014Y473074D01*
X350985Y473021D01*
X350948Y472973D01*
X350908Y472882D01*
X350860Y472795D01*
X350845Y472737D01*
X350821Y472681D01*
X350806Y472583D01*
X350781Y472487D01*
X350775Y472387D01*
X350771Y472367D01*
X350773Y472355D01*
X350771Y472327D01*
X350771Y437120D01*
X350783Y437022D01*
X350786Y436923D01*
X350803Y436865D01*
X350811Y436804D01*
X350847Y436712D01*
X350875Y436617D01*
X350905Y436565D01*
X350928Y436509D01*
X350986Y436429D01*
X351036Y436343D01*
X351102Y436268D01*
X351114Y436251D01*
X351124Y436244D01*
X351142Y436223D01*
X351501Y435864D01*
X351501Y432136D01*
X348864Y429499D01*
X345136Y429499D01*
X342499Y432136D01*
X342499Y435864D01*
X344858Y438223D01*
X344918Y438301D01*
X344986Y438373D01*
X345010Y438416D01*
X345031Y438442D01*
X345037Y438454D01*
X345052Y438474D01*
X345092Y438565D01*
X345140Y438651D01*
X345151Y438697D01*
X345167Y438730D01*
X345170Y438745D01*
X345179Y438766D01*
X345194Y438864D01*
X345219Y438959D01*
X345223Y439024D01*
X345227Y439042D01*
X345226Y439060D01*
X345229Y439080D01*
X345227Y439092D01*
X345229Y439120D01*
X345229Y475148D01*
X399144Y529063D01*
X399229Y529172D01*
X399318Y529279D01*
X399327Y529298D01*
X399339Y529314D01*
X399395Y529442D01*
X399454Y529567D01*
X399457Y529587D01*
X399465Y529606D01*
X399487Y529744D01*
X399513Y529880D01*
X399512Y529900D01*
X399515Y529920D01*
X399502Y530059D01*
X399494Y530197D01*
X399487Y530216D01*
X399485Y530236D01*
X399438Y530368D01*
X399396Y530499D01*
X399385Y530517D01*
X399378Y530536D01*
X399300Y530651D01*
X399225Y530768D01*
X399211Y530782D01*
X399199Y530799D01*
X399095Y530891D01*
X398994Y530986D01*
X398976Y530996D01*
X398961Y531009D01*
X398837Y531072D01*
X398715Y531140D01*
X398696Y531145D01*
X398678Y531154D01*
X398542Y531184D01*
X398407Y531219D01*
X398379Y531221D01*
X398367Y531224D01*
X398347Y531223D01*
X398247Y531229D01*
X393673Y531229D01*
X393575Y531217D01*
X393476Y531214D01*
X393418Y531197D01*
X393358Y531189D01*
X393266Y531153D01*
X393171Y531125D01*
X393118Y531095D01*
X393062Y531072D01*
X392982Y531014D01*
X392897Y530964D01*
X392821Y530898D01*
X392805Y530886D01*
X392797Y530876D01*
X392776Y530858D01*
X354872Y492954D01*
X354812Y492876D01*
X354744Y492804D01*
X354715Y492751D01*
X354678Y492703D01*
X354638Y492612D01*
X354590Y492525D01*
X354575Y492467D01*
X354551Y492411D01*
X354536Y492313D01*
X354511Y492217D01*
X354505Y492117D01*
X354501Y492097D01*
X354503Y492085D01*
X354501Y492057D01*
X354501Y490136D01*
X351864Y487499D01*
X348136Y487499D01*
X345499Y490136D01*
X345499Y493864D01*
X348136Y496501D01*
X350057Y496501D01*
X350155Y496513D01*
X350254Y496516D01*
X350312Y496533D01*
X350372Y496541D01*
X350464Y496577D01*
X350559Y496605D01*
X350611Y496635D01*
X350668Y496658D01*
X350748Y496716D01*
X350833Y496766D01*
X350909Y496832D01*
X350925Y496844D01*
X350933Y496854D01*
X350954Y496872D01*
X388858Y534776D01*
X390852Y536771D01*
X556613Y536771D01*
X556757Y536789D01*
X556902Y536804D01*
X556915Y536809D01*
X556928Y536811D01*
X557063Y536864D01*
X557200Y536915D01*
X557211Y536923D01*
X557224Y536928D01*
X557341Y537013D01*
X557461Y537096D01*
X557470Y537107D01*
X557481Y537114D01*
X557574Y537226D01*
X557669Y537337D01*
X557675Y537349D01*
X557684Y537359D01*
X557746Y537491D01*
X557811Y537622D01*
X557814Y537635D01*
X557819Y537647D01*
X557847Y537790D01*
X557877Y537933D01*
X557877Y537946D01*
X557879Y537959D01*
X557870Y538104D01*
X557864Y538250D01*
X557860Y538264D01*
X557859Y538277D01*
X557815Y538415D01*
X557773Y538555D01*
X557766Y538567D01*
X557761Y538579D01*
X557684Y538702D01*
X557608Y538827D01*
X557598Y538837D01*
X557591Y538848D01*
X557485Y538948D01*
X557381Y539050D01*
X557366Y539060D01*
X557360Y539066D01*
X557345Y539074D01*
X557247Y539139D01*
X554342Y540816D01*
X549594Y545564D01*
X546237Y551379D01*
X544499Y557865D01*
X544499Y564579D01*
X545963Y570041D01*
X545975Y570132D01*
X545997Y570221D01*
X545997Y570289D01*
X546006Y570356D01*
X545995Y570448D01*
X545995Y570539D01*
X545977Y570605D01*
X545969Y570672D01*
X545937Y570758D01*
X545913Y570847D01*
X545880Y570906D01*
X545856Y570969D01*
X545802Y571044D01*
X545757Y571124D01*
X545711Y571173D01*
X545671Y571228D01*
X545601Y571288D01*
X545538Y571354D01*
X545480Y571390D01*
X545429Y571434D01*
X545346Y571474D01*
X545268Y571522D01*
X545203Y571543D01*
X545142Y571572D01*
X545052Y571590D01*
X544965Y571618D01*
X544897Y571622D01*
X544831Y571635D01*
X544739Y571631D01*
X544647Y571636D01*
X544581Y571622D01*
X544513Y571619D01*
X544425Y571592D01*
X544335Y571574D01*
X544225Y571529D01*
X544210Y571524D01*
X544203Y571520D01*
X544186Y571513D01*
X541767Y570348D01*
X539172Y569440D01*
X536491Y568828D01*
X534923Y568651D01*
X534923Y590461D01*
X556733Y590461D01*
X556556Y588893D01*
X555944Y586212D01*
X555469Y584855D01*
X555463Y584828D01*
X555452Y584803D01*
X555430Y584673D01*
X555402Y584544D01*
X555403Y584516D01*
X555399Y584489D01*
X555410Y584358D01*
X555415Y584226D01*
X555423Y584200D01*
X555425Y584172D01*
X555469Y584048D01*
X555507Y583921D01*
X555521Y583898D01*
X555530Y583872D01*
X555603Y583762D01*
X555671Y583649D01*
X555690Y583630D01*
X555706Y583607D01*
X555804Y583518D01*
X555898Y583426D01*
X555921Y583412D01*
X555942Y583394D01*
X556058Y583333D01*
X556173Y583266D01*
X556199Y583259D01*
X556223Y583246D01*
X556352Y583216D01*
X556479Y583180D01*
X556506Y583180D01*
X556533Y583173D01*
X556665Y583176D01*
X556797Y583173D01*
X556823Y583179D01*
X556851Y583180D01*
X556978Y583215D01*
X557106Y583245D01*
X557131Y583257D01*
X557157Y583265D01*
X557302Y583336D01*
X560157Y584985D01*
X566643Y586723D01*
X573357Y586723D01*
X579843Y584985D01*
X585658Y581628D01*
X590406Y576880D01*
X593763Y571065D01*
X595501Y564579D01*
X595501Y557865D01*
X593763Y551379D01*
X592166Y548613D01*
X592107Y548472D01*
X592046Y548333D01*
X592045Y548326D01*
X592043Y548320D01*
X592021Y548170D01*
X591997Y548019D01*
X591997Y548012D01*
X591996Y548005D01*
X592012Y547855D01*
X592026Y547702D01*
X592029Y547696D01*
X592029Y547689D01*
X592082Y547547D01*
X592134Y547403D01*
X592138Y547397D01*
X592140Y547391D01*
X592227Y547266D01*
X592313Y547140D01*
X592318Y547135D01*
X592322Y547130D01*
X592437Y547030D01*
X592551Y546929D01*
X592557Y546926D01*
X592562Y546922D01*
X592699Y546854D01*
X592834Y546785D01*
X592841Y546783D01*
X592847Y546780D01*
X592997Y546748D01*
X593145Y546715D01*
X593151Y546715D01*
X593158Y546714D01*
X593311Y546720D01*
X593462Y546725D01*
X593469Y546727D01*
X593476Y546727D01*
X593622Y546771D01*
X593768Y546813D01*
X593774Y546817D01*
X593780Y546819D01*
X593911Y546898D01*
X594042Y546975D01*
X594049Y546981D01*
X594052Y546983D01*
X594060Y546991D01*
X594163Y547081D01*
X608858Y561776D01*
X608918Y561854D01*
X608986Y561926D01*
X609015Y561979D01*
X609052Y562027D01*
X609092Y562118D01*
X609140Y562205D01*
X609155Y562263D01*
X609179Y562319D01*
X609194Y562417D01*
X609219Y562513D01*
X609225Y562613D01*
X609229Y562633D01*
X609227Y562645D01*
X609229Y562673D01*
X609229Y647327D01*
X609217Y647425D01*
X609214Y647524D01*
X609197Y647582D01*
X609189Y647642D01*
X609153Y647734D01*
X609125Y647829D01*
X609095Y647881D01*
X609072Y647938D01*
X609014Y648018D01*
X608964Y648103D01*
X608898Y648179D01*
X608886Y648195D01*
X608876Y648203D01*
X608858Y648224D01*
X600224Y656858D01*
X600146Y656918D01*
X600074Y656986D01*
X600021Y657015D01*
X599973Y657052D01*
X599882Y657092D01*
X599795Y657140D01*
X599737Y657155D01*
X599681Y657179D01*
X599583Y657194D01*
X599487Y657219D01*
X599387Y657225D01*
X599367Y657229D01*
X599355Y657227D01*
X599327Y657229D01*
X583879Y657229D01*
X583757Y657214D01*
X583636Y657206D01*
X583600Y657194D01*
X583563Y657189D01*
X583450Y657145D01*
X583333Y657106D01*
X583302Y657086D01*
X583267Y657072D01*
X583169Y657001D01*
X583066Y656935D01*
X583040Y656907D01*
X583010Y656886D01*
X582932Y656791D01*
X582849Y656702D01*
X582831Y656669D01*
X582807Y656641D01*
X582755Y656530D01*
X582697Y656423D01*
X582688Y656387D01*
X582672Y656353D01*
X582649Y656233D01*
X582619Y656114D01*
X582619Y656077D01*
X582612Y656041D01*
X582619Y655919D01*
X582620Y655796D01*
X582629Y655760D01*
X582632Y655723D01*
X582669Y655607D01*
X582700Y655489D01*
X582718Y655456D01*
X582730Y655421D01*
X582795Y655317D01*
X582854Y655211D01*
X582880Y655183D01*
X582900Y655152D01*
X582989Y655068D01*
X583073Y654979D01*
X583117Y654947D01*
X583131Y654934D01*
X583150Y654924D01*
X583203Y654885D01*
X583934Y654426D01*
X586084Y652712D01*
X588028Y650768D01*
X589742Y648618D01*
X591205Y646290D01*
X592398Y643813D01*
X593306Y641218D01*
X593918Y638537D01*
X594095Y636969D01*
X571016Y636969D01*
X570898Y636954D01*
X570779Y636947D01*
X570741Y636934D01*
X570701Y636929D01*
X570590Y636886D01*
X570477Y636849D01*
X570443Y636827D01*
X570405Y636812D01*
X570309Y636742D01*
X570208Y636679D01*
X570180Y636649D01*
X570148Y636625D01*
X570072Y636534D01*
X569990Y636447D01*
X569971Y636412D01*
X569945Y636381D01*
X569894Y636273D01*
X569837Y636169D01*
X569826Y636129D01*
X569809Y636093D01*
X569787Y635976D01*
X569757Y635861D01*
X569753Y635800D01*
X569749Y635780D01*
X569751Y635760D01*
X569747Y635700D01*
X569747Y634429D01*
X569745Y634429D01*
X569745Y635700D01*
X569730Y635818D01*
X569723Y635937D01*
X569710Y635975D01*
X569705Y636015D01*
X569661Y636126D01*
X569625Y636239D01*
X569603Y636274D01*
X569588Y636311D01*
X569518Y636407D01*
X569455Y636508D01*
X569425Y636536D01*
X569401Y636569D01*
X569310Y636644D01*
X569223Y636726D01*
X569188Y636746D01*
X569156Y636771D01*
X569049Y636822D01*
X568944Y636880D01*
X568905Y636890D01*
X568869Y636907D01*
X568752Y636929D01*
X568637Y636959D01*
X568576Y636963D01*
X568556Y636967D01*
X568536Y636965D01*
X568476Y636969D01*
X545397Y636969D01*
X545574Y638537D01*
X546186Y641218D01*
X547094Y643813D01*
X548287Y646290D01*
X548481Y646599D01*
X549279Y647868D01*
X549279Y647869D01*
X549750Y648618D01*
X551464Y650768D01*
X553408Y652712D01*
X555558Y654426D01*
X556289Y654885D01*
X556383Y654963D01*
X556482Y655034D01*
X556506Y655063D01*
X556535Y655087D01*
X556607Y655185D01*
X556685Y655279D01*
X556701Y655313D01*
X556723Y655343D01*
X556768Y655457D01*
X556820Y655567D01*
X556827Y655604D01*
X556841Y655638D01*
X556857Y655760D01*
X556880Y655880D01*
X556878Y655917D01*
X556883Y655954D01*
X556868Y656075D01*
X556860Y656197D01*
X556849Y656232D01*
X556844Y656269D01*
X556800Y656383D01*
X556762Y656499D01*
X556742Y656531D01*
X556729Y656566D01*
X556658Y656665D01*
X556592Y656768D01*
X556565Y656794D01*
X556543Y656824D01*
X556450Y656902D01*
X556361Y656986D01*
X556328Y657004D01*
X556299Y657028D01*
X556189Y657081D01*
X556082Y657140D01*
X556046Y657149D01*
X556012Y657165D01*
X555892Y657189D01*
X555774Y657219D01*
X555719Y657223D01*
X555700Y657226D01*
X555679Y657225D01*
X555613Y657229D01*
X395673Y657229D01*
X395575Y657217D01*
X395476Y657214D01*
X395418Y657197D01*
X395358Y657189D01*
X395266Y657153D01*
X395171Y657125D01*
X395119Y657095D01*
X395062Y657072D01*
X394982Y657014D01*
X394897Y656964D01*
X394821Y656898D01*
X394805Y656886D01*
X394797Y656876D01*
X394776Y656858D01*
X363148Y625229D01*
X261673Y625229D01*
X261575Y625217D01*
X261476Y625214D01*
X261418Y625197D01*
X261358Y625189D01*
X261266Y625153D01*
X261171Y625125D01*
X261119Y625095D01*
X261062Y625072D01*
X260982Y625014D01*
X260897Y624964D01*
X260821Y624898D01*
X260805Y624886D01*
X260797Y624876D01*
X260776Y624858D01*
X229718Y593800D01*
X229658Y593722D01*
X229590Y593650D01*
X229561Y593597D01*
X229524Y593549D01*
X229484Y593458D01*
X229436Y593371D01*
X229421Y593313D01*
X229397Y593257D01*
X229382Y593159D01*
X229357Y593063D01*
X229351Y592963D01*
X229347Y592943D01*
X229349Y592931D01*
X229347Y592903D01*
X229347Y395544D01*
X229359Y395446D01*
X229362Y395347D01*
X229379Y395288D01*
X229387Y395228D01*
X229423Y395136D01*
X229451Y395041D01*
X229481Y394989D01*
X229504Y394933D01*
X229562Y394853D01*
X229612Y394767D01*
X229678Y394692D01*
X229690Y394675D01*
X229700Y394668D01*
X229718Y394646D01*
X231501Y392864D01*
X231501Y389136D01*
X228864Y386499D01*
X225136Y386499D01*
X222499Y389136D01*
X222499Y392864D01*
X223434Y393798D01*
X223494Y393877D01*
X223562Y393949D01*
X223587Y393993D01*
X223607Y394018D01*
X223612Y394029D01*
X223628Y394050D01*
X223668Y394141D01*
X223716Y394227D01*
X223727Y394273D01*
X223743Y394306D01*
X223746Y394321D01*
X223755Y394342D01*
X223770Y394440D01*
X223795Y394535D01*
X223799Y394600D01*
X223803Y394618D01*
X223802Y394636D01*
X223805Y394656D01*
X223803Y394668D01*
X223805Y394696D01*
X223805Y564264D01*
X223799Y564313D01*
X223801Y564363D01*
X223779Y564470D01*
X223765Y564579D01*
X223747Y564626D01*
X223737Y564674D01*
X223689Y564773D01*
X223648Y564875D01*
X223619Y564915D01*
X223597Y564960D01*
X223526Y565044D01*
X223462Y565132D01*
X223423Y565164D01*
X223391Y565202D01*
X223301Y565265D01*
X223217Y565335D01*
X223172Y565356D01*
X223131Y565385D01*
X223028Y565424D01*
X222929Y565471D01*
X222880Y565480D01*
X222834Y565498D01*
X222724Y565510D01*
X222617Y565531D01*
X222567Y565527D01*
X222518Y565533D01*
X222409Y565518D01*
X222299Y565511D01*
X222252Y565496D01*
X222203Y565489D01*
X222050Y565437D01*
X221459Y565191D01*
X221269Y565154D01*
X221269Y570000D01*
X221269Y574846D01*
X221459Y574809D01*
X222050Y574563D01*
X222098Y574550D01*
X222143Y574529D01*
X222251Y574509D01*
X222357Y574480D01*
X222407Y574479D01*
X222456Y574469D01*
X222565Y574476D01*
X222675Y574474D01*
X222723Y574486D01*
X222773Y574489D01*
X222877Y574523D01*
X222984Y574549D01*
X223028Y574572D01*
X223075Y574587D01*
X223168Y574646D01*
X223265Y574697D01*
X223302Y574731D01*
X223344Y574757D01*
X223419Y574837D01*
X223501Y574911D01*
X223528Y574953D01*
X223562Y574989D01*
X223615Y575085D01*
X223675Y575177D01*
X223692Y575224D01*
X223716Y575267D01*
X223743Y575374D01*
X223779Y575478D01*
X223783Y575527D01*
X223795Y575575D01*
X223805Y575736D01*
X223805Y595724D01*
X258852Y630771D01*
X360327Y630771D01*
X360425Y630783D01*
X360524Y630786D01*
X360582Y630803D01*
X360642Y630811D01*
X360734Y630847D01*
X360829Y630875D01*
X360881Y630905D01*
X360938Y630928D01*
X361018Y630986D01*
X361103Y631036D01*
X361179Y631102D01*
X361195Y631114D01*
X361200Y631120D01*
X361204Y631123D01*
X361208Y631129D01*
X361224Y631142D01*
X392852Y662771D01*
X602148Y662771D01*
X612776Y652142D01*
X614771Y650148D01*
X614771Y559852D01*
X612776Y557858D01*
X597872Y542954D01*
X597812Y542876D01*
X597744Y542804D01*
X597715Y542751D01*
X597678Y542703D01*
X597638Y542612D01*
X597590Y542525D01*
X597575Y542467D01*
X597551Y542411D01*
X597536Y542313D01*
X597511Y542217D01*
X597505Y542117D01*
X597501Y542097D01*
X597503Y542085D01*
X597501Y542057D01*
X597501Y540136D01*
X596302Y538937D01*
X596217Y538828D01*
X596129Y538721D01*
X596120Y538702D01*
X596108Y538686D01*
X596052Y538558D01*
X595993Y538433D01*
X595989Y538413D01*
X595981Y538394D01*
X595959Y538256D01*
X595933Y538120D01*
X595935Y538100D01*
X595931Y538080D01*
X595944Y537941D01*
X595953Y537803D01*
X595959Y537784D01*
X595961Y537764D01*
X596008Y537632D01*
X596051Y537501D01*
X596062Y537483D01*
X596069Y537464D01*
X596147Y537349D01*
X596221Y537232D01*
X596236Y537218D01*
X596247Y537201D01*
X596352Y537109D01*
X596453Y537014D01*
X596471Y537004D01*
X596486Y536991D01*
X596610Y536927D01*
X596731Y536860D01*
X596751Y536855D01*
X596769Y536846D01*
X596905Y536816D01*
X597039Y536781D01*
X597067Y536779D01*
X597079Y536776D01*
X597100Y536777D01*
X597200Y536771D01*
X656127Y536771D01*
X656225Y536783D01*
X656324Y536786D01*
X656382Y536803D01*
X656442Y536811D01*
X656534Y536847D01*
X656629Y536875D01*
X656681Y536905D01*
X656738Y536928D01*
X656818Y536986D01*
X656903Y537036D01*
X656979Y537102D01*
X656995Y537114D01*
X657003Y537124D01*
X657024Y537142D01*
X659911Y540030D01*
X659929Y540053D01*
X659952Y540072D01*
X660026Y540178D01*
X660106Y540281D01*
X660118Y540308D01*
X660135Y540332D01*
X660181Y540453D01*
X660232Y540573D01*
X660237Y540602D01*
X660247Y540629D01*
X660262Y540758D01*
X660282Y540887D01*
X660279Y540916D01*
X660283Y540945D01*
X660265Y541074D01*
X660252Y541203D01*
X660242Y541231D01*
X660238Y541260D01*
X660186Y541413D01*
X659101Y544032D01*
X659101Y548368D01*
X660760Y552374D01*
X663826Y555440D01*
X667832Y557099D01*
X672168Y557099D01*
X676174Y555440D01*
X679240Y552374D01*
X680899Y548368D01*
X680899Y544032D01*
X679240Y540026D01*
X676174Y536960D01*
X672168Y535301D01*
X667832Y535301D01*
X665213Y536386D01*
X665184Y536394D01*
X665158Y536407D01*
X665031Y536436D01*
X664906Y536470D01*
X664876Y536471D01*
X664848Y536477D01*
X664718Y536473D01*
X664588Y536475D01*
X664559Y536468D01*
X664530Y536467D01*
X664405Y536431D01*
X664279Y536401D01*
X664253Y536387D01*
X664224Y536379D01*
X664113Y536313D01*
X663998Y536252D01*
X663976Y536233D01*
X663950Y536218D01*
X663830Y536111D01*
X658948Y531229D01*
X637753Y531229D01*
X637616Y531212D01*
X637477Y531199D01*
X637458Y531192D01*
X637438Y531189D01*
X637309Y531138D01*
X637178Y531091D01*
X637161Y531080D01*
X637142Y531072D01*
X637030Y530991D01*
X636915Y530913D01*
X636901Y530897D01*
X636885Y530886D01*
X636796Y530778D01*
X636704Y530674D01*
X636695Y530656D01*
X636682Y530641D01*
X636623Y530515D01*
X636560Y530391D01*
X636555Y530371D01*
X636546Y530353D01*
X636520Y530217D01*
X636490Y530081D01*
X636490Y530060D01*
X636487Y530041D01*
X636495Y529902D01*
X636500Y529763D01*
X636505Y529743D01*
X636506Y529723D01*
X636549Y529591D01*
X636588Y529457D01*
X636598Y529440D01*
X636604Y529421D01*
X636679Y529303D01*
X636749Y529183D01*
X636768Y529162D01*
X636775Y529152D01*
X636789Y529138D01*
X636856Y529063D01*
X661655Y504263D01*
X661749Y504190D01*
X661838Y504111D01*
X661874Y504093D01*
X661906Y504068D01*
X662016Y504021D01*
X662122Y503967D01*
X662161Y503958D01*
X662198Y503942D01*
X662316Y503923D01*
X662432Y503897D01*
X662472Y503898D01*
X662512Y503892D01*
X662631Y503903D01*
X662750Y503907D01*
X662789Y503918D01*
X662829Y503922D01*
X662941Y503962D01*
X663055Y503995D01*
X663090Y504016D01*
X663128Y504030D01*
X663227Y504096D01*
X663329Y504157D01*
X663375Y504197D01*
X663391Y504208D01*
X663405Y504223D01*
X663450Y504263D01*
X663826Y504640D01*
X667832Y506299D01*
X672168Y506299D01*
X676174Y504640D01*
X679240Y501574D01*
X680899Y497568D01*
X680899Y493232D01*
X679240Y489226D01*
X676174Y486160D01*
X672168Y484501D01*
X667832Y484501D01*
X665213Y485586D01*
X665184Y485594D01*
X665158Y485607D01*
X665031Y485636D01*
X664906Y485670D01*
X664876Y485671D01*
X664848Y485677D01*
X664718Y485673D01*
X664588Y485675D01*
X664559Y485668D01*
X664530Y485667D01*
X664405Y485631D01*
X664279Y485601D01*
X664253Y485587D01*
X664224Y485579D01*
X664113Y485513D01*
X663998Y485452D01*
X663976Y485433D01*
X663950Y485418D01*
X663830Y485311D01*
X650142Y471624D01*
X650082Y471546D01*
X650014Y471474D01*
X649985Y471421D01*
X649948Y471373D01*
X649908Y471282D01*
X649860Y471195D01*
X649845Y471137D01*
X649821Y471081D01*
X649806Y470983D01*
X649781Y470887D01*
X649775Y470787D01*
X649771Y470767D01*
X649773Y470755D01*
X649771Y470727D01*
X649771Y469120D01*
X649783Y469022D01*
X649786Y468923D01*
X649803Y468865D01*
X649811Y468804D01*
X649847Y468712D01*
X649875Y468617D01*
X649905Y468565D01*
X649928Y468509D01*
X649986Y468429D01*
X650036Y468343D01*
X650102Y468268D01*
X650114Y468251D01*
X650124Y468244D01*
X650142Y468223D01*
X651501Y466864D01*
X651501Y463136D01*
X648864Y460499D01*
X645136Y460499D01*
X642499Y463136D01*
X642499Y466864D01*
X643858Y468223D01*
X643918Y468301D01*
X643986Y468373D01*
X644015Y468426D01*
X644052Y468474D01*
X644092Y468565D01*
X644140Y468651D01*
X644155Y468710D01*
X644179Y468766D01*
X644194Y468864D01*
X644219Y468959D01*
X644225Y469059D01*
X644229Y469080D01*
X644227Y469092D01*
X644229Y469120D01*
X644229Y473548D01*
X659911Y489230D01*
X659929Y489253D01*
X659952Y489272D01*
X660026Y489378D01*
X660106Y489481D01*
X660118Y489508D01*
X660135Y489532D01*
X660181Y489653D01*
X660232Y489773D01*
X660237Y489802D01*
X660247Y489829D01*
X660262Y489958D01*
X660282Y490087D01*
X660279Y490116D01*
X660283Y490145D01*
X660265Y490274D01*
X660252Y490403D01*
X660242Y490431D01*
X660238Y490460D01*
X660186Y490613D01*
X659101Y493232D01*
X659101Y497568D01*
X659190Y497783D01*
X659198Y497812D01*
X659212Y497838D01*
X659240Y497965D01*
X659274Y498090D01*
X659275Y498119D01*
X659281Y498148D01*
X659277Y498278D01*
X659279Y498408D01*
X659273Y498437D01*
X659272Y498466D01*
X659236Y498590D01*
X659205Y498717D01*
X659191Y498743D01*
X659183Y498772D01*
X659117Y498883D01*
X659057Y498998D01*
X659037Y499020D01*
X659022Y499045D01*
X658915Y499166D01*
X632224Y525858D01*
X632146Y525918D01*
X632074Y525986D01*
X632021Y526015D01*
X631973Y526052D01*
X631882Y526092D01*
X631795Y526140D01*
X631737Y526155D01*
X631681Y526179D01*
X631583Y526194D01*
X631487Y526219D01*
X631387Y526225D01*
X631367Y526229D01*
X631355Y526227D01*
X631327Y526229D01*
X624200Y526229D01*
X624062Y526212D01*
X623924Y526199D01*
X623904Y526192D01*
X623884Y526189D01*
X623756Y526138D01*
X623624Y526091D01*
X623608Y526080D01*
X623589Y526072D01*
X623476Y525991D01*
X623361Y525913D01*
X623348Y525897D01*
X623331Y525886D01*
X623243Y525778D01*
X623151Y525674D01*
X623142Y525656D01*
X623129Y525641D01*
X623069Y525515D01*
X623006Y525391D01*
X623002Y525371D01*
X622993Y525353D01*
X622967Y525217D01*
X622936Y525081D01*
X622937Y525060D01*
X622933Y525041D01*
X622942Y524902D01*
X622946Y524763D01*
X622952Y524743D01*
X622953Y524723D01*
X622996Y524591D01*
X623035Y524457D01*
X623045Y524440D01*
X623051Y524421D01*
X623126Y524303D01*
X623196Y524183D01*
X623215Y524162D01*
X623221Y524152D01*
X623236Y524138D01*
X623302Y524063D01*
X625501Y521864D01*
X625501Y518136D01*
X624142Y516777D01*
X624082Y516699D01*
X624014Y516627D01*
X623985Y516574D01*
X623948Y516526D01*
X623908Y516435D01*
X623860Y516349D01*
X623845Y516290D01*
X623821Y516234D01*
X623806Y516136D01*
X623781Y516041D01*
X623775Y515941D01*
X623771Y515920D01*
X623773Y515908D01*
X623771Y515880D01*
X623771Y473120D01*
X623783Y473022D01*
X623786Y472923D01*
X623803Y472865D01*
X623811Y472804D01*
X623847Y472712D01*
X623875Y472617D01*
X623905Y472565D01*
X623928Y472509D01*
X623986Y472429D01*
X624036Y472343D01*
X624102Y472268D01*
X624114Y472251D01*
X624124Y472244D01*
X624142Y472223D01*
X624501Y471864D01*
X624501Y468136D01*
X621864Y465499D01*
X618136Y465499D01*
X615499Y468136D01*
X615499Y471864D01*
X617858Y474223D01*
X617918Y474301D01*
X617986Y474373D01*
X618015Y474426D01*
X618052Y474474D01*
X618092Y474565D01*
X618140Y474651D01*
X618155Y474710D01*
X618179Y474766D01*
X618194Y474864D01*
X618219Y474959D01*
X618225Y475059D01*
X618229Y475080D01*
X618227Y475092D01*
X618229Y475120D01*
X618229Y515880D01*
X618217Y515978D01*
X618214Y516077D01*
X618197Y516135D01*
X618189Y516196D01*
X618153Y516288D01*
X618125Y516383D01*
X618095Y516435D01*
X618072Y516491D01*
X618014Y516571D01*
X617964Y516657D01*
X617898Y516732D01*
X617886Y516749D01*
X617876Y516756D01*
X617858Y516777D01*
X616499Y518136D01*
X616499Y521864D01*
X618698Y524063D01*
X618783Y524172D01*
X618871Y524279D01*
X618880Y524298D01*
X618892Y524314D01*
X618948Y524442D01*
X619007Y524567D01*
X619011Y524587D01*
X619019Y524606D01*
X619041Y524744D01*
X619067Y524880D01*
X619065Y524900D01*
X619069Y524920D01*
X619056Y525059D01*
X619047Y525197D01*
X619041Y525216D01*
X619039Y525236D01*
X618992Y525368D01*
X618949Y525499D01*
X618938Y525517D01*
X618931Y525536D01*
X618853Y525651D01*
X618779Y525768D01*
X618764Y525782D01*
X618753Y525799D01*
X618648Y525891D01*
X618547Y525986D01*
X618529Y525996D01*
X618514Y526009D01*
X618390Y526073D01*
X618269Y526140D01*
X618249Y526145D01*
X618231Y526154D01*
X618095Y526184D01*
X617961Y526219D01*
X617933Y526221D01*
X617921Y526224D01*
X617900Y526223D01*
X617800Y526229D01*
X596753Y526229D01*
X596615Y526212D01*
X596477Y526199D01*
X596458Y526192D01*
X596438Y526189D01*
X596309Y526138D01*
X596178Y526091D01*
X596161Y526080D01*
X596142Y526072D01*
X596030Y525991D01*
X595915Y525913D01*
X595901Y525897D01*
X595885Y525886D01*
X595796Y525778D01*
X595704Y525674D01*
X595695Y525656D01*
X595682Y525641D01*
X595623Y525515D01*
X595560Y525391D01*
X595555Y525371D01*
X595546Y525353D01*
X595520Y525216D01*
X595490Y525081D01*
X595490Y525060D01*
X595487Y525041D01*
X595495Y524902D01*
X595500Y524763D01*
X595505Y524743D01*
X595506Y524723D01*
X595549Y524591D01*
X595588Y524457D01*
X595598Y524440D01*
X595604Y524421D01*
X595679Y524303D01*
X595749Y524183D01*
X595768Y524162D01*
X595775Y524152D01*
X595790Y524138D01*
X595856Y524063D01*
X597046Y522872D01*
X597124Y522812D01*
X597196Y522744D01*
X597249Y522715D01*
X597297Y522678D01*
X597388Y522638D01*
X597475Y522590D01*
X597533Y522575D01*
X597589Y522551D01*
X597687Y522536D01*
X597783Y522511D01*
X597883Y522505D01*
X597903Y522501D01*
X597915Y522503D01*
X597943Y522501D01*
X599864Y522501D01*
X602501Y519864D01*
X602501Y516136D01*
X599864Y513499D01*
X596136Y513499D01*
X593499Y516136D01*
X593499Y518057D01*
X593487Y518155D01*
X593484Y518254D01*
X593467Y518312D01*
X593459Y518372D01*
X593423Y518464D01*
X593395Y518559D01*
X593365Y518611D01*
X593342Y518668D01*
X593284Y518748D01*
X593234Y518833D01*
X593168Y518909D01*
X593156Y518925D01*
X593146Y518933D01*
X593128Y518954D01*
X591224Y520858D01*
X591146Y520918D01*
X591074Y520986D01*
X591021Y521015D01*
X590973Y521052D01*
X590882Y521092D01*
X590795Y521140D01*
X590737Y521155D01*
X590681Y521179D01*
X590583Y521194D01*
X590487Y521219D01*
X590387Y521225D01*
X590367Y521229D01*
X590355Y521227D01*
X590327Y521229D01*
X584586Y521229D01*
X584448Y521212D01*
X584309Y521199D01*
X584290Y521192D01*
X584270Y521189D01*
X584141Y521138D01*
X584010Y521091D01*
X583994Y521080D01*
X583975Y521072D01*
X583862Y520991D01*
X583747Y520913D01*
X583734Y520897D01*
X583717Y520886D01*
X583629Y520778D01*
X583537Y520674D01*
X583527Y520656D01*
X583515Y520641D01*
X583455Y520515D01*
X583392Y520391D01*
X583388Y520371D01*
X583379Y520353D01*
X583353Y520216D01*
X583322Y520081D01*
X583323Y520060D01*
X583319Y520041D01*
X583328Y519902D01*
X583332Y519763D01*
X583338Y519743D01*
X583339Y519723D01*
X583382Y519591D01*
X583421Y519457D01*
X583431Y519440D01*
X583437Y519421D01*
X583501Y519320D01*
X583501Y515522D01*
X580679Y512700D01*
X580638Y512670D01*
X580553Y512620D01*
X580477Y512554D01*
X580461Y512542D01*
X580453Y512532D01*
X580432Y512514D01*
X542142Y474224D01*
X542082Y474146D01*
X542014Y474074D01*
X541985Y474021D01*
X541948Y473973D01*
X541908Y473882D01*
X541860Y473795D01*
X541845Y473737D01*
X541821Y473681D01*
X541806Y473583D01*
X541781Y473487D01*
X541775Y473387D01*
X541771Y473367D01*
X541773Y473355D01*
X541771Y473327D01*
X541771Y432753D01*
X541788Y432616D01*
X541789Y432610D01*
X541793Y432540D01*
X541796Y432530D01*
X541801Y432477D01*
X541808Y432458D01*
X541811Y432438D01*
X541862Y432309D01*
X541909Y432178D01*
X541920Y432161D01*
X541928Y432142D01*
X542009Y432030D01*
X542087Y431915D01*
X542103Y431901D01*
X542114Y431885D01*
X542222Y431796D01*
X542326Y431704D01*
X542344Y431695D01*
X542359Y431682D01*
X542485Y431623D01*
X542609Y431560D01*
X542629Y431555D01*
X542647Y431546D01*
X542783Y431520D01*
X542919Y431490D01*
X542940Y431490D01*
X542959Y431487D01*
X543098Y431495D01*
X543237Y431500D01*
X543257Y431505D01*
X543277Y431506D01*
X543409Y431549D01*
X543543Y431588D01*
X543560Y431598D01*
X543579Y431604D01*
X543672Y431663D01*
X543674Y431664D01*
X543679Y431668D01*
X543697Y431679D01*
X543817Y431749D01*
X543838Y431768D01*
X543848Y431775D01*
X543862Y431790D01*
X543937Y431856D01*
X551858Y439776D01*
X553852Y441771D01*
X554880Y441771D01*
X554978Y441783D01*
X555077Y441786D01*
X555135Y441803D01*
X555196Y441811D01*
X555288Y441847D01*
X555383Y441875D01*
X555435Y441905D01*
X555491Y441928D01*
X555571Y441986D01*
X555657Y442036D01*
X555732Y442102D01*
X555749Y442114D01*
X555756Y442124D01*
X555777Y442142D01*
X556136Y442501D01*
X559864Y442501D01*
X562501Y439864D01*
X562501Y436136D01*
X559864Y433499D01*
X556136Y433499D01*
X555674Y433961D01*
X555580Y434034D01*
X555491Y434113D01*
X555455Y434131D01*
X555423Y434156D01*
X555314Y434203D01*
X555208Y434257D01*
X555168Y434266D01*
X555131Y434282D01*
X555013Y434301D01*
X554897Y434327D01*
X554857Y434326D01*
X554817Y434332D01*
X554698Y434321D01*
X554579Y434317D01*
X554541Y434306D01*
X554500Y434302D01*
X554388Y434262D01*
X554274Y434229D01*
X554239Y434208D01*
X554201Y434195D01*
X554103Y434128D01*
X554000Y434067D01*
X553955Y434027D01*
X553938Y434016D01*
X553924Y434001D01*
X553879Y433961D01*
X550142Y430224D01*
X550082Y430146D01*
X550014Y430074D01*
X549985Y430021D01*
X549948Y429973D01*
X549908Y429882D01*
X549860Y429795D01*
X549845Y429737D01*
X549821Y429681D01*
X549806Y429583D01*
X549781Y429487D01*
X549775Y429387D01*
X549771Y429367D01*
X549773Y429355D01*
X549771Y429327D01*
X549771Y392673D01*
X549783Y392575D01*
X549786Y392476D01*
X549803Y392418D01*
X549811Y392358D01*
X549847Y392266D01*
X549875Y392171D01*
X549905Y392119D01*
X549928Y392062D01*
X549986Y391982D01*
X550036Y391897D01*
X550102Y391821D01*
X550114Y391805D01*
X550124Y391797D01*
X550142Y391776D01*
X551333Y390586D01*
X551442Y390501D01*
X551549Y390412D01*
X551568Y390403D01*
X551584Y390391D01*
X551711Y390336D01*
X551837Y390276D01*
X551857Y390273D01*
X551876Y390265D01*
X552014Y390243D01*
X552150Y390217D01*
X552170Y390218D01*
X552190Y390215D01*
X552329Y390228D01*
X552467Y390236D01*
X552486Y390243D01*
X552506Y390245D01*
X552638Y390292D01*
X552769Y390334D01*
X552787Y390345D01*
X552806Y390352D01*
X552921Y390430D01*
X553038Y390505D01*
X553052Y390519D01*
X553069Y390531D01*
X553161Y390635D01*
X553256Y390736D01*
X553266Y390754D01*
X553279Y390769D01*
X553342Y390893D01*
X553410Y391015D01*
X553415Y391034D01*
X553424Y391052D01*
X553454Y391188D01*
X553489Y391323D01*
X553491Y391351D01*
X553494Y391363D01*
X553493Y391383D01*
X553499Y391483D01*
X553499Y392864D01*
X556136Y395501D01*
X559864Y395501D01*
X561223Y394142D01*
X561301Y394082D01*
X561373Y394014D01*
X561426Y393985D01*
X561474Y393948D01*
X561565Y393908D01*
X561651Y393860D01*
X561710Y393845D01*
X561766Y393821D01*
X561864Y393806D01*
X561959Y393781D01*
X562059Y393775D01*
X562080Y393771D01*
X562092Y393773D01*
X562120Y393771D01*
X657327Y393771D01*
X657425Y393783D01*
X657524Y393786D01*
X657582Y393803D01*
X657642Y393811D01*
X657734Y393847D01*
X657829Y393875D01*
X657881Y393905D01*
X657938Y393928D01*
X658018Y393986D01*
X658103Y394036D01*
X658179Y394102D01*
X658195Y394114D01*
X658203Y394124D01*
X658224Y394142D01*
X659911Y395830D01*
X659929Y395853D01*
X659952Y395872D01*
X660026Y395978D01*
X660106Y396081D01*
X660118Y396108D01*
X660135Y396132D01*
X660181Y396253D01*
X660232Y396373D01*
X660237Y396402D01*
X660248Y396429D01*
X660262Y396558D01*
X660282Y396687D01*
X660279Y396716D01*
X660283Y396745D01*
X660265Y396874D01*
X660252Y397003D01*
X660242Y397031D01*
X660238Y397060D01*
X660186Y397213D01*
X659101Y399832D01*
X659101Y404168D01*
X660760Y408174D01*
X663826Y411240D01*
X667832Y412899D01*
X672168Y412899D01*
X676174Y411240D01*
X679240Y408174D01*
X680899Y404168D01*
X680899Y399832D01*
X679240Y395826D01*
X676174Y392760D01*
X672168Y391101D01*
X667832Y391101D01*
X665213Y392186D01*
X665184Y392194D01*
X665158Y392207D01*
X665031Y392236D01*
X664906Y392270D01*
X664876Y392271D01*
X664848Y392277D01*
X664718Y392273D01*
X664588Y392275D01*
X664559Y392268D01*
X664530Y392267D01*
X664405Y392231D01*
X664279Y392201D01*
X664253Y392187D01*
X664224Y392179D01*
X664113Y392113D01*
X663998Y392052D01*
X663976Y392032D01*
X663950Y392018D01*
X663830Y391911D01*
X660148Y388229D01*
X562120Y388229D01*
X562022Y388217D01*
X561923Y388214D01*
X561865Y388197D01*
X561804Y388189D01*
X561712Y388153D01*
X561617Y388125D01*
X561565Y388095D01*
X561509Y388072D01*
X561429Y388014D01*
X561343Y387964D01*
X561268Y387898D01*
X561251Y387886D01*
X561244Y387876D01*
X561223Y387858D01*
X559864Y386499D01*
X558483Y386499D01*
X558346Y386482D01*
X558207Y386469D01*
X558188Y386462D01*
X558168Y386459D01*
X558039Y386408D01*
X557908Y386361D01*
X557891Y386350D01*
X557872Y386342D01*
X557760Y386261D01*
X557645Y386183D01*
X557631Y386167D01*
X557615Y386156D01*
X557526Y386048D01*
X557434Y385944D01*
X557425Y385926D01*
X557412Y385911D01*
X557353Y385785D01*
X557290Y385661D01*
X557285Y385641D01*
X557276Y385623D01*
X557250Y385487D01*
X557220Y385351D01*
X557220Y385330D01*
X557217Y385311D01*
X557225Y385172D01*
X557230Y385033D01*
X557235Y385013D01*
X557236Y384993D01*
X557279Y384861D01*
X557318Y384727D01*
X557328Y384710D01*
X557334Y384691D01*
X557409Y384573D01*
X557479Y384453D01*
X557498Y384432D01*
X557505Y384422D01*
X557519Y384408D01*
X557586Y384333D01*
X576771Y365148D01*
X576771Y336120D01*
X576783Y336022D01*
X576786Y335923D01*
X576803Y335865D01*
X576811Y335804D01*
X576847Y335712D01*
X576875Y335617D01*
X576905Y335565D01*
X576928Y335509D01*
X576986Y335429D01*
X577036Y335343D01*
X577102Y335268D01*
X577114Y335251D01*
X577124Y335244D01*
X577142Y335223D01*
X578501Y333864D01*
X578501Y330136D01*
X575864Y327499D01*
X572136Y327499D01*
X569499Y330136D01*
X569499Y333864D01*
X570858Y335223D01*
X570918Y335301D01*
X570986Y335373D01*
X571015Y335426D01*
X571052Y335474D01*
X571092Y335565D01*
X571140Y335651D01*
X571155Y335710D01*
X571179Y335766D01*
X571194Y335864D01*
X571219Y335959D01*
X571225Y336059D01*
X571229Y336080D01*
X571227Y336092D01*
X571229Y336120D01*
X571229Y362327D01*
X571217Y362425D01*
X571214Y362524D01*
X571197Y362582D01*
X571189Y362642D01*
X571153Y362734D01*
X571125Y362829D01*
X571095Y362881D01*
X571072Y362938D01*
X571014Y363018D01*
X570964Y363103D01*
X570898Y363179D01*
X570886Y363195D01*
X570876Y363203D01*
X570858Y363224D01*
X545667Y388414D01*
X545558Y388499D01*
X545451Y388588D01*
X545432Y388597D01*
X545416Y388609D01*
X545288Y388665D01*
X545163Y388724D01*
X545143Y388727D01*
X545124Y388735D01*
X544986Y388757D01*
X544850Y388783D01*
X544830Y388782D01*
X544810Y388785D01*
X544671Y388772D01*
X544533Y388764D01*
X544514Y388757D01*
X544494Y388755D01*
X544362Y388708D01*
X544231Y388666D01*
X544213Y388655D01*
X544194Y388648D01*
X544079Y388570D01*
X543962Y388495D01*
X543948Y388481D01*
X543931Y388469D01*
X543839Y388365D01*
X543744Y388264D01*
X543734Y388246D01*
X543721Y388231D01*
X543657Y388107D01*
X543590Y387985D01*
X543585Y387966D01*
X543576Y387948D01*
X543546Y387812D01*
X543511Y387677D01*
X543509Y387649D01*
X543506Y387637D01*
X543507Y387617D01*
X543501Y387517D01*
X543501Y386136D01*
X540864Y383499D01*
X537136Y383499D01*
X534499Y386136D01*
X534499Y389864D01*
X535858Y391223D01*
X535918Y391301D01*
X535986Y391373D01*
X536015Y391426D01*
X536052Y391474D01*
X536092Y391565D01*
X536140Y391651D01*
X536155Y391710D01*
X536179Y391766D01*
X536194Y391864D01*
X536219Y391959D01*
X536225Y392059D01*
X536229Y392080D01*
X536227Y392092D01*
X536229Y392120D01*
X536229Y476148D01*
X546414Y486333D01*
X546499Y486442D01*
X546588Y486549D01*
X546597Y486568D01*
X546609Y486584D01*
X546665Y486712D01*
X546724Y486837D01*
X546727Y486857D01*
X546735Y486876D01*
X546757Y487014D01*
X546783Y487150D01*
X546782Y487170D01*
X546785Y487190D01*
X546772Y487329D01*
X546764Y487467D01*
X546757Y487486D01*
X546755Y487506D01*
X546708Y487638D01*
X546666Y487769D01*
X546655Y487787D01*
X546648Y487806D01*
X546570Y487921D01*
X546495Y488038D01*
X546481Y488052D01*
X546469Y488069D01*
X546365Y488161D01*
X546264Y488256D01*
X546246Y488266D01*
X546231Y488279D01*
X546107Y488343D01*
X545985Y488410D01*
X545966Y488415D01*
X545948Y488424D01*
X545812Y488454D01*
X545677Y488489D01*
X545649Y488491D01*
X545637Y488494D01*
X545617Y488493D01*
X545517Y488499D01*
X543136Y488499D01*
X540499Y491136D01*
X540499Y494864D01*
X541858Y496223D01*
X541918Y496301D01*
X541986Y496373D01*
X542015Y496426D01*
X542052Y496474D01*
X542092Y496565D01*
X542140Y496651D01*
X542155Y496710D01*
X542179Y496766D01*
X542194Y496864D01*
X542219Y496959D01*
X542225Y497059D01*
X542229Y497080D01*
X542227Y497092D01*
X542229Y497120D01*
X542229Y499534D01*
X559128Y516432D01*
X559188Y516510D01*
X559256Y516582D01*
X559285Y516635D01*
X559322Y516683D01*
X559362Y516774D01*
X559410Y516861D01*
X559425Y516919D01*
X559449Y516975D01*
X559464Y517073D01*
X559489Y517169D01*
X559495Y517269D01*
X559499Y517289D01*
X559497Y517301D01*
X559499Y517329D01*
X559499Y519304D01*
X559506Y519314D01*
X559562Y519442D01*
X559621Y519567D01*
X559625Y519587D01*
X559633Y519606D01*
X559655Y519743D01*
X559681Y519880D01*
X559679Y519900D01*
X559683Y519920D01*
X559670Y520058D01*
X559661Y520197D01*
X559655Y520216D01*
X559653Y520236D01*
X559606Y520367D01*
X559563Y520499D01*
X559552Y520517D01*
X559545Y520536D01*
X559467Y520650D01*
X559393Y520768D01*
X559378Y520782D01*
X559367Y520799D01*
X559263Y520891D01*
X559161Y520986D01*
X559143Y520996D01*
X559128Y521009D01*
X559005Y521072D01*
X558883Y521140D01*
X558863Y521145D01*
X558845Y521154D01*
X558709Y521184D01*
X558575Y521219D01*
X558547Y521221D01*
X558535Y521224D01*
X558514Y521223D01*
X558414Y521229D01*
X515673Y521229D01*
X515575Y521217D01*
X515476Y521214D01*
X515418Y521197D01*
X515358Y521189D01*
X515266Y521153D01*
X515171Y521125D01*
X515119Y521095D01*
X515062Y521072D01*
X514982Y521014D01*
X514897Y520964D01*
X514821Y520898D01*
X514805Y520886D01*
X514797Y520876D01*
X514776Y520858D01*
X464142Y470224D01*
X464082Y470146D01*
X464014Y470074D01*
X463985Y470021D01*
X463948Y469973D01*
X463908Y469882D01*
X463860Y469795D01*
X463845Y469737D01*
X463821Y469681D01*
X463806Y469583D01*
X463781Y469487D01*
X463775Y469387D01*
X463771Y469367D01*
X463773Y469355D01*
X463771Y469327D01*
X463771Y453862D01*
X463784Y453759D01*
X463788Y453654D01*
X463804Y453601D01*
X463811Y453547D01*
X463849Y453450D01*
X463879Y453349D01*
X463907Y453302D01*
X463928Y453251D01*
X463989Y453167D01*
X464043Y453077D01*
X464082Y453038D01*
X464114Y452994D01*
X464195Y452927D01*
X464270Y452854D01*
X464317Y452826D01*
X464359Y452791D01*
X464454Y452746D01*
X464544Y452694D01*
X464597Y452679D01*
X464647Y452656D01*
X464750Y452636D01*
X464850Y452607D01*
X464906Y452606D01*
X464959Y452596D01*
X465064Y452602D01*
X465168Y452600D01*
X465222Y452612D01*
X465277Y452615D01*
X465376Y452648D01*
X465478Y452671D01*
X465527Y452697D01*
X465579Y452714D01*
X465668Y452769D01*
X465761Y452818D01*
X465802Y452854D01*
X465848Y452884D01*
X465920Y452960D01*
X465998Y453030D01*
X466051Y453100D01*
X466066Y453115D01*
X466073Y453128D01*
X466095Y453157D01*
X466116Y453188D01*
X466812Y453884D01*
X467631Y454432D01*
X468541Y454809D01*
X468731Y454846D01*
X468731Y450000D01*
X468731Y445154D01*
X468541Y445191D01*
X467631Y445568D01*
X466812Y446116D01*
X466116Y446812D01*
X466095Y446843D01*
X466027Y446922D01*
X465966Y447006D01*
X465923Y447041D01*
X465887Y447083D01*
X465801Y447142D01*
X465721Y447209D01*
X465671Y447232D01*
X465626Y447264D01*
X465527Y447300D01*
X465433Y447344D01*
X465379Y447355D01*
X465327Y447374D01*
X465223Y447385D01*
X465120Y447404D01*
X465066Y447401D01*
X465011Y447406D01*
X464907Y447391D01*
X464803Y447385D01*
X464751Y447368D01*
X464696Y447359D01*
X464600Y447319D01*
X464501Y447286D01*
X464454Y447257D01*
X464403Y447236D01*
X464320Y447172D01*
X464232Y447116D01*
X464194Y447076D01*
X464150Y447043D01*
X464086Y446961D01*
X464014Y446885D01*
X463987Y446837D01*
X463953Y446793D01*
X463911Y446698D01*
X463860Y446606D01*
X463847Y446553D01*
X463824Y446503D01*
X463807Y446399D01*
X463781Y446298D01*
X463775Y446210D01*
X463772Y446189D01*
X463773Y446174D01*
X463771Y446138D01*
X463771Y394120D01*
X463783Y394022D01*
X463786Y393923D01*
X463803Y393864D01*
X463811Y393804D01*
X463847Y393712D01*
X463875Y393617D01*
X463905Y393565D01*
X463928Y393509D01*
X463986Y393429D01*
X464036Y393343D01*
X464102Y393268D01*
X464114Y393251D01*
X464124Y393244D01*
X464142Y393223D01*
X465501Y391864D01*
X465501Y388136D01*
X462864Y385499D01*
X459136Y385499D01*
X456490Y388145D01*
X456482Y388207D01*
X456469Y388347D01*
X456462Y388366D01*
X456459Y388386D01*
X456408Y388515D01*
X456361Y388646D01*
X456350Y388662D01*
X456342Y388681D01*
X456261Y388794D01*
X456183Y388909D01*
X456167Y388922D01*
X456156Y388939D01*
X456048Y389027D01*
X455944Y389119D01*
X455926Y389129D01*
X455911Y389141D01*
X455785Y389201D01*
X455661Y389264D01*
X455641Y389268D01*
X455623Y389277D01*
X455486Y389303D01*
X455351Y389334D01*
X455330Y389333D01*
X455311Y389337D01*
X455172Y389328D01*
X455033Y389324D01*
X455013Y389318D01*
X454993Y389317D01*
X454861Y389274D01*
X454727Y389235D01*
X454710Y389225D01*
X454691Y389219D01*
X454573Y389144D01*
X454453Y389074D01*
X454432Y389055D01*
X454422Y389049D01*
X454408Y389034D01*
X454332Y388967D01*
X454142Y388777D01*
X454082Y388699D01*
X454014Y388627D01*
X453985Y388574D01*
X453948Y388526D01*
X453908Y388435D01*
X453860Y388349D01*
X453845Y388290D01*
X453821Y388234D01*
X453806Y388136D01*
X453781Y388041D01*
X453775Y387940D01*
X453771Y387920D01*
X453773Y387908D01*
X453771Y387880D01*
X453771Y331673D01*
X453783Y331575D01*
X453786Y331476D01*
X453803Y331418D01*
X453811Y331358D01*
X453847Y331266D01*
X453875Y331171D01*
X453905Y331118D01*
X453928Y331062D01*
X453986Y330982D01*
X454036Y330897D01*
X454102Y330821D01*
X454114Y330805D01*
X454124Y330797D01*
X454142Y330776D01*
X479776Y305142D01*
X479854Y305082D01*
X479926Y305014D01*
X479979Y304985D01*
X480027Y304948D01*
X480118Y304908D01*
X480205Y304860D01*
X480263Y304845D01*
X480319Y304821D01*
X480417Y304806D01*
X480513Y304781D01*
X480613Y304775D01*
X480633Y304771D01*
X480645Y304773D01*
X480673Y304771D01*
X491376Y304771D01*
X491514Y304788D01*
X491653Y304801D01*
X491672Y304808D01*
X491692Y304811D01*
X491821Y304862D01*
X491952Y304909D01*
X491969Y304920D01*
X491987Y304928D01*
X492100Y305009D01*
X492215Y305087D01*
X492228Y305103D01*
X492245Y305114D01*
X492333Y305222D01*
X492425Y305326D01*
X492435Y305344D01*
X492447Y305359D01*
X492507Y305485D01*
X492570Y305609D01*
X492574Y305629D01*
X492583Y305647D01*
X492609Y305784D01*
X492640Y305919D01*
X492639Y305940D01*
X492643Y305959D01*
X492634Y306098D01*
X492630Y306237D01*
X492624Y306257D01*
X492623Y306277D01*
X492580Y306409D01*
X492541Y306543D01*
X492531Y306560D01*
X492525Y306579D01*
X492499Y306620D01*
X492499Y310440D01*
X493914Y311855D01*
X493957Y311911D01*
X494007Y311959D01*
X494054Y312036D01*
X494109Y312107D01*
X494137Y312171D01*
X494174Y312230D01*
X494200Y312316D01*
X494236Y312399D01*
X494247Y312468D01*
X494267Y312534D01*
X494271Y312624D01*
X494286Y312713D01*
X494279Y312782D01*
X494282Y312852D01*
X494264Y312940D01*
X494256Y313029D01*
X494232Y313095D01*
X494218Y313163D01*
X494179Y313244D01*
X494148Y313329D01*
X494109Y313386D01*
X494078Y313449D01*
X494020Y313517D01*
X493970Y313592D01*
X493917Y313638D01*
X493872Y313691D01*
X493799Y313743D01*
X493731Y313802D01*
X493669Y313834D01*
X493612Y313874D01*
X493528Y313906D01*
X493448Y313947D01*
X493380Y313962D01*
X493315Y313987D01*
X493225Y313997D01*
X493138Y314016D01*
X493068Y314014D01*
X492998Y314022D01*
X492910Y314009D01*
X492820Y314007D01*
X492753Y313987D01*
X492684Y313978D01*
X492531Y313926D01*
X491309Y313419D01*
X488691Y313419D01*
X486272Y314421D01*
X484421Y316272D01*
X483419Y318691D01*
X483419Y453309D01*
X484421Y455728D01*
X486272Y457579D01*
X488691Y458581D01*
X491309Y458581D01*
X493728Y457579D01*
X495579Y455728D01*
X496581Y453309D01*
X496581Y318691D01*
X495579Y316272D01*
X494550Y315243D01*
X494465Y315134D01*
X494376Y315027D01*
X494367Y315008D01*
X494355Y314992D01*
X494300Y314865D01*
X494241Y314739D01*
X494237Y314719D01*
X494229Y314700D01*
X494207Y314562D01*
X494181Y314426D01*
X494182Y314406D01*
X494179Y314386D01*
X494192Y314247D01*
X494201Y314109D01*
X494207Y314090D01*
X494209Y314070D01*
X494256Y313938D01*
X494299Y313807D01*
X494309Y313789D01*
X494316Y313770D01*
X494394Y313655D01*
X494469Y313538D01*
X494484Y313524D01*
X494495Y313507D01*
X494599Y313415D01*
X494700Y313320D01*
X494718Y313310D01*
X494733Y313297D01*
X494857Y313234D01*
X494979Y313166D01*
X494998Y313161D01*
X495017Y313152D01*
X495152Y313122D01*
X495287Y313087D01*
X495315Y313085D01*
X495327Y313082D01*
X495347Y313083D01*
X495448Y313077D01*
X497057Y313077D01*
X497155Y313089D01*
X497254Y313092D01*
X497312Y313109D01*
X497372Y313117D01*
X497464Y313153D01*
X497559Y313181D01*
X497611Y313211D01*
X497668Y313234D01*
X497748Y313292D01*
X497833Y313342D01*
X497909Y313408D01*
X497925Y313420D01*
X497933Y313430D01*
X497954Y313448D01*
X502858Y318352D01*
X502918Y318430D01*
X502986Y318502D01*
X503015Y318555D01*
X503052Y318603D01*
X503092Y318694D01*
X503140Y318781D01*
X503155Y318839D01*
X503179Y318895D01*
X503194Y318993D01*
X503219Y319089D01*
X503225Y319189D01*
X503229Y319209D01*
X503227Y319221D01*
X503229Y319249D01*
X503229Y363880D01*
X503217Y363978D01*
X503214Y364077D01*
X503197Y364135D01*
X503189Y364196D01*
X503153Y364288D01*
X503125Y364383D01*
X503095Y364435D01*
X503072Y364491D01*
X503014Y364571D01*
X502964Y364657D01*
X502898Y364732D01*
X502886Y364749D01*
X502876Y364756D01*
X502858Y364777D01*
X501499Y366136D01*
X501499Y369864D01*
X504136Y372501D01*
X507864Y372501D01*
X510501Y369864D01*
X510501Y366136D01*
X509142Y364777D01*
X509082Y364699D01*
X509014Y364627D01*
X508985Y364574D01*
X508948Y364526D01*
X508908Y364435D01*
X508860Y364349D01*
X508845Y364290D01*
X508821Y364234D01*
X508806Y364136D01*
X508781Y364041D01*
X508775Y363941D01*
X508771Y363920D01*
X508773Y363908D01*
X508771Y363880D01*
X508771Y316428D01*
X501872Y309530D01*
X501812Y309452D01*
X501744Y309380D01*
X501715Y309327D01*
X501678Y309279D01*
X501638Y309188D01*
X501590Y309101D01*
X501575Y309043D01*
X501551Y308987D01*
X501536Y308889D01*
X501511Y308793D01*
X501505Y308693D01*
X501501Y308673D01*
X501503Y308661D01*
X501501Y308633D01*
X501501Y306615D01*
X501476Y306558D01*
X501417Y306433D01*
X501413Y306413D01*
X501405Y306394D01*
X501383Y306257D01*
X501357Y306120D01*
X501359Y306100D01*
X501355Y306080D01*
X501368Y305942D01*
X501377Y305803D01*
X501383Y305784D01*
X501385Y305764D01*
X501432Y305632D01*
X501475Y305501D01*
X501486Y305484D01*
X501493Y305464D01*
X501571Y305350D01*
X501645Y305232D01*
X501660Y305218D01*
X501671Y305201D01*
X501775Y305110D01*
X501877Y305014D01*
X501895Y305004D01*
X501910Y304991D01*
X502034Y304928D01*
X502155Y304860D01*
X502175Y304855D01*
X502193Y304846D01*
X502329Y304816D01*
X502463Y304781D01*
X502491Y304779D01*
X502503Y304776D01*
X502524Y304777D01*
X502624Y304771D01*
X590327Y304771D01*
X590425Y304783D01*
X590524Y304786D01*
X590582Y304803D01*
X590642Y304811D01*
X590734Y304847D01*
X590829Y304875D01*
X590881Y304905D01*
X590938Y304928D01*
X591018Y304986D01*
X591103Y305036D01*
X591179Y305102D01*
X591195Y305114D01*
X591203Y305124D01*
X591224Y305142D01*
X658915Y372834D01*
X658933Y372857D01*
X658956Y372876D01*
X659030Y372982D01*
X659110Y373085D01*
X659122Y373112D01*
X659139Y373136D01*
X659185Y373257D01*
X659237Y373377D01*
X659241Y373406D01*
X659252Y373434D01*
X659266Y373562D01*
X659286Y373691D01*
X659284Y373720D01*
X659287Y373750D01*
X659269Y373878D01*
X659257Y374008D01*
X659247Y374035D01*
X659242Y374065D01*
X659190Y374217D01*
X659101Y374432D01*
X659101Y378768D01*
X660760Y382774D01*
X663826Y385840D01*
X667832Y387499D01*
X672168Y387499D01*
X676174Y385840D01*
X679240Y382774D01*
X680899Y378768D01*
X680899Y374432D01*
X679240Y370426D01*
X676174Y367360D01*
X672168Y365701D01*
X667832Y365701D01*
X663826Y367360D01*
X663450Y367737D01*
X663356Y367810D01*
X663267Y367889D01*
X663231Y367907D01*
X663199Y367932D01*
X663090Y367979D01*
X662984Y368033D01*
X662944Y368042D01*
X662907Y368058D01*
X662789Y368077D01*
X662673Y368103D01*
X662633Y368102D01*
X662593Y368108D01*
X662474Y368097D01*
X662355Y368093D01*
X662317Y368082D01*
X662276Y368078D01*
X662164Y368038D01*
X662050Y368005D01*
X662015Y367984D01*
X661977Y367970D01*
X661879Y367904D01*
X661776Y367843D01*
X661731Y367803D01*
X661714Y367792D01*
X661700Y367777D01*
X661655Y367737D01*
X624656Y330737D01*
X624571Y330628D01*
X624482Y330521D01*
X624473Y330502D01*
X624461Y330486D01*
X624405Y330358D01*
X624346Y330233D01*
X624343Y330213D01*
X624335Y330194D01*
X624313Y330056D01*
X624287Y329920D01*
X624288Y329900D01*
X624285Y329880D01*
X624298Y329741D01*
X624306Y329603D01*
X624313Y329584D01*
X624315Y329564D01*
X624362Y329432D01*
X624404Y329301D01*
X624415Y329283D01*
X624422Y329264D01*
X624500Y329149D01*
X624575Y329032D01*
X624589Y329018D01*
X624601Y329001D01*
X624705Y328909D01*
X624806Y328814D01*
X624824Y328804D01*
X624839Y328791D01*
X624963Y328727D01*
X625085Y328660D01*
X625104Y328655D01*
X625122Y328646D01*
X625258Y328616D01*
X625393Y328581D01*
X625421Y328579D01*
X625433Y328576D01*
X625453Y328577D01*
X625553Y328571D01*
X658503Y328571D01*
X658532Y328574D01*
X658562Y328572D01*
X658690Y328594D01*
X658818Y328611D01*
X658846Y328621D01*
X658875Y328626D01*
X658993Y328680D01*
X659114Y328728D01*
X659138Y328745D01*
X659165Y328757D01*
X659266Y328838D01*
X659371Y328914D01*
X659390Y328937D01*
X659413Y328956D01*
X659491Y329059D01*
X659574Y329159D01*
X659587Y329186D01*
X659605Y329210D01*
X659676Y329354D01*
X660760Y331974D01*
X663826Y335040D01*
X667832Y336699D01*
X672168Y336699D01*
X676174Y335040D01*
X679240Y331974D01*
X680899Y327968D01*
X680899Y323632D01*
X679240Y319626D01*
X676174Y316560D01*
X672168Y314901D01*
X667832Y314901D01*
X665213Y315986D01*
X665184Y315994D01*
X665158Y316007D01*
X665031Y316036D01*
X664906Y316070D01*
X664876Y316071D01*
X664848Y316077D01*
X664718Y316073D01*
X664588Y316075D01*
X664559Y316068D01*
X664530Y316067D01*
X664405Y316031D01*
X664279Y316001D01*
X664253Y315987D01*
X664224Y315979D01*
X664112Y315913D01*
X663998Y315852D01*
X663976Y315833D01*
X663950Y315818D01*
X663830Y315711D01*
X643992Y295873D01*
X643907Y295764D01*
X643818Y295657D01*
X643809Y295638D01*
X643797Y295622D01*
X643741Y295494D01*
X643682Y295369D01*
X643679Y295349D01*
X643671Y295330D01*
X643649Y295192D01*
X643623Y295056D01*
X643624Y295036D01*
X643621Y295016D01*
X643634Y294877D01*
X643642Y294739D01*
X643649Y294720D01*
X643651Y294700D01*
X643698Y294568D01*
X643740Y294437D01*
X643751Y294419D01*
X643758Y294400D01*
X643836Y294285D01*
X643911Y294168D01*
X643925Y294154D01*
X643937Y294137D01*
X644041Y294045D01*
X644142Y293950D01*
X644160Y293940D01*
X644175Y293927D01*
X644299Y293863D01*
X644421Y293796D01*
X644440Y293791D01*
X644458Y293782D01*
X644594Y293752D01*
X644729Y293717D01*
X644757Y293715D01*
X644769Y293712D01*
X644789Y293713D01*
X644889Y293707D01*
X658210Y293707D01*
X658308Y293719D01*
X658407Y293722D01*
X658465Y293739D01*
X658525Y293747D01*
X658617Y293783D01*
X658713Y293811D01*
X658765Y293841D01*
X658821Y293864D01*
X658901Y293922D01*
X658987Y293972D01*
X659062Y294038D01*
X659079Y294050D01*
X659086Y294060D01*
X659107Y294078D01*
X659720Y294691D01*
X659738Y294714D01*
X659761Y294733D01*
X659835Y294840D01*
X659915Y294942D01*
X659927Y294969D01*
X659944Y294994D01*
X659990Y295115D01*
X660041Y295234D01*
X660046Y295263D01*
X660056Y295291D01*
X660071Y295420D01*
X660091Y295548D01*
X660088Y295578D01*
X660092Y295607D01*
X660073Y295735D01*
X660061Y295865D01*
X660051Y295893D01*
X660047Y295922D01*
X659995Y296074D01*
X659101Y298232D01*
X659101Y302568D01*
X660760Y306574D01*
X663826Y309640D01*
X667832Y311299D01*
X672168Y311299D01*
X676174Y309640D01*
X679240Y306574D01*
X680899Y302568D01*
X680899Y298232D01*
X679240Y294226D01*
X676174Y291160D01*
X672168Y289501D01*
X667832Y289501D01*
X664751Y290777D01*
X664723Y290785D01*
X664696Y290799D01*
X664570Y290827D01*
X664445Y290861D01*
X664415Y290862D01*
X664386Y290868D01*
X664256Y290864D01*
X664127Y290866D01*
X664098Y290860D01*
X664068Y290859D01*
X663944Y290823D01*
X663817Y290792D01*
X663791Y290778D01*
X663763Y290770D01*
X663651Y290704D01*
X663536Y290644D01*
X663514Y290624D01*
X663489Y290609D01*
X663368Y290502D01*
X661031Y288165D01*
X596609Y288165D01*
X596511Y288153D01*
X596412Y288150D01*
X596354Y288133D01*
X596294Y288125D01*
X596202Y288089D01*
X596107Y288061D01*
X596054Y288031D01*
X595998Y288008D01*
X595918Y287950D01*
X595833Y287900D01*
X595757Y287834D01*
X595741Y287822D01*
X595733Y287812D01*
X595712Y287794D01*
X595586Y287667D01*
X595501Y287558D01*
X595412Y287451D01*
X595403Y287432D01*
X595391Y287416D01*
X595335Y287288D01*
X595276Y287163D01*
X595273Y287143D01*
X595265Y287124D01*
X595243Y286986D01*
X595217Y286850D01*
X595218Y286830D01*
X595215Y286810D01*
X595228Y286671D01*
X595236Y286533D01*
X595243Y286514D01*
X595245Y286494D01*
X595292Y286362D01*
X595334Y286231D01*
X595345Y286213D01*
X595352Y286194D01*
X595430Y286079D01*
X595505Y285962D01*
X595519Y285948D01*
X595531Y285931D01*
X595635Y285839D01*
X595736Y285744D01*
X595754Y285734D01*
X595769Y285721D01*
X595893Y285657D01*
X596015Y285590D01*
X596034Y285585D01*
X596052Y285576D01*
X596188Y285546D01*
X596323Y285511D01*
X596351Y285509D01*
X596363Y285506D01*
X596383Y285507D01*
X596483Y285501D01*
X599864Y285501D01*
X602501Y282864D01*
X602501Y279136D01*
X601142Y277777D01*
X601082Y277699D01*
X601014Y277627D01*
X600985Y277574D01*
X600948Y277526D01*
X600908Y277435D01*
X600860Y277349D01*
X600845Y277290D01*
X600821Y277234D01*
X600806Y277136D01*
X600781Y277041D01*
X600775Y276941D01*
X600771Y276920D01*
X600773Y276908D01*
X600771Y276880D01*
X600771Y214473D01*
X600783Y214375D01*
X600786Y214276D01*
X600803Y214218D01*
X600811Y214158D01*
X600847Y214066D01*
X600875Y213971D01*
X600897Y213933D01*
X600899Y213926D01*
X600908Y213912D01*
X600928Y213862D01*
X600986Y213782D01*
X601036Y213697D01*
X601065Y213664D01*
X601069Y213657D01*
X601079Y213649D01*
X601102Y213621D01*
X601114Y213605D01*
X601124Y213597D01*
X601142Y213576D01*
X663830Y150889D01*
X663853Y150871D01*
X663872Y150848D01*
X663978Y150774D01*
X664081Y150694D01*
X664108Y150682D01*
X664132Y150665D01*
X664253Y150619D01*
X664373Y150568D01*
X664402Y150563D01*
X664429Y150552D01*
X664558Y150538D01*
X664687Y150518D01*
X664716Y150521D01*
X664745Y150517D01*
X664874Y150535D01*
X665003Y150548D01*
X665031Y150558D01*
X665060Y150562D01*
X665213Y150614D01*
X667832Y151699D01*
X672168Y151699D01*
X676174Y150040D01*
X679240Y146974D01*
X680899Y142968D01*
X680899Y138632D01*
X679240Y134626D01*
X676174Y131560D01*
X672168Y129901D01*
X667832Y129901D01*
X663826Y131560D01*
X660760Y134626D01*
X659101Y138632D01*
X659101Y142968D01*
X660186Y145587D01*
X660194Y145616D01*
X660207Y145642D01*
X660236Y145769D01*
X660270Y145894D01*
X660271Y145924D01*
X660277Y145952D01*
X660273Y146082D01*
X660275Y146212D01*
X660268Y146241D01*
X660267Y146270D01*
X660231Y146395D01*
X660201Y146521D01*
X660187Y146547D01*
X660179Y146576D01*
X660113Y146688D01*
X660052Y146802D01*
X660033Y146824D01*
X660018Y146850D01*
X659911Y146970D01*
X597224Y209658D01*
X595229Y211652D01*
X595229Y276880D01*
X595217Y276978D01*
X595214Y277077D01*
X595197Y277135D01*
X595189Y277196D01*
X595153Y277288D01*
X595125Y277383D01*
X595095Y277435D01*
X595072Y277491D01*
X595014Y277571D01*
X594964Y277657D01*
X594898Y277732D01*
X594886Y277749D01*
X594876Y277756D01*
X594858Y277777D01*
X593499Y279136D01*
X593499Y282517D01*
X593482Y282654D01*
X593469Y282793D01*
X593462Y282812D01*
X593459Y282832D01*
X593408Y282961D01*
X593361Y283092D01*
X593350Y283109D01*
X593342Y283128D01*
X593261Y283240D01*
X593183Y283355D01*
X593167Y283369D01*
X593156Y283385D01*
X593048Y283474D01*
X592944Y283566D01*
X592926Y283575D01*
X592911Y283588D01*
X592785Y283647D01*
X592661Y283710D01*
X592641Y283715D01*
X592623Y283724D01*
X592487Y283750D01*
X592351Y283780D01*
X592330Y283780D01*
X592311Y283783D01*
X592172Y283775D01*
X592033Y283770D01*
X592013Y283765D01*
X591993Y283764D01*
X591861Y283721D01*
X591727Y283682D01*
X591710Y283672D01*
X591691Y283666D01*
X591573Y283591D01*
X591453Y283521D01*
X591432Y283502D01*
X591422Y283495D01*
X591408Y283481D01*
X591333Y283414D01*
X590142Y282224D01*
X590082Y282146D01*
X590014Y282074D01*
X589985Y282021D01*
X589948Y281973D01*
X589908Y281882D01*
X589860Y281795D01*
X589845Y281737D01*
X589821Y281681D01*
X589806Y281583D01*
X589781Y281487D01*
X589775Y281387D01*
X589771Y281367D01*
X589773Y281355D01*
X589771Y281327D01*
X589771Y200073D01*
X589783Y199975D01*
X589786Y199876D01*
X589803Y199818D01*
X589811Y199758D01*
X589847Y199666D01*
X589875Y199571D01*
X589905Y199518D01*
X589928Y199462D01*
X589986Y199382D01*
X590036Y199297D01*
X590102Y199221D01*
X590114Y199205D01*
X590124Y199197D01*
X590142Y199176D01*
X663830Y125489D01*
X663853Y125471D01*
X663872Y125448D01*
X663978Y125374D01*
X664081Y125294D01*
X664108Y125282D01*
X664132Y125265D01*
X664253Y125219D01*
X664373Y125168D01*
X664402Y125163D01*
X664429Y125152D01*
X664558Y125138D01*
X664687Y125118D01*
X664716Y125121D01*
X664745Y125117D01*
X664874Y125135D01*
X665003Y125148D01*
X665031Y125158D01*
X665060Y125162D01*
X665213Y125214D01*
X667832Y126299D01*
X672168Y126299D01*
X676174Y124640D01*
X679240Y121574D01*
X680899Y117568D01*
X680899Y113232D01*
X679240Y109226D01*
X676174Y106160D01*
X672168Y104501D01*
X667832Y104501D01*
G37*
%LPD*%
%LPC*%
G36*
X225381Y46869D02*
X225381Y46869D01*
X105136Y167114D01*
X105081Y167157D01*
X105032Y167207D01*
X104956Y167254D01*
X104885Y167309D01*
X104821Y167337D01*
X104761Y167373D01*
X104676Y167399D01*
X104593Y167435D01*
X104524Y167446D01*
X104457Y167467D01*
X104368Y167471D01*
X104279Y167485D01*
X104209Y167479D01*
X104140Y167482D01*
X104052Y167464D01*
X103962Y167455D01*
X103897Y167432D01*
X103828Y167418D01*
X103747Y167378D01*
X103663Y167348D01*
X103605Y167309D01*
X103543Y167278D01*
X103474Y167220D01*
X103400Y167169D01*
X103354Y167117D01*
X103301Y167071D01*
X103249Y166998D01*
X103189Y166931D01*
X103158Y166869D01*
X103117Y166811D01*
X103086Y166727D01*
X103045Y166647D01*
X103029Y166579D01*
X103005Y166514D01*
X102995Y166425D01*
X102975Y166337D01*
X102977Y166267D01*
X102969Y166198D01*
X102982Y166109D01*
X102985Y166019D01*
X103004Y165952D01*
X103014Y165883D01*
X103066Y165731D01*
X104140Y163138D01*
X104140Y159662D01*
X102809Y156449D01*
X100351Y153991D01*
X97138Y152660D01*
X93662Y152660D01*
X90449Y153991D01*
X87991Y156449D01*
X86660Y159662D01*
X86660Y163138D01*
X87991Y166351D01*
X90449Y168809D01*
X91749Y169347D01*
X91809Y169382D01*
X91874Y169408D01*
X91947Y169460D01*
X92025Y169505D01*
X92075Y169553D01*
X92132Y169594D01*
X92189Y169664D01*
X92253Y169726D01*
X92290Y169786D01*
X92334Y169839D01*
X92373Y169921D01*
X92420Y169997D01*
X92440Y170064D01*
X92470Y170127D01*
X92487Y170215D01*
X92513Y170301D01*
X92517Y170371D01*
X92530Y170440D01*
X92524Y170529D01*
X92528Y170619D01*
X92514Y170687D01*
X92510Y170757D01*
X92482Y170842D01*
X92464Y170930D01*
X92433Y170993D01*
X92412Y171059D01*
X92364Y171135D01*
X92324Y171216D01*
X92279Y171269D01*
X92242Y171328D01*
X92176Y171390D01*
X92118Y171458D01*
X92061Y171498D01*
X92010Y171546D01*
X91931Y171589D01*
X91858Y171641D01*
X91793Y171666D01*
X91732Y171700D01*
X91645Y171722D01*
X91561Y171754D01*
X91491Y171762D01*
X91424Y171779D01*
X91263Y171789D01*
X84292Y171789D01*
X47229Y208852D01*
X47229Y320348D01*
X86964Y360082D01*
X86982Y360105D01*
X87004Y360124D01*
X87079Y360230D01*
X87158Y360333D01*
X87170Y360360D01*
X87187Y360384D01*
X87233Y360506D01*
X87285Y360625D01*
X87289Y360654D01*
X87300Y360682D01*
X87314Y360811D01*
X87335Y360939D01*
X87332Y360969D01*
X87335Y360998D01*
X87317Y361126D01*
X87305Y361256D01*
X87295Y361284D01*
X87291Y361313D01*
X87239Y361465D01*
X86660Y362862D01*
X86660Y366338D01*
X87991Y369551D01*
X90449Y372009D01*
X93662Y373340D01*
X97138Y373340D01*
X100351Y372009D01*
X102809Y369551D01*
X104140Y366338D01*
X104140Y362862D01*
X102809Y359649D01*
X100351Y357191D01*
X97138Y355860D01*
X93662Y355860D01*
X92265Y356439D01*
X92237Y356446D01*
X92210Y356460D01*
X92084Y356488D01*
X91958Y356523D01*
X91929Y356523D01*
X91900Y356530D01*
X91770Y356526D01*
X91640Y356528D01*
X91612Y356521D01*
X91582Y356520D01*
X91458Y356484D01*
X91331Y356454D01*
X91305Y356440D01*
X91277Y356431D01*
X91165Y356366D01*
X91050Y356305D01*
X91028Y356285D01*
X91003Y356270D01*
X90882Y356164D01*
X53142Y318424D01*
X53082Y318346D01*
X53014Y318274D01*
X52985Y318221D01*
X52948Y318173D01*
X52908Y318082D01*
X52860Y317995D01*
X52845Y317937D01*
X52821Y317881D01*
X52806Y317783D01*
X52781Y317687D01*
X52775Y317587D01*
X52771Y317567D01*
X52773Y317555D01*
X52771Y317527D01*
X52771Y211673D01*
X52783Y211575D01*
X52786Y211476D01*
X52803Y211418D01*
X52811Y211358D01*
X52847Y211266D01*
X52875Y211171D01*
X52905Y211119D01*
X52928Y211062D01*
X52986Y210982D01*
X53036Y210897D01*
X53102Y210821D01*
X53114Y210805D01*
X53124Y210797D01*
X53142Y210776D01*
X86216Y177702D01*
X86294Y177642D01*
X86366Y177574D01*
X86419Y177545D01*
X86467Y177508D01*
X86558Y177468D01*
X86645Y177420D01*
X86703Y177405D01*
X86759Y177381D01*
X86857Y177366D01*
X86953Y177341D01*
X87053Y177335D01*
X87073Y177331D01*
X87085Y177333D01*
X87113Y177331D01*
X89445Y177331D01*
X89583Y177348D01*
X89722Y177361D01*
X89741Y177368D01*
X89761Y177371D01*
X89890Y177422D01*
X90021Y177469D01*
X90038Y177480D01*
X90056Y177488D01*
X90169Y177569D01*
X90284Y177647D01*
X90297Y177663D01*
X90314Y177674D01*
X90403Y177782D01*
X90494Y177886D01*
X90504Y177904D01*
X90517Y177919D01*
X90576Y178045D01*
X90639Y178169D01*
X90643Y178189D01*
X90652Y178207D01*
X90678Y178343D01*
X90709Y178479D01*
X90708Y178500D01*
X90712Y178519D01*
X90703Y178658D01*
X90699Y178797D01*
X90693Y178817D01*
X90692Y178837D01*
X90649Y178969D01*
X90611Y179103D01*
X90600Y179120D01*
X90594Y179139D01*
X90520Y179257D01*
X90449Y179377D01*
X90431Y179398D01*
X90424Y179408D01*
X90409Y179422D01*
X90343Y179497D01*
X87991Y181849D01*
X86660Y185062D01*
X86660Y188538D01*
X87991Y191751D01*
X90449Y194209D01*
X93662Y195540D01*
X97138Y195540D01*
X100351Y194209D01*
X102809Y191751D01*
X104140Y188538D01*
X104140Y185062D01*
X102809Y181849D01*
X100457Y179497D01*
X100372Y179388D01*
X100283Y179281D01*
X100275Y179262D01*
X100262Y179246D01*
X100207Y179118D01*
X100148Y178993D01*
X100144Y178973D01*
X100136Y178954D01*
X100114Y178816D01*
X100088Y178680D01*
X100089Y178660D01*
X100086Y178640D01*
X100099Y178501D01*
X100108Y178363D01*
X100114Y178344D01*
X100116Y178324D01*
X100163Y178192D01*
X100206Y178061D01*
X100217Y178043D01*
X100224Y178024D01*
X100302Y177909D01*
X100376Y177792D01*
X100391Y177778D01*
X100402Y177761D01*
X100506Y177669D01*
X100608Y177574D01*
X100625Y177564D01*
X100641Y177551D01*
X100765Y177487D01*
X100886Y177420D01*
X100906Y177415D01*
X100924Y177406D01*
X101060Y177376D01*
X101194Y177341D01*
X101222Y177339D01*
X101234Y177336D01*
X101255Y177337D01*
X101355Y177331D01*
X102756Y177331D01*
X227304Y52782D01*
X227383Y52722D01*
X227455Y52654D01*
X227508Y52625D01*
X227556Y52588D01*
X227647Y52548D01*
X227733Y52500D01*
X227792Y52485D01*
X227847Y52461D01*
X227945Y52446D01*
X228041Y52421D01*
X228141Y52415D01*
X228162Y52411D01*
X228174Y52413D01*
X228202Y52411D01*
X239765Y52411D01*
X239903Y52428D01*
X240042Y52441D01*
X240061Y52448D01*
X240081Y52451D01*
X240210Y52502D01*
X240341Y52549D01*
X240358Y52560D01*
X240376Y52568D01*
X240489Y52649D01*
X240604Y52727D01*
X240617Y52743D01*
X240634Y52754D01*
X240722Y52861D01*
X240814Y52966D01*
X240824Y52984D01*
X240837Y52999D01*
X240896Y53125D01*
X240959Y53249D01*
X240964Y53269D01*
X240972Y53287D01*
X240998Y53423D01*
X241029Y53559D01*
X241028Y53580D01*
X241032Y53599D01*
X241023Y53738D01*
X241019Y53877D01*
X241013Y53897D01*
X241012Y53917D01*
X240969Y54049D01*
X240931Y54183D01*
X240920Y54200D01*
X240914Y54219D01*
X240840Y54337D01*
X240769Y54457D01*
X240751Y54478D01*
X240744Y54488D01*
X240729Y54502D01*
X240663Y54578D01*
X240391Y54849D01*
X239060Y58062D01*
X239060Y61538D01*
X240391Y64751D01*
X242849Y67209D01*
X246062Y68540D01*
X249538Y68540D01*
X250935Y67961D01*
X250963Y67954D01*
X250990Y67940D01*
X251116Y67912D01*
X251242Y67877D01*
X251271Y67877D01*
X251300Y67870D01*
X251430Y67874D01*
X251560Y67872D01*
X251588Y67879D01*
X251618Y67880D01*
X251742Y67916D01*
X251869Y67946D01*
X251895Y67960D01*
X251923Y67969D01*
X252035Y68034D01*
X252150Y68095D01*
X252172Y68115D01*
X252197Y68130D01*
X252318Y68236D01*
X318858Y134776D01*
X318918Y134854D01*
X318986Y134926D01*
X319015Y134979D01*
X319052Y135027D01*
X319092Y135118D01*
X319140Y135205D01*
X319155Y135263D01*
X319179Y135319D01*
X319194Y135417D01*
X319219Y135513D01*
X319225Y135613D01*
X319229Y135633D01*
X319227Y135645D01*
X319229Y135673D01*
X319229Y203048D01*
X334744Y218562D01*
X334762Y218586D01*
X334785Y218605D01*
X334859Y218711D01*
X334939Y218814D01*
X334951Y218841D01*
X334968Y218865D01*
X335014Y218986D01*
X335065Y219105D01*
X335070Y219135D01*
X335080Y219162D01*
X335095Y219291D01*
X335115Y219420D01*
X335112Y219449D01*
X335116Y219478D01*
X335097Y219607D01*
X335085Y219736D01*
X335075Y219764D01*
X335071Y219793D01*
X335019Y219946D01*
X334649Y220838D01*
X334649Y223962D01*
X335844Y226847D01*
X338053Y229056D01*
X340938Y230251D01*
X344062Y230251D01*
X346947Y229056D01*
X349156Y226847D01*
X350351Y223962D01*
X350351Y220838D01*
X349156Y217953D01*
X346947Y215744D01*
X344062Y214549D01*
X340938Y214549D01*
X340046Y214919D01*
X340017Y214927D01*
X339991Y214940D01*
X339864Y214969D01*
X339739Y215003D01*
X339709Y215003D01*
X339681Y215010D01*
X339551Y215006D01*
X339421Y215008D01*
X339392Y215001D01*
X339363Y215000D01*
X339238Y214964D01*
X339112Y214934D01*
X339085Y214920D01*
X339057Y214912D01*
X338945Y214846D01*
X338830Y214785D01*
X338809Y214765D01*
X338783Y214750D01*
X338662Y214644D01*
X325142Y201124D01*
X325082Y201046D01*
X325014Y200974D01*
X324985Y200921D01*
X324948Y200873D01*
X324908Y200782D01*
X324860Y200695D01*
X324845Y200637D01*
X324821Y200581D01*
X324806Y200483D01*
X324781Y200387D01*
X324775Y200287D01*
X324771Y200267D01*
X324773Y200255D01*
X324771Y200227D01*
X324771Y132852D01*
X322776Y130858D01*
X256236Y64318D01*
X256218Y64295D01*
X256196Y64276D01*
X256129Y64180D01*
X256067Y64105D01*
X256060Y64090D01*
X256042Y64067D01*
X256030Y64040D01*
X256013Y64016D01*
X255967Y63894D01*
X255961Y63881D01*
X255931Y63818D01*
X255929Y63808D01*
X255915Y63775D01*
X255911Y63746D01*
X255900Y63718D01*
X255886Y63589D01*
X255877Y63534D01*
X255871Y63505D01*
X255872Y63501D01*
X255865Y63461D01*
X255868Y63431D01*
X255865Y63402D01*
X255883Y63274D01*
X255895Y63144D01*
X255905Y63116D01*
X255909Y63087D01*
X255961Y62935D01*
X256540Y61538D01*
X256540Y58062D01*
X255209Y54849D01*
X254937Y54578D01*
X254852Y54468D01*
X254763Y54361D01*
X254755Y54342D01*
X254742Y54326D01*
X254687Y54199D01*
X254628Y54073D01*
X254624Y54053D01*
X254616Y54034D01*
X254594Y53897D01*
X254568Y53760D01*
X254569Y53740D01*
X254566Y53720D01*
X254579Y53581D01*
X254588Y53443D01*
X254594Y53424D01*
X254596Y53404D01*
X254643Y53272D01*
X254686Y53141D01*
X254697Y53124D01*
X254704Y53104D01*
X254782Y52989D01*
X254856Y52872D01*
X254871Y52858D01*
X254882Y52841D01*
X254986Y52749D01*
X255088Y52654D01*
X255105Y52644D01*
X255121Y52631D01*
X255245Y52567D01*
X255366Y52500D01*
X255386Y52495D01*
X255404Y52486D01*
X255540Y52456D01*
X255674Y52421D01*
X255702Y52419D01*
X255714Y52416D01*
X255735Y52417D01*
X255835Y52411D01*
X338414Y52411D01*
X338483Y52419D01*
X338553Y52418D01*
X338640Y52439D01*
X338729Y52451D01*
X338794Y52476D01*
X338862Y52493D01*
X338942Y52535D01*
X339025Y52568D01*
X339081Y52609D01*
X339143Y52641D01*
X339210Y52702D01*
X339282Y52754D01*
X339327Y52808D01*
X339379Y52855D01*
X339428Y52930D01*
X339485Y52999D01*
X339515Y53063D01*
X339553Y53121D01*
X339583Y53206D01*
X339621Y53287D01*
X339634Y53356D01*
X339657Y53422D01*
X339664Y53511D01*
X339681Y53599D01*
X339676Y53669D01*
X339682Y53739D01*
X339666Y53827D01*
X339661Y53917D01*
X339639Y53983D01*
X339627Y54052D01*
X339590Y54134D01*
X339563Y54219D01*
X339525Y54278D01*
X339497Y54342D01*
X339441Y54412D01*
X339393Y54488D01*
X339342Y54536D01*
X339298Y54590D01*
X339226Y54644D01*
X339161Y54706D01*
X339100Y54740D01*
X339044Y54782D01*
X338900Y54853D01*
X338544Y55000D01*
X337177Y55914D01*
X336014Y57077D01*
X335100Y58444D01*
X334470Y59964D01*
X334383Y60401D01*
X341770Y60401D01*
X341888Y60416D01*
X342007Y60423D01*
X342045Y60435D01*
X342085Y60441D01*
X342196Y60484D01*
X342309Y60521D01*
X342343Y60543D01*
X342381Y60558D01*
X342477Y60627D01*
X342494Y60638D01*
X342518Y60624D01*
X342550Y60599D01*
X342657Y60548D01*
X342762Y60490D01*
X342801Y60480D01*
X342837Y60463D01*
X342954Y60441D01*
X343070Y60411D01*
X343130Y60407D01*
X343150Y60403D01*
X343170Y60405D01*
X343230Y60401D01*
X350617Y60401D01*
X350530Y59964D01*
X349900Y58444D01*
X348986Y57077D01*
X347823Y55914D01*
X346456Y55000D01*
X346100Y54853D01*
X346040Y54818D01*
X345975Y54792D01*
X345902Y54740D01*
X345824Y54695D01*
X345774Y54647D01*
X345718Y54606D01*
X345660Y54536D01*
X345596Y54474D01*
X345559Y54414D01*
X345515Y54361D01*
X345477Y54279D01*
X345430Y54203D01*
X345409Y54136D01*
X345379Y54073D01*
X345362Y53985D01*
X345336Y53899D01*
X345333Y53829D01*
X345319Y53760D01*
X345325Y53671D01*
X345321Y53581D01*
X345335Y53513D01*
X345339Y53443D01*
X345367Y53358D01*
X345385Y53270D01*
X345416Y53207D01*
X345437Y53141D01*
X345485Y53065D01*
X345525Y52984D01*
X345570Y52931D01*
X345607Y52872D01*
X345673Y52810D01*
X345731Y52742D01*
X345788Y52702D01*
X345839Y52654D01*
X345918Y52611D01*
X345991Y52559D01*
X346056Y52534D01*
X346118Y52500D01*
X346205Y52478D01*
X346289Y52446D01*
X346358Y52438D01*
X346425Y52421D01*
X346586Y52411D01*
X358967Y52411D01*
X359065Y52423D01*
X359164Y52426D01*
X359222Y52443D01*
X359282Y52451D01*
X359374Y52487D01*
X359469Y52515D01*
X359521Y52545D01*
X359578Y52568D01*
X359658Y52626D01*
X359743Y52676D01*
X359819Y52742D01*
X359835Y52754D01*
X359843Y52764D01*
X359864Y52782D01*
X469858Y162776D01*
X469918Y162854D01*
X469986Y162926D01*
X470015Y162979D01*
X470052Y163027D01*
X470092Y163118D01*
X470140Y163205D01*
X470155Y163263D01*
X470179Y163319D01*
X470194Y163417D01*
X470219Y163513D01*
X470225Y163606D01*
X470227Y163615D01*
X470226Y163619D01*
X470229Y163633D01*
X470227Y163645D01*
X470229Y163673D01*
X470229Y259880D01*
X470217Y259978D01*
X470214Y260077D01*
X470197Y260135D01*
X470189Y260196D01*
X470153Y260288D01*
X470125Y260383D01*
X470095Y260435D01*
X470072Y260491D01*
X470014Y260571D01*
X469964Y260657D01*
X469898Y260732D01*
X469886Y260749D01*
X469876Y260756D01*
X469858Y260777D01*
X469499Y261136D01*
X469499Y264864D01*
X472136Y267501D01*
X475864Y267501D01*
X478501Y264864D01*
X478501Y261136D01*
X476142Y258777D01*
X476082Y258699D01*
X476014Y258627D01*
X475985Y258574D01*
X475948Y258526D01*
X475908Y258435D01*
X475860Y258349D01*
X475845Y258290D01*
X475821Y258234D01*
X475806Y258136D01*
X475781Y258041D01*
X475775Y257941D01*
X475771Y257920D01*
X475773Y257908D01*
X475771Y257880D01*
X475771Y160852D01*
X361788Y46869D01*
X225381Y46869D01*
G37*
%LPD*%
%LPC*%
G36*
X246062Y203460D02*
X246062Y203460D01*
X242849Y204791D01*
X240391Y207249D01*
X239060Y210462D01*
X239060Y213938D01*
X240391Y217151D01*
X242849Y219609D01*
X246062Y220940D01*
X249538Y220940D01*
X250935Y220361D01*
X250963Y220354D01*
X250990Y220340D01*
X251116Y220312D01*
X251242Y220277D01*
X251271Y220277D01*
X251300Y220270D01*
X251430Y220274D01*
X251560Y220272D01*
X251588Y220279D01*
X251618Y220280D01*
X251742Y220316D01*
X251869Y220346D01*
X251895Y220360D01*
X251923Y220369D01*
X252035Y220434D01*
X252150Y220495D01*
X252172Y220515D01*
X252197Y220530D01*
X252318Y220636D01*
X324858Y293176D01*
X324918Y293254D01*
X324986Y293326D01*
X325015Y293379D01*
X325052Y293427D01*
X325092Y293518D01*
X325140Y293605D01*
X325155Y293663D01*
X325179Y293719D01*
X325194Y293817D01*
X325219Y293913D01*
X325225Y294013D01*
X325229Y294033D01*
X325227Y294045D01*
X325229Y294073D01*
X325229Y612880D01*
X325217Y612978D01*
X325214Y613077D01*
X325197Y613135D01*
X325189Y613196D01*
X325153Y613288D01*
X325125Y613383D01*
X325095Y613435D01*
X325072Y613491D01*
X325014Y613571D01*
X324964Y613657D01*
X324898Y613732D01*
X324886Y613749D01*
X324876Y613756D01*
X324858Y613777D01*
X322499Y616136D01*
X322499Y619864D01*
X325136Y622501D01*
X328864Y622501D01*
X331501Y619864D01*
X331501Y616136D01*
X331142Y615777D01*
X331082Y615699D01*
X331014Y615627D01*
X330985Y615574D01*
X330948Y615526D01*
X330908Y615435D01*
X330860Y615349D01*
X330845Y615290D01*
X330821Y615234D01*
X330806Y615136D01*
X330781Y615041D01*
X330775Y614941D01*
X330771Y614920D01*
X330773Y614908D01*
X330771Y614880D01*
X330771Y344200D01*
X330788Y344062D01*
X330801Y343924D01*
X330808Y343905D01*
X330811Y343884D01*
X330862Y343755D01*
X330909Y343624D01*
X330920Y343608D01*
X330928Y343589D01*
X331009Y343476D01*
X331087Y343361D01*
X331103Y343348D01*
X331114Y343331D01*
X331222Y343243D01*
X331326Y343151D01*
X331344Y343142D01*
X331359Y343129D01*
X331485Y343069D01*
X331609Y343006D01*
X331629Y343002D01*
X331647Y342993D01*
X331783Y342967D01*
X331919Y342936D01*
X331940Y342937D01*
X331959Y342933D01*
X332098Y342942D01*
X332237Y342946D01*
X332257Y342952D01*
X332277Y342953D01*
X332409Y342996D01*
X332543Y343035D01*
X332560Y343045D01*
X332579Y343051D01*
X332697Y343125D01*
X332817Y343196D01*
X332838Y343215D01*
X332848Y343221D01*
X332862Y343236D01*
X332938Y343302D01*
X333136Y343501D01*
X335057Y343501D01*
X335155Y343513D01*
X335254Y343516D01*
X335312Y343533D01*
X335372Y343541D01*
X335464Y343577D01*
X335559Y343605D01*
X335611Y343635D01*
X335668Y343658D01*
X335748Y343716D01*
X335833Y343766D01*
X335909Y343832D01*
X335925Y343844D01*
X335933Y343854D01*
X335954Y343872D01*
X345858Y353776D01*
X345918Y353854D01*
X345986Y353926D01*
X346015Y353979D01*
X346052Y354027D01*
X346092Y354118D01*
X346140Y354205D01*
X346155Y354263D01*
X346179Y354319D01*
X346194Y354417D01*
X346219Y354513D01*
X346225Y354613D01*
X346229Y354633D01*
X346227Y354645D01*
X346229Y354673D01*
X346229Y393880D01*
X346217Y393978D01*
X346214Y394077D01*
X346197Y394135D01*
X346189Y394196D01*
X346153Y394288D01*
X346125Y394383D01*
X346095Y394435D01*
X346072Y394491D01*
X346014Y394571D01*
X345964Y394657D01*
X345898Y394732D01*
X345886Y394749D01*
X345876Y394756D01*
X345858Y394777D01*
X345499Y395136D01*
X345499Y398864D01*
X348136Y401501D01*
X351864Y401501D01*
X354501Y398864D01*
X354501Y395136D01*
X352142Y392777D01*
X352082Y392699D01*
X352014Y392627D01*
X351985Y392574D01*
X351948Y392526D01*
X351908Y392435D01*
X351860Y392349D01*
X351845Y392290D01*
X351821Y392234D01*
X351806Y392136D01*
X351781Y392041D01*
X351775Y391941D01*
X351771Y391920D01*
X351773Y391908D01*
X351771Y391880D01*
X351771Y352753D01*
X351788Y352616D01*
X351801Y352477D01*
X351808Y352458D01*
X351811Y352438D01*
X351862Y352309D01*
X351909Y352178D01*
X351920Y352161D01*
X351928Y352142D01*
X352009Y352030D01*
X352087Y351915D01*
X352103Y351901D01*
X352114Y351885D01*
X352222Y351796D01*
X352326Y351704D01*
X352344Y351695D01*
X352359Y351682D01*
X352485Y351623D01*
X352609Y351560D01*
X352629Y351555D01*
X352647Y351546D01*
X352783Y351520D01*
X352919Y351490D01*
X352940Y351490D01*
X352959Y351487D01*
X353098Y351495D01*
X353237Y351500D01*
X353257Y351505D01*
X353277Y351506D01*
X353409Y351549D01*
X353543Y351588D01*
X353560Y351598D01*
X353579Y351604D01*
X353697Y351679D01*
X353817Y351749D01*
X353838Y351768D01*
X353848Y351775D01*
X353862Y351790D01*
X353937Y351856D01*
X356858Y354776D01*
X356918Y354854D01*
X356986Y354926D01*
X357015Y354979D01*
X357052Y355027D01*
X357092Y355118D01*
X357140Y355205D01*
X357155Y355263D01*
X357179Y355319D01*
X357194Y355417D01*
X357219Y355513D01*
X357225Y355613D01*
X357229Y355633D01*
X357227Y355645D01*
X357229Y355673D01*
X357229Y371954D01*
X365128Y379852D01*
X365188Y379930D01*
X365256Y380002D01*
X365280Y380045D01*
X365289Y380057D01*
X365294Y380066D01*
X365322Y380103D01*
X365362Y380194D01*
X365410Y380281D01*
X365425Y380339D01*
X365449Y380395D01*
X365464Y380493D01*
X365489Y380589D01*
X365495Y380689D01*
X365499Y380709D01*
X365497Y380721D01*
X365499Y380749D01*
X365499Y382670D01*
X368027Y385198D01*
X368070Y385253D01*
X368120Y385302D01*
X368124Y385308D01*
X368132Y385309D01*
X368168Y385307D01*
X371864Y385307D01*
X374501Y382670D01*
X374501Y378942D01*
X371864Y376305D01*
X369943Y376305D01*
X369845Y376293D01*
X369746Y376290D01*
X369688Y376273D01*
X369628Y376265D01*
X369536Y376229D01*
X369441Y376201D01*
X369389Y376171D01*
X369332Y376148D01*
X369252Y376090D01*
X369167Y376040D01*
X369091Y375974D01*
X369075Y375962D01*
X369067Y375952D01*
X369046Y375934D01*
X363142Y370030D01*
X363082Y369952D01*
X363014Y369880D01*
X362985Y369827D01*
X362948Y369779D01*
X362908Y369688D01*
X362860Y369601D01*
X362845Y369543D01*
X362821Y369487D01*
X362806Y369389D01*
X362781Y369293D01*
X362775Y369193D01*
X362771Y369173D01*
X362773Y369161D01*
X362771Y369133D01*
X362771Y352852D01*
X341142Y331224D01*
X341082Y331146D01*
X341014Y331074D01*
X340985Y331021D01*
X340948Y330973D01*
X340908Y330882D01*
X340860Y330795D01*
X340845Y330737D01*
X340821Y330681D01*
X340806Y330583D01*
X340781Y330487D01*
X340775Y330387D01*
X340771Y330367D01*
X340773Y330355D01*
X340771Y330327D01*
X340771Y324120D01*
X340783Y324022D01*
X340786Y323923D01*
X340803Y323865D01*
X340811Y323804D01*
X340847Y323712D01*
X340875Y323617D01*
X340905Y323565D01*
X340928Y323509D01*
X340986Y323429D01*
X341036Y323343D01*
X341102Y323268D01*
X341114Y323251D01*
X341124Y323244D01*
X341142Y323223D01*
X342501Y321864D01*
X342501Y318136D01*
X339864Y315499D01*
X336136Y315499D01*
X333499Y318136D01*
X333499Y321864D01*
X334858Y323223D01*
X334918Y323301D01*
X334986Y323373D01*
X335015Y323426D01*
X335052Y323474D01*
X335092Y323565D01*
X335140Y323651D01*
X335155Y323710D01*
X335179Y323766D01*
X335194Y323864D01*
X335219Y323959D01*
X335225Y324059D01*
X335229Y324080D01*
X335227Y324092D01*
X335229Y324120D01*
X335229Y333230D01*
X335214Y333348D01*
X335207Y333467D01*
X335194Y333505D01*
X335189Y333546D01*
X335146Y333656D01*
X335109Y333769D01*
X335087Y333804D01*
X335072Y333841D01*
X335003Y333937D01*
X334939Y334038D01*
X334909Y334066D01*
X334886Y334099D01*
X334794Y334175D01*
X334707Y334256D01*
X334672Y334276D01*
X334641Y334301D01*
X334533Y334352D01*
X334429Y334410D01*
X334389Y334420D01*
X334353Y334437D01*
X334236Y334459D01*
X334121Y334489D01*
X334061Y334493D01*
X334041Y334497D01*
X334020Y334495D01*
X333960Y334499D01*
X333136Y334499D01*
X332938Y334698D01*
X332850Y334765D01*
X332812Y334801D01*
X332792Y334812D01*
X332721Y334871D01*
X332702Y334880D01*
X332686Y334892D01*
X332558Y334948D01*
X332433Y335007D01*
X332413Y335011D01*
X332394Y335019D01*
X332256Y335041D01*
X332120Y335067D01*
X332100Y335065D01*
X332080Y335069D01*
X331941Y335056D01*
X331803Y335047D01*
X331784Y335041D01*
X331764Y335039D01*
X331633Y334992D01*
X331501Y334949D01*
X331483Y334938D01*
X331464Y334931D01*
X331350Y334853D01*
X331232Y334779D01*
X331218Y334764D01*
X331201Y334753D01*
X331109Y334649D01*
X331014Y334547D01*
X331004Y334529D01*
X330991Y334514D01*
X330928Y334390D01*
X330860Y334269D01*
X330855Y334249D01*
X330846Y334231D01*
X330816Y334095D01*
X330781Y333961D01*
X330779Y333933D01*
X330776Y333921D01*
X330777Y333900D01*
X330775Y333863D01*
X330773Y333855D01*
X330774Y333848D01*
X330771Y333800D01*
X330771Y291252D01*
X328776Y289258D01*
X256236Y216718D01*
X256218Y216695D01*
X256196Y216676D01*
X256121Y216569D01*
X256042Y216467D01*
X256030Y216440D01*
X256013Y216416D01*
X255967Y216294D01*
X255915Y216175D01*
X255911Y216146D01*
X255900Y216118D01*
X255886Y215989D01*
X255865Y215861D01*
X255868Y215831D01*
X255865Y215802D01*
X255883Y215674D01*
X255895Y215544D01*
X255905Y215516D01*
X255909Y215487D01*
X255961Y215335D01*
X256540Y213938D01*
X256540Y210462D01*
X255209Y207249D01*
X252751Y204791D01*
X249538Y203460D01*
X246062Y203460D01*
G37*
%LPD*%
%LPC*%
G36*
X246062Y101860D02*
X246062Y101860D01*
X242849Y103191D01*
X240391Y105649D01*
X239060Y108862D01*
X239060Y112338D01*
X239639Y113735D01*
X239646Y113763D01*
X239660Y113790D01*
X239688Y113916D01*
X239723Y114042D01*
X239723Y114071D01*
X239730Y114100D01*
X239726Y114230D01*
X239728Y114360D01*
X239721Y114388D01*
X239720Y114418D01*
X239684Y114542D01*
X239654Y114669D01*
X239640Y114695D01*
X239631Y114723D01*
X239566Y114835D01*
X239505Y114950D01*
X239485Y114972D01*
X239470Y114997D01*
X239364Y115118D01*
X154229Y200252D01*
X154229Y564880D01*
X154217Y564978D01*
X154214Y565077D01*
X154197Y565135D01*
X154189Y565196D01*
X154153Y565288D01*
X154125Y565383D01*
X154095Y565435D01*
X154072Y565491D01*
X154014Y565571D01*
X153964Y565657D01*
X153898Y565732D01*
X153886Y565749D01*
X153876Y565756D01*
X153858Y565777D01*
X152499Y567136D01*
X152499Y570864D01*
X155136Y573501D01*
X158864Y573501D01*
X161501Y570864D01*
X161501Y567136D01*
X160142Y565777D01*
X160082Y565699D01*
X160014Y565627D01*
X159985Y565574D01*
X159948Y565526D01*
X159908Y565435D01*
X159860Y565349D01*
X159845Y565290D01*
X159821Y565234D01*
X159806Y565136D01*
X159781Y565041D01*
X159775Y564941D01*
X159771Y564920D01*
X159773Y564908D01*
X159771Y564880D01*
X159771Y203073D01*
X159783Y202975D01*
X159786Y202876D01*
X159803Y202818D01*
X159811Y202758D01*
X159847Y202666D01*
X159875Y202571D01*
X159905Y202519D01*
X159928Y202462D01*
X159986Y202382D01*
X160036Y202297D01*
X160102Y202221D01*
X160114Y202205D01*
X160124Y202197D01*
X160142Y202176D01*
X243282Y119036D01*
X243305Y119018D01*
X243324Y118996D01*
X243430Y118921D01*
X243533Y118842D01*
X243560Y118830D01*
X243584Y118813D01*
X243706Y118767D01*
X243825Y118715D01*
X243854Y118711D01*
X243882Y118700D01*
X244011Y118686D01*
X244139Y118665D01*
X244169Y118668D01*
X244198Y118665D01*
X244326Y118683D01*
X244456Y118695D01*
X244484Y118705D01*
X244513Y118709D01*
X244665Y118761D01*
X246062Y119340D01*
X249538Y119340D01*
X252751Y118009D01*
X255209Y115551D01*
X256540Y112338D01*
X256540Y108862D01*
X255209Y105649D01*
X252751Y103191D01*
X249538Y101860D01*
X246062Y101860D01*
G37*
%LPD*%
%LPC*%
G36*
X246062Y152660D02*
X246062Y152660D01*
X242849Y153991D01*
X240391Y156449D01*
X239060Y159662D01*
X239060Y163138D01*
X239639Y164535D01*
X239646Y164563D01*
X239660Y164590D01*
X239688Y164716D01*
X239723Y164842D01*
X239723Y164871D01*
X239730Y164900D01*
X239726Y165030D01*
X239728Y165160D01*
X239721Y165188D01*
X239720Y165218D01*
X239684Y165342D01*
X239654Y165469D01*
X239640Y165495D01*
X239631Y165523D01*
X239566Y165635D01*
X239505Y165750D01*
X239485Y165772D01*
X239470Y165797D01*
X239364Y165918D01*
X173229Y232052D01*
X173229Y618168D01*
X173256Y618196D01*
X173285Y618249D01*
X173322Y618297D01*
X173362Y618388D01*
X173410Y618475D01*
X173425Y618533D01*
X173449Y618589D01*
X173464Y618687D01*
X173489Y618783D01*
X173494Y618859D01*
X176136Y621501D01*
X179864Y621501D01*
X182501Y618864D01*
X182501Y615136D01*
X179845Y612480D01*
X179803Y612477D01*
X179765Y612464D01*
X179724Y612459D01*
X179614Y612416D01*
X179501Y612379D01*
X179466Y612357D01*
X179429Y612342D01*
X179333Y612273D01*
X179232Y612209D01*
X179204Y612179D01*
X179171Y612156D01*
X179095Y612064D01*
X179014Y611977D01*
X178994Y611942D01*
X178969Y611911D01*
X178918Y611803D01*
X178860Y611699D01*
X178850Y611659D01*
X178833Y611623D01*
X178811Y611506D01*
X178781Y611391D01*
X178777Y611331D01*
X178773Y611311D01*
X178775Y611290D01*
X178771Y611230D01*
X178771Y234873D01*
X178783Y234775D01*
X178786Y234676D01*
X178803Y234618D01*
X178811Y234558D01*
X178847Y234466D01*
X178875Y234371D01*
X178905Y234319D01*
X178928Y234262D01*
X178986Y234182D01*
X179036Y234097D01*
X179102Y234021D01*
X179114Y234005D01*
X179124Y233997D01*
X179142Y233976D01*
X243282Y169836D01*
X243305Y169818D01*
X243324Y169796D01*
X243430Y169721D01*
X243533Y169642D01*
X243560Y169630D01*
X243584Y169613D01*
X243706Y169567D01*
X243825Y169515D01*
X243854Y169511D01*
X243882Y169500D01*
X244011Y169486D01*
X244139Y169465D01*
X244169Y169468D01*
X244198Y169465D01*
X244326Y169483D01*
X244456Y169495D01*
X244484Y169505D01*
X244513Y169509D01*
X244665Y169561D01*
X246062Y170140D01*
X249538Y170140D01*
X252751Y168809D01*
X255209Y166351D01*
X256540Y163138D01*
X256540Y159662D01*
X255209Y156449D01*
X252751Y153991D01*
X249538Y152660D01*
X246062Y152660D01*
G37*
%LPD*%
%LPC*%
G36*
X181136Y131499D02*
X181136Y131499D01*
X178499Y134136D01*
X178499Y136057D01*
X178487Y136155D01*
X178484Y136254D01*
X178467Y136312D01*
X178459Y136372D01*
X178423Y136464D01*
X178395Y136559D01*
X178365Y136611D01*
X178342Y136668D01*
X178284Y136748D01*
X178234Y136833D01*
X178168Y136909D01*
X178156Y136925D01*
X178146Y136933D01*
X178128Y136954D01*
X123819Y191262D01*
X123819Y613290D01*
X123807Y613388D01*
X123804Y613487D01*
X123787Y613545D01*
X123779Y613606D01*
X123743Y613698D01*
X123715Y613793D01*
X123685Y613845D01*
X123662Y613901D01*
X123604Y613981D01*
X123554Y614067D01*
X123488Y614142D01*
X123476Y614159D01*
X123466Y614166D01*
X123448Y614187D01*
X122499Y615136D01*
X122499Y618864D01*
X125136Y621501D01*
X128864Y621501D01*
X131501Y618864D01*
X131501Y615136D01*
X129732Y613367D01*
X129672Y613289D01*
X129604Y613217D01*
X129575Y613164D01*
X129538Y613116D01*
X129498Y613025D01*
X129450Y612939D01*
X129435Y612880D01*
X129411Y612824D01*
X129396Y612726D01*
X129371Y612631D01*
X129365Y612531D01*
X129361Y612510D01*
X129363Y612498D01*
X129361Y612470D01*
X129361Y194083D01*
X129373Y193985D01*
X129376Y193886D01*
X129393Y193828D01*
X129401Y193768D01*
X129437Y193676D01*
X129465Y193581D01*
X129495Y193529D01*
X129518Y193472D01*
X129576Y193392D01*
X129626Y193307D01*
X129692Y193231D01*
X129704Y193215D01*
X129714Y193207D01*
X129732Y193186D01*
X182046Y140872D01*
X182124Y140812D01*
X182196Y140744D01*
X182249Y140715D01*
X182297Y140678D01*
X182388Y140638D01*
X182475Y140590D01*
X182533Y140575D01*
X182589Y140551D01*
X182687Y140536D01*
X182783Y140511D01*
X182883Y140505D01*
X182903Y140501D01*
X182915Y140503D01*
X182943Y140501D01*
X184864Y140501D01*
X187501Y137864D01*
X187501Y134136D01*
X184864Y131499D01*
X181136Y131499D01*
G37*
%LPD*%
%LPC*%
G36*
X246062Y178060D02*
X246062Y178060D01*
X242849Y179391D01*
X240391Y181849D01*
X239060Y185062D01*
X239060Y188538D01*
X239639Y189935D01*
X239646Y189963D01*
X239660Y189990D01*
X239688Y190116D01*
X239723Y190242D01*
X239723Y190271D01*
X239730Y190300D01*
X239726Y190429D01*
X239728Y190560D01*
X239721Y190588D01*
X239720Y190618D01*
X239684Y190742D01*
X239654Y190869D01*
X239640Y190895D01*
X239631Y190923D01*
X239566Y191035D01*
X239505Y191150D01*
X239485Y191172D01*
X239470Y191197D01*
X239364Y191318D01*
X195229Y235452D01*
X195229Y611880D01*
X195217Y611978D01*
X195214Y612077D01*
X195197Y612135D01*
X195189Y612196D01*
X195153Y612288D01*
X195125Y612383D01*
X195095Y612435D01*
X195072Y612491D01*
X195014Y612571D01*
X194964Y612657D01*
X194898Y612732D01*
X194886Y612749D01*
X194876Y612756D01*
X194858Y612777D01*
X192499Y615136D01*
X192499Y618864D01*
X195136Y621501D01*
X198864Y621501D01*
X201501Y618864D01*
X201501Y615136D01*
X201142Y614777D01*
X201082Y614699D01*
X201014Y614627D01*
X200985Y614574D01*
X200948Y614526D01*
X200908Y614435D01*
X200860Y614349D01*
X200845Y614290D01*
X200821Y614234D01*
X200806Y614136D01*
X200781Y614041D01*
X200775Y613941D01*
X200771Y613920D01*
X200773Y613908D01*
X200771Y613880D01*
X200771Y238273D01*
X200783Y238175D01*
X200786Y238076D01*
X200803Y238018D01*
X200811Y237958D01*
X200847Y237866D01*
X200875Y237771D01*
X200905Y237719D01*
X200928Y237662D01*
X200986Y237582D01*
X201036Y237497D01*
X201102Y237421D01*
X201114Y237405D01*
X201124Y237397D01*
X201142Y237376D01*
X243282Y195236D01*
X243305Y195218D01*
X243324Y195196D01*
X243430Y195121D01*
X243533Y195042D01*
X243560Y195030D01*
X243584Y195013D01*
X243706Y194967D01*
X243825Y194915D01*
X243854Y194911D01*
X243882Y194900D01*
X244011Y194886D01*
X244139Y194865D01*
X244169Y194868D01*
X244198Y194865D01*
X244326Y194883D01*
X244456Y194895D01*
X244484Y194905D01*
X244513Y194909D01*
X244665Y194961D01*
X246062Y195540D01*
X249538Y195540D01*
X252751Y194209D01*
X255209Y191751D01*
X256540Y188538D01*
X256540Y185062D01*
X255209Y181849D01*
X252751Y179391D01*
X249538Y178060D01*
X246062Y178060D01*
G37*
%LPD*%
%LPC*%
G36*
X246062Y228860D02*
X246062Y228860D01*
X242849Y230191D01*
X240391Y232649D01*
X239060Y235862D01*
X239060Y239338D01*
X240391Y242551D01*
X242849Y245009D01*
X246062Y246340D01*
X249538Y246340D01*
X250935Y245761D01*
X250963Y245754D01*
X250990Y245740D01*
X251116Y245712D01*
X251242Y245677D01*
X251271Y245677D01*
X251300Y245670D01*
X251430Y245674D01*
X251560Y245672D01*
X251588Y245679D01*
X251618Y245680D01*
X251742Y245716D01*
X251869Y245746D01*
X251895Y245760D01*
X251923Y245769D01*
X252035Y245834D01*
X252150Y245895D01*
X252172Y245915D01*
X252197Y245930D01*
X252318Y246036D01*
X304858Y298576D01*
X304918Y298654D01*
X304986Y298726D01*
X305015Y298779D01*
X305052Y298827D01*
X305092Y298918D01*
X305140Y299005D01*
X305155Y299063D01*
X305179Y299119D01*
X305194Y299217D01*
X305219Y299313D01*
X305225Y299413D01*
X305229Y299433D01*
X305227Y299445D01*
X305229Y299473D01*
X305229Y613880D01*
X305217Y613978D01*
X305214Y614077D01*
X305197Y614135D01*
X305189Y614196D01*
X305153Y614288D01*
X305125Y614383D01*
X305095Y614435D01*
X305072Y614491D01*
X305014Y614571D01*
X304964Y614657D01*
X304898Y614732D01*
X304886Y614749D01*
X304876Y614756D01*
X304858Y614777D01*
X303499Y616136D01*
X303499Y619864D01*
X306136Y622501D01*
X309864Y622501D01*
X312501Y619864D01*
X312501Y616136D01*
X311142Y614777D01*
X311082Y614699D01*
X311014Y614627D01*
X310985Y614574D01*
X310948Y614526D01*
X310908Y614435D01*
X310860Y614349D01*
X310845Y614290D01*
X310821Y614234D01*
X310806Y614136D01*
X310781Y614041D01*
X310775Y613941D01*
X310771Y613920D01*
X310773Y613908D01*
X310771Y613880D01*
X310771Y296652D01*
X308776Y294658D01*
X256236Y242118D01*
X256218Y242095D01*
X256196Y242076D01*
X256121Y241969D01*
X256042Y241867D01*
X256030Y241840D01*
X256013Y241816D01*
X255967Y241694D01*
X255915Y241575D01*
X255911Y241546D01*
X255900Y241518D01*
X255886Y241389D01*
X255865Y241261D01*
X255868Y241231D01*
X255865Y241202D01*
X255883Y241074D01*
X255895Y240944D01*
X255905Y240916D01*
X255909Y240887D01*
X255961Y240735D01*
X256540Y239338D01*
X256540Y235862D01*
X255209Y232649D01*
X252751Y230191D01*
X249538Y228860D01*
X246062Y228860D01*
G37*
%LPD*%
%LPC*%
G36*
X667832Y206101D02*
X667832Y206101D01*
X663826Y207760D01*
X660760Y210826D01*
X659101Y214832D01*
X659101Y219168D01*
X660760Y223174D01*
X663826Y226240D01*
X666446Y227324D01*
X666471Y227339D01*
X666499Y227348D01*
X666609Y227418D01*
X666722Y227482D01*
X666743Y227503D01*
X666768Y227518D01*
X666857Y227613D01*
X666950Y227703D01*
X666966Y227729D01*
X666986Y227750D01*
X667049Y227864D01*
X667117Y227974D01*
X667125Y228003D01*
X667140Y228028D01*
X667172Y228154D01*
X667210Y228278D01*
X667212Y228308D01*
X667219Y228336D01*
X667229Y228497D01*
X667229Y246148D01*
X683858Y262776D01*
X683918Y262854D01*
X683986Y262926D01*
X684015Y262979D01*
X684052Y263027D01*
X684092Y263118D01*
X684140Y263205D01*
X684155Y263263D01*
X684179Y263319D01*
X684194Y263417D01*
X684219Y263513D01*
X684225Y263613D01*
X684229Y263633D01*
X684227Y263645D01*
X684229Y263673D01*
X684229Y426327D01*
X684217Y426425D01*
X684214Y426524D01*
X684197Y426582D01*
X684189Y426642D01*
X684153Y426734D01*
X684125Y426829D01*
X684095Y426881D01*
X684072Y426938D01*
X684014Y427018D01*
X683964Y427103D01*
X683898Y427179D01*
X683886Y427195D01*
X683876Y427203D01*
X683858Y427224D01*
X664224Y446858D01*
X664146Y446918D01*
X664074Y446986D01*
X664021Y447015D01*
X663973Y447052D01*
X663882Y447092D01*
X663795Y447140D01*
X663737Y447155D01*
X663681Y447179D01*
X663583Y447194D01*
X663487Y447219D01*
X663387Y447225D01*
X663367Y447229D01*
X663355Y447227D01*
X663327Y447229D01*
X563120Y447229D01*
X563022Y447217D01*
X562923Y447214D01*
X562865Y447197D01*
X562804Y447189D01*
X562712Y447153D01*
X562617Y447125D01*
X562565Y447095D01*
X562509Y447072D01*
X562429Y447014D01*
X562343Y446964D01*
X562268Y446898D01*
X562251Y446886D01*
X562244Y446876D01*
X562223Y446858D01*
X560864Y445499D01*
X557136Y445499D01*
X554499Y448136D01*
X554499Y451864D01*
X557136Y454501D01*
X560864Y454501D01*
X562223Y453142D01*
X562301Y453082D01*
X562373Y453014D01*
X562426Y452985D01*
X562474Y452948D01*
X562565Y452908D01*
X562651Y452860D01*
X562710Y452845D01*
X562766Y452821D01*
X562864Y452806D01*
X562959Y452781D01*
X563059Y452775D01*
X563080Y452771D01*
X563092Y452773D01*
X563120Y452771D01*
X666148Y452771D01*
X689771Y429148D01*
X689771Y260852D01*
X673142Y244224D01*
X673082Y244146D01*
X673014Y244074D01*
X672985Y244021D01*
X672948Y243973D01*
X672908Y243882D01*
X672860Y243795D01*
X672845Y243737D01*
X672821Y243681D01*
X672806Y243583D01*
X672781Y243487D01*
X672775Y243387D01*
X672771Y243367D01*
X672773Y243355D01*
X672771Y243327D01*
X672771Y228497D01*
X672774Y228468D01*
X672772Y228438D01*
X672794Y228310D01*
X672811Y228182D01*
X672821Y228154D01*
X672826Y228125D01*
X672880Y228007D01*
X672928Y227886D01*
X672945Y227862D01*
X672957Y227835D01*
X673038Y227734D01*
X673114Y227629D01*
X673137Y227610D01*
X673156Y227587D01*
X673259Y227509D01*
X673359Y227426D01*
X673386Y227413D01*
X673410Y227395D01*
X673554Y227324D01*
X676174Y226240D01*
X679240Y223174D01*
X680899Y219168D01*
X680899Y214832D01*
X679240Y210826D01*
X676174Y207760D01*
X672168Y206101D01*
X667832Y206101D01*
G37*
%LPD*%
%LPC*%
G36*
X246062Y76460D02*
X246062Y76460D01*
X242849Y77791D01*
X240391Y80249D01*
X239060Y83462D01*
X239060Y86938D01*
X240391Y90151D01*
X242849Y92609D01*
X246062Y93940D01*
X249538Y93940D01*
X250935Y93361D01*
X250963Y93354D01*
X250990Y93340D01*
X251116Y93312D01*
X251242Y93277D01*
X251271Y93277D01*
X251300Y93270D01*
X251430Y93274D01*
X251560Y93272D01*
X251588Y93279D01*
X251618Y93280D01*
X251742Y93316D01*
X251869Y93346D01*
X251895Y93360D01*
X251923Y93369D01*
X252035Y93434D01*
X252150Y93495D01*
X252172Y93515D01*
X252197Y93530D01*
X252318Y93636D01*
X309858Y151176D01*
X309918Y151254D01*
X309986Y151326D01*
X310015Y151379D01*
X310052Y151427D01*
X310092Y151518D01*
X310140Y151605D01*
X310155Y151663D01*
X310179Y151719D01*
X310194Y151817D01*
X310219Y151913D01*
X310225Y152013D01*
X310229Y152033D01*
X310227Y152045D01*
X310229Y152073D01*
X310229Y230148D01*
X340852Y260771D01*
X351148Y260771D01*
X361771Y250148D01*
X361771Y217752D01*
X350256Y206238D01*
X350238Y206214D01*
X350215Y206195D01*
X350141Y206089D01*
X350061Y205986D01*
X350049Y205959D01*
X350032Y205935D01*
X349986Y205814D01*
X349935Y205695D01*
X349930Y205665D01*
X349920Y205638D01*
X349905Y205509D01*
X349885Y205380D01*
X349888Y205351D01*
X349884Y205322D01*
X349903Y205193D01*
X349915Y205064D01*
X349925Y205036D01*
X349929Y205007D01*
X349981Y204854D01*
X350351Y203962D01*
X350351Y200838D01*
X349156Y197953D01*
X346947Y195744D01*
X344062Y194549D01*
X340938Y194549D01*
X338053Y195744D01*
X335844Y197953D01*
X334649Y200838D01*
X334649Y203962D01*
X335844Y206847D01*
X338053Y209056D01*
X340938Y210251D01*
X344062Y210251D01*
X344954Y209881D01*
X344983Y209873D01*
X345009Y209860D01*
X345136Y209831D01*
X345261Y209797D01*
X345291Y209797D01*
X345319Y209790D01*
X345449Y209794D01*
X345579Y209792D01*
X345608Y209799D01*
X345637Y209800D01*
X345762Y209836D01*
X345888Y209866D01*
X345915Y209880D01*
X345943Y209888D01*
X346055Y209954D01*
X346170Y210015D01*
X346191Y210035D01*
X346217Y210050D01*
X346338Y210156D01*
X355858Y219676D01*
X355918Y219754D01*
X355986Y219826D01*
X356015Y219879D01*
X356052Y219927D01*
X356092Y220018D01*
X356140Y220105D01*
X356155Y220163D01*
X356179Y220219D01*
X356194Y220317D01*
X356219Y220413D01*
X356225Y220513D01*
X356229Y220533D01*
X356227Y220545D01*
X356229Y220573D01*
X356229Y247327D01*
X356217Y247425D01*
X356214Y247524D01*
X356197Y247582D01*
X356189Y247642D01*
X356153Y247734D01*
X356125Y247829D01*
X356095Y247881D01*
X356072Y247938D01*
X356014Y248018D01*
X355964Y248103D01*
X355898Y248179D01*
X355886Y248195D01*
X355876Y248203D01*
X355858Y248224D01*
X349224Y254858D01*
X349146Y254918D01*
X349074Y254986D01*
X349021Y255015D01*
X348973Y255052D01*
X348882Y255092D01*
X348795Y255140D01*
X348737Y255155D01*
X348681Y255179D01*
X348583Y255194D01*
X348487Y255219D01*
X348387Y255225D01*
X348367Y255229D01*
X348355Y255227D01*
X348327Y255229D01*
X343673Y255229D01*
X343575Y255217D01*
X343476Y255214D01*
X343418Y255197D01*
X343358Y255189D01*
X343266Y255153D01*
X343171Y255125D01*
X343119Y255095D01*
X343062Y255072D01*
X342982Y255014D01*
X342897Y254964D01*
X342821Y254898D01*
X342805Y254886D01*
X342797Y254876D01*
X342776Y254858D01*
X340336Y252417D01*
X340251Y252308D01*
X340162Y252201D01*
X340153Y252182D01*
X340141Y252166D01*
X340085Y252038D01*
X340026Y251913D01*
X340023Y251893D01*
X340015Y251874D01*
X339993Y251736D01*
X339967Y251600D01*
X339968Y251580D01*
X339965Y251560D01*
X339978Y251421D01*
X339986Y251283D01*
X339993Y251264D01*
X339995Y251244D01*
X340042Y251112D01*
X340084Y250981D01*
X340095Y250963D01*
X340102Y250944D01*
X340180Y250829D01*
X340255Y250712D01*
X340269Y250698D01*
X340281Y250681D01*
X340385Y250589D01*
X340486Y250494D01*
X340504Y250484D01*
X340519Y250471D01*
X340643Y250407D01*
X340765Y250340D01*
X340784Y250335D01*
X340802Y250326D01*
X340938Y250296D01*
X341073Y250261D01*
X341101Y250259D01*
X341113Y250256D01*
X341133Y250257D01*
X341233Y250251D01*
X344062Y250251D01*
X346947Y249056D01*
X349156Y246847D01*
X350351Y243962D01*
X350351Y240838D01*
X349156Y237953D01*
X346947Y235744D01*
X344062Y234549D01*
X340938Y234549D01*
X338053Y235744D01*
X335844Y237953D01*
X334649Y240838D01*
X334649Y243667D01*
X334633Y243793D01*
X334627Y243895D01*
X334622Y243911D01*
X334619Y243943D01*
X334612Y243962D01*
X334609Y243982D01*
X334558Y244111D01*
X334544Y244151D01*
X334529Y244198D01*
X334525Y244204D01*
X334511Y244242D01*
X334500Y244259D01*
X334492Y244278D01*
X334411Y244390D01*
X334333Y244505D01*
X334317Y244519D01*
X334306Y244535D01*
X334198Y244624D01*
X334094Y244716D01*
X334076Y244725D01*
X334061Y244738D01*
X333935Y244797D01*
X333811Y244860D01*
X333791Y244865D01*
X333773Y244874D01*
X333637Y244900D01*
X333501Y244930D01*
X333480Y244930D01*
X333461Y244933D01*
X333322Y244925D01*
X333183Y244920D01*
X333163Y244915D01*
X333143Y244914D01*
X333068Y244889D01*
X333056Y244888D01*
X333025Y244875D01*
X333011Y244871D01*
X332877Y244832D01*
X332860Y244822D01*
X332841Y244816D01*
X332785Y244780D01*
X332760Y244771D01*
X332705Y244731D01*
X332603Y244671D01*
X332582Y244652D01*
X332572Y244645D01*
X332558Y244630D01*
X332513Y244591D01*
X332503Y244584D01*
X332498Y244578D01*
X332483Y244564D01*
X316142Y228224D01*
X316082Y228146D01*
X316014Y228074D01*
X315985Y228021D01*
X315948Y227973D01*
X315908Y227882D01*
X315860Y227795D01*
X315845Y227737D01*
X315821Y227681D01*
X315806Y227583D01*
X315781Y227487D01*
X315775Y227387D01*
X315771Y227367D01*
X315773Y227355D01*
X315771Y227327D01*
X315771Y149252D01*
X313776Y147258D01*
X256236Y89718D01*
X256218Y89695D01*
X256196Y89676D01*
X256121Y89569D01*
X256042Y89467D01*
X256030Y89440D01*
X256013Y89416D01*
X255967Y89294D01*
X255915Y89175D01*
X255911Y89146D01*
X255900Y89118D01*
X255886Y88989D01*
X255865Y88861D01*
X255868Y88831D01*
X255865Y88802D01*
X255883Y88674D01*
X255890Y88602D01*
X255892Y88573D01*
X255893Y88569D01*
X255895Y88544D01*
X255905Y88516D01*
X255909Y88487D01*
X255961Y88335D01*
X256540Y86938D01*
X256540Y83462D01*
X255209Y80249D01*
X252751Y77791D01*
X249538Y76460D01*
X246062Y76460D01*
G37*
%LPD*%
%LPC*%
G36*
X246062Y254260D02*
X246062Y254260D01*
X242849Y255591D01*
X240391Y258049D01*
X239060Y261262D01*
X239060Y264738D01*
X240391Y267951D01*
X242849Y270409D01*
X246062Y271740D01*
X249538Y271740D01*
X250935Y271161D01*
X250963Y271154D01*
X250990Y271140D01*
X251116Y271112D01*
X251242Y271077D01*
X251271Y271077D01*
X251300Y271070D01*
X251430Y271074D01*
X251560Y271072D01*
X251588Y271079D01*
X251618Y271080D01*
X251742Y271116D01*
X251869Y271146D01*
X251895Y271160D01*
X251923Y271169D01*
X252035Y271234D01*
X252150Y271295D01*
X252172Y271315D01*
X252197Y271330D01*
X252318Y271436D01*
X283858Y302976D01*
X283918Y303054D01*
X283986Y303126D01*
X284015Y303179D01*
X284052Y303227D01*
X284092Y303318D01*
X284140Y303405D01*
X284155Y303463D01*
X284179Y303519D01*
X284194Y303617D01*
X284219Y303713D01*
X284225Y303813D01*
X284229Y303833D01*
X284227Y303845D01*
X284229Y303873D01*
X284229Y565880D01*
X284217Y565978D01*
X284214Y566077D01*
X284197Y566135D01*
X284189Y566196D01*
X284153Y566288D01*
X284125Y566383D01*
X284095Y566435D01*
X284072Y566491D01*
X284014Y566571D01*
X283964Y566657D01*
X283898Y566732D01*
X283886Y566749D01*
X283876Y566756D01*
X283858Y566777D01*
X282499Y568136D01*
X282499Y571864D01*
X285136Y574501D01*
X288864Y574501D01*
X291501Y571864D01*
X291501Y568136D01*
X290142Y566777D01*
X290082Y566699D01*
X290014Y566627D01*
X289985Y566574D01*
X289948Y566526D01*
X289908Y566435D01*
X289860Y566349D01*
X289845Y566290D01*
X289821Y566234D01*
X289806Y566136D01*
X289781Y566041D01*
X289775Y565941D01*
X289771Y565920D01*
X289773Y565908D01*
X289771Y565880D01*
X289771Y301052D01*
X287776Y299058D01*
X256236Y267518D01*
X256218Y267495D01*
X256196Y267476D01*
X256121Y267369D01*
X256042Y267267D01*
X256030Y267240D01*
X256013Y267216D01*
X255967Y267094D01*
X255915Y266975D01*
X255911Y266946D01*
X255900Y266918D01*
X255886Y266789D01*
X255865Y266661D01*
X255868Y266631D01*
X255865Y266602D01*
X255883Y266474D01*
X255895Y266344D01*
X255905Y266316D01*
X255909Y266287D01*
X255961Y266135D01*
X256540Y264738D01*
X256540Y261262D01*
X255209Y258049D01*
X252751Y255591D01*
X249538Y254260D01*
X246062Y254260D01*
G37*
%LPD*%
%LPC*%
G36*
X388691Y313419D02*
X388691Y313419D01*
X386272Y314421D01*
X384421Y316272D01*
X383419Y318691D01*
X383419Y455309D01*
X384421Y457728D01*
X386272Y459579D01*
X388691Y460581D01*
X391309Y460581D01*
X393728Y459579D01*
X395579Y457728D01*
X396581Y455309D01*
X396581Y318691D01*
X395579Y316272D01*
X393728Y314421D01*
X391309Y313419D01*
X388691Y313419D01*
G37*
%LPD*%
G36*
X414552Y275623D02*
X414552Y275623D01*
X414567Y275621D01*
X414709Y275643D01*
X414853Y275661D01*
X414866Y275666D01*
X414881Y275668D01*
X415014Y275725D01*
X415148Y275778D01*
X415160Y275786D01*
X415174Y275792D01*
X415289Y275880D01*
X415406Y275965D01*
X415415Y275976D01*
X415427Y275985D01*
X415516Y276098D01*
X415609Y276209D01*
X415615Y276223D01*
X415624Y276235D01*
X415683Y276367D01*
X415744Y276497D01*
X415747Y276512D01*
X415753Y276525D01*
X415777Y276668D01*
X415804Y276810D01*
X415803Y276824D01*
X415805Y276839D01*
X415793Y276983D01*
X415784Y277127D01*
X415780Y277141D01*
X415778Y277156D01*
X415731Y277292D01*
X415686Y277429D01*
X415678Y277442D01*
X415673Y277456D01*
X415592Y277595D01*
X415568Y277631D01*
X415191Y278541D01*
X415154Y278731D01*
X420000Y278731D01*
X424846Y278731D01*
X424809Y278541D01*
X424432Y277631D01*
X424408Y277595D01*
X424401Y277582D01*
X424391Y277571D01*
X424330Y277440D01*
X424265Y277311D01*
X424262Y277296D01*
X424256Y277283D01*
X424229Y277141D01*
X424198Y277000D01*
X424199Y276985D01*
X424196Y276971D01*
X424205Y276827D01*
X424211Y276682D01*
X424215Y276668D01*
X424216Y276653D01*
X424260Y276516D01*
X424302Y276377D01*
X424309Y276365D01*
X424314Y276351D01*
X424391Y276229D01*
X424466Y276105D01*
X424476Y276095D01*
X424484Y276082D01*
X424590Y275983D01*
X424692Y275882D01*
X424705Y275874D01*
X424716Y275864D01*
X424842Y275794D01*
X424967Y275722D01*
X424981Y275718D01*
X424994Y275710D01*
X425134Y275674D01*
X425273Y275635D01*
X425288Y275635D01*
X425302Y275631D01*
X425463Y275621D01*
X564177Y275621D01*
X564275Y275633D01*
X564374Y275636D01*
X564432Y275653D01*
X564492Y275661D01*
X564584Y275697D01*
X564679Y275725D01*
X564732Y275755D01*
X564788Y275778D01*
X564868Y275836D01*
X564953Y275886D01*
X565029Y275953D01*
X565045Y275965D01*
X565053Y275974D01*
X565074Y275993D01*
X576128Y287046D01*
X576188Y287124D01*
X576256Y287196D01*
X576285Y287249D01*
X576322Y287297D01*
X576362Y287388D01*
X576410Y287475D01*
X576425Y287533D01*
X576449Y287589D01*
X576464Y287687D01*
X576489Y287783D01*
X576495Y287883D01*
X576499Y287903D01*
X576497Y287915D01*
X576499Y287943D01*
X576499Y289864D01*
X578698Y292063D01*
X578783Y292172D01*
X578871Y292279D01*
X578880Y292298D01*
X578892Y292314D01*
X578948Y292442D01*
X579007Y292567D01*
X579011Y292587D01*
X579019Y292606D01*
X579041Y292744D01*
X579067Y292880D01*
X579065Y292900D01*
X579069Y292920D01*
X579056Y293059D01*
X579047Y293197D01*
X579041Y293216D01*
X579039Y293236D01*
X578992Y293368D01*
X578949Y293499D01*
X578938Y293517D01*
X578931Y293536D01*
X578853Y293651D01*
X578779Y293768D01*
X578764Y293782D01*
X578753Y293799D01*
X578649Y293891D01*
X578547Y293986D01*
X578529Y293996D01*
X578514Y294009D01*
X578390Y294073D01*
X578269Y294140D01*
X578249Y294145D01*
X578231Y294154D01*
X578095Y294184D01*
X577961Y294219D01*
X577933Y294221D01*
X577921Y294224D01*
X577900Y294223D01*
X577800Y294229D01*
X561200Y294229D01*
X561062Y294212D01*
X560924Y294199D01*
X560904Y294192D01*
X560884Y294189D01*
X560756Y294138D01*
X560624Y294091D01*
X560608Y294080D01*
X560589Y294072D01*
X560476Y293991D01*
X560361Y293913D01*
X560348Y293897D01*
X560331Y293886D01*
X560243Y293778D01*
X560151Y293674D01*
X560142Y293656D01*
X560129Y293641D01*
X560069Y293515D01*
X560006Y293391D01*
X560002Y293371D01*
X559993Y293353D01*
X559967Y293217D01*
X559936Y293081D01*
X559937Y293060D01*
X559933Y293041D01*
X559942Y292902D01*
X559946Y292763D01*
X559952Y292743D01*
X559953Y292723D01*
X559996Y292591D01*
X560035Y292457D01*
X560045Y292440D01*
X560051Y292421D01*
X560126Y292303D01*
X560196Y292183D01*
X560215Y292162D01*
X560221Y292152D01*
X560236Y292138D01*
X560302Y292063D01*
X562501Y289864D01*
X562501Y286136D01*
X559864Y283499D01*
X557943Y283499D01*
X557845Y283487D01*
X557746Y283484D01*
X557688Y283467D01*
X557628Y283459D01*
X557536Y283423D01*
X557441Y283395D01*
X557389Y283365D01*
X557332Y283342D01*
X557252Y283284D01*
X557167Y283234D01*
X557091Y283168D01*
X557075Y283156D01*
X557067Y283146D01*
X557046Y283128D01*
X554148Y280229D01*
X491152Y280229D01*
X487948Y283434D01*
X487870Y283494D01*
X487798Y283562D01*
X487745Y283591D01*
X487697Y283628D01*
X487606Y283668D01*
X487519Y283716D01*
X487461Y283731D01*
X487405Y283755D01*
X487307Y283770D01*
X487211Y283795D01*
X487111Y283801D01*
X487091Y283805D01*
X487078Y283803D01*
X487050Y283805D01*
X425736Y283805D01*
X425687Y283799D01*
X425637Y283801D01*
X425530Y283779D01*
X425421Y283765D01*
X425374Y283747D01*
X425326Y283737D01*
X425227Y283689D01*
X425125Y283648D01*
X425085Y283619D01*
X425040Y283597D01*
X424956Y283526D01*
X424868Y283462D01*
X424836Y283423D01*
X424798Y283391D01*
X424735Y283301D01*
X424665Y283217D01*
X424644Y283172D01*
X424615Y283131D01*
X424576Y283028D01*
X424529Y282929D01*
X424520Y282880D01*
X424502Y282834D01*
X424490Y282724D01*
X424469Y282617D01*
X424473Y282567D01*
X424467Y282518D01*
X424482Y282409D01*
X424489Y282299D01*
X424504Y282252D01*
X424511Y282203D01*
X424563Y282050D01*
X424809Y281459D01*
X424846Y281269D01*
X420000Y281269D01*
X415154Y281269D01*
X415191Y281459D01*
X415437Y282050D01*
X415450Y282098D01*
X415471Y282143D01*
X415491Y282251D01*
X415520Y282357D01*
X415521Y282407D01*
X415531Y282456D01*
X415524Y282565D01*
X415526Y282675D01*
X415514Y282723D01*
X415511Y282773D01*
X415477Y282877D01*
X415451Y282984D01*
X415428Y283028D01*
X415413Y283075D01*
X415354Y283168D01*
X415303Y283265D01*
X415269Y283302D01*
X415243Y283344D01*
X415163Y283419D01*
X415089Y283501D01*
X415047Y283528D01*
X415011Y283562D01*
X414915Y283615D01*
X414823Y283675D01*
X414776Y283692D01*
X414733Y283716D01*
X414626Y283743D01*
X414522Y283779D01*
X414473Y283783D01*
X414425Y283795D01*
X414264Y283805D01*
X355249Y283805D01*
X355151Y283793D01*
X355052Y283790D01*
X354994Y283773D01*
X354934Y283765D01*
X354842Y283729D01*
X354747Y283701D01*
X354695Y283671D01*
X354638Y283648D01*
X354558Y283590D01*
X354473Y283540D01*
X354397Y283474D01*
X354381Y283462D01*
X354373Y283452D01*
X354352Y283434D01*
X351872Y280954D01*
X351812Y280876D01*
X351744Y280804D01*
X351715Y280751D01*
X351678Y280703D01*
X351638Y280612D01*
X351590Y280525D01*
X351575Y280467D01*
X351551Y280411D01*
X351536Y280313D01*
X351511Y280217D01*
X351505Y280117D01*
X351501Y280097D01*
X351503Y280085D01*
X351501Y280057D01*
X351501Y278136D01*
X351153Y277788D01*
X351068Y277678D01*
X350979Y277571D01*
X350970Y277552D01*
X350958Y277536D01*
X350902Y277408D01*
X350843Y277283D01*
X350839Y277263D01*
X350831Y277244D01*
X350809Y277106D01*
X350783Y276971D01*
X350785Y276950D01*
X350781Y276930D01*
X350794Y276791D01*
X350803Y276653D01*
X350809Y276634D01*
X350811Y276614D01*
X350858Y276483D01*
X350901Y276351D01*
X350912Y276333D01*
X350919Y276314D01*
X350997Y276200D01*
X351071Y276082D01*
X351086Y276068D01*
X351097Y276051D01*
X351201Y275959D01*
X351303Y275864D01*
X351321Y275854D01*
X351336Y275841D01*
X351460Y275778D01*
X351581Y275710D01*
X351601Y275705D01*
X351619Y275696D01*
X351755Y275666D01*
X351889Y275631D01*
X351917Y275629D01*
X351929Y275627D01*
X351950Y275627D01*
X352050Y275621D01*
X414537Y275621D01*
X414552Y275623D01*
G37*
%LPC*%
G36*
X246062Y355860D02*
X246062Y355860D01*
X242849Y357191D01*
X240391Y359649D01*
X239060Y362862D01*
X239060Y366338D01*
X240391Y369551D01*
X242849Y372009D01*
X246062Y373340D01*
X249538Y373340D01*
X250935Y372761D01*
X250963Y372754D01*
X250990Y372740D01*
X251116Y372712D01*
X251242Y372677D01*
X251271Y372677D01*
X251300Y372670D01*
X251430Y372674D01*
X251560Y372672D01*
X251588Y372679D01*
X251618Y372680D01*
X251742Y372716D01*
X251869Y372746D01*
X251895Y372760D01*
X251923Y372769D01*
X252035Y372834D01*
X252150Y372895D01*
X252172Y372915D01*
X252197Y372930D01*
X252318Y373036D01*
X260858Y381576D01*
X260918Y381654D01*
X260986Y381726D01*
X261015Y381779D01*
X261052Y381827D01*
X261092Y381918D01*
X261140Y382005D01*
X261155Y382063D01*
X261179Y382119D01*
X261194Y382217D01*
X261219Y382313D01*
X261225Y382413D01*
X261229Y382433D01*
X261227Y382445D01*
X261229Y382473D01*
X261229Y553880D01*
X261217Y553978D01*
X261214Y554077D01*
X261197Y554135D01*
X261189Y554196D01*
X261153Y554288D01*
X261125Y554383D01*
X261095Y554435D01*
X261072Y554491D01*
X261014Y554571D01*
X260964Y554657D01*
X260898Y554732D01*
X260886Y554749D01*
X260876Y554756D01*
X260858Y554777D01*
X259499Y556136D01*
X259499Y559864D01*
X262136Y562501D01*
X265864Y562501D01*
X268501Y559864D01*
X268501Y556136D01*
X267142Y554777D01*
X267082Y554699D01*
X267014Y554627D01*
X266985Y554574D01*
X266948Y554526D01*
X266908Y554435D01*
X266860Y554349D01*
X266845Y554290D01*
X266821Y554234D01*
X266806Y554136D01*
X266781Y554041D01*
X266775Y553941D01*
X266771Y553920D01*
X266773Y553908D01*
X266771Y553880D01*
X266771Y379652D01*
X256236Y369118D01*
X256218Y369095D01*
X256196Y369076D01*
X256121Y368969D01*
X256042Y368867D01*
X256030Y368840D01*
X256013Y368816D01*
X255967Y368694D01*
X255915Y368575D01*
X255911Y368546D01*
X255900Y368518D01*
X255886Y368389D01*
X255865Y368261D01*
X255868Y368231D01*
X255865Y368202D01*
X255883Y368073D01*
X255895Y367944D01*
X255905Y367916D01*
X255909Y367887D01*
X255961Y367735D01*
X256540Y366338D01*
X256540Y362862D01*
X255209Y359649D01*
X252751Y357191D01*
X249538Y355860D01*
X246062Y355860D01*
G37*
%LPD*%
%LPC*%
G36*
X246062Y330460D02*
X246062Y330460D01*
X242849Y331791D01*
X240391Y334249D01*
X239060Y337462D01*
X239060Y340938D01*
X240391Y344151D01*
X242849Y346609D01*
X246062Y347940D01*
X249538Y347940D01*
X250935Y347361D01*
X250963Y347354D01*
X250990Y347340D01*
X251116Y347312D01*
X251242Y347277D01*
X251271Y347277D01*
X251300Y347270D01*
X251430Y347274D01*
X251560Y347272D01*
X251588Y347279D01*
X251618Y347280D01*
X251742Y347316D01*
X251869Y347346D01*
X251895Y347360D01*
X251923Y347369D01*
X252035Y347434D01*
X252150Y347495D01*
X252172Y347515D01*
X252197Y347530D01*
X252318Y347636D01*
X271858Y367176D01*
X271918Y367254D01*
X271986Y367326D01*
X272015Y367379D01*
X272052Y367427D01*
X272092Y367518D01*
X272140Y367605D01*
X272155Y367663D01*
X272179Y367719D01*
X272194Y367817D01*
X272219Y367913D01*
X272225Y368013D01*
X272229Y368033D01*
X272227Y368045D01*
X272229Y368073D01*
X272229Y504880D01*
X272217Y504978D01*
X272214Y505077D01*
X272197Y505135D01*
X272189Y505196D01*
X272153Y505288D01*
X272125Y505383D01*
X272095Y505435D01*
X272072Y505491D01*
X272014Y505571D01*
X271964Y505657D01*
X271898Y505732D01*
X271886Y505749D01*
X271876Y505756D01*
X271858Y505777D01*
X271499Y506136D01*
X271499Y509864D01*
X274136Y512501D01*
X277864Y512501D01*
X280501Y509864D01*
X280501Y506136D01*
X278142Y503777D01*
X278082Y503699D01*
X278014Y503627D01*
X277985Y503574D01*
X277948Y503526D01*
X277908Y503435D01*
X277860Y503349D01*
X277845Y503290D01*
X277821Y503234D01*
X277806Y503136D01*
X277781Y503041D01*
X277775Y502941D01*
X277771Y502920D01*
X277773Y502908D01*
X277771Y502880D01*
X277771Y365252D01*
X275776Y363258D01*
X256236Y343718D01*
X256218Y343695D01*
X256196Y343676D01*
X256121Y343569D01*
X256042Y343467D01*
X256030Y343440D01*
X256013Y343416D01*
X255967Y343294D01*
X255915Y343175D01*
X255911Y343146D01*
X255900Y343118D01*
X255886Y342989D01*
X255865Y342861D01*
X255868Y342831D01*
X255865Y342802D01*
X255883Y342674D01*
X255895Y342544D01*
X255905Y342516D01*
X255909Y342487D01*
X255961Y342335D01*
X256540Y340938D01*
X256540Y337462D01*
X255209Y334249D01*
X252751Y331791D01*
X249538Y330460D01*
X246062Y330460D01*
G37*
%LPD*%
%LPC*%
G36*
X716320Y651499D02*
X716320Y651499D01*
X709520Y654316D01*
X704316Y659520D01*
X701499Y666320D01*
X701499Y673680D01*
X704316Y680480D01*
X709520Y685684D01*
X716320Y688501D01*
X723680Y688501D01*
X730480Y685684D01*
X735684Y680480D01*
X738501Y673680D01*
X738501Y666320D01*
X735684Y659520D01*
X730480Y654316D01*
X723680Y651499D01*
X716320Y651499D01*
G37*
%LPD*%
%LPC*%
G36*
X716320Y11499D02*
X716320Y11499D01*
X709520Y14316D01*
X704316Y19520D01*
X701499Y26320D01*
X701499Y33680D01*
X704316Y40480D01*
X709520Y45684D01*
X716320Y48501D01*
X723680Y48501D01*
X730480Y45684D01*
X735684Y40480D01*
X738501Y33680D01*
X738501Y26320D01*
X735684Y19520D01*
X730480Y14316D01*
X723680Y11499D01*
X716320Y11499D01*
G37*
%LPD*%
%LPC*%
G36*
X26320Y651499D02*
X26320Y651499D01*
X19520Y654316D01*
X14316Y659520D01*
X11499Y666320D01*
X11499Y673680D01*
X14316Y680480D01*
X19520Y685684D01*
X26320Y688501D01*
X33680Y688501D01*
X40480Y685684D01*
X45684Y680480D01*
X48501Y673680D01*
X48501Y666320D01*
X45684Y659520D01*
X40480Y654316D01*
X33680Y651499D01*
X26320Y651499D01*
G37*
%LPD*%
%LPC*%
G36*
X26320Y11499D02*
X26320Y11499D01*
X19520Y14316D01*
X14316Y19520D01*
X11499Y26320D01*
X11499Y33680D01*
X14316Y40480D01*
X19520Y45684D01*
X26320Y48501D01*
X33680Y48501D01*
X40480Y45684D01*
X45684Y40480D01*
X48501Y33680D01*
X48501Y26320D01*
X45684Y19520D01*
X40480Y14316D01*
X33680Y11499D01*
X26320Y11499D01*
G37*
%LPD*%
%LPC*%
G36*
X88434Y517801D02*
X88434Y517801D01*
X84428Y519460D01*
X81362Y522526D01*
X79703Y526532D01*
X79703Y530868D01*
X81362Y534874D01*
X84428Y537940D01*
X88434Y539599D01*
X111566Y539599D01*
X115572Y537940D01*
X118638Y534874D01*
X120297Y530868D01*
X120297Y526532D01*
X118638Y522526D01*
X115572Y519460D01*
X111566Y517801D01*
X88434Y517801D01*
G37*
%LPD*%
%LPC*%
G36*
X88434Y441601D02*
X88434Y441601D01*
X84428Y443260D01*
X81362Y446326D01*
X79703Y450332D01*
X79703Y454668D01*
X81362Y458674D01*
X84428Y461740D01*
X88434Y463399D01*
X111566Y463399D01*
X115572Y461740D01*
X118638Y458674D01*
X120297Y454668D01*
X120297Y450332D01*
X118638Y446326D01*
X115572Y443260D01*
X111566Y441601D01*
X88434Y441601D01*
G37*
%LPD*%
%LPC*%
G36*
X667832Y180701D02*
X667832Y180701D01*
X663826Y182360D01*
X660760Y185426D01*
X659676Y188046D01*
X659661Y188071D01*
X659652Y188099D01*
X659582Y188209D01*
X659518Y188322D01*
X659497Y188343D01*
X659482Y188368D01*
X659387Y188457D01*
X659297Y188550D01*
X659271Y188566D01*
X659250Y188586D01*
X659136Y188649D01*
X659026Y188717D01*
X658997Y188725D01*
X658972Y188740D01*
X658846Y188772D01*
X658722Y188810D01*
X658692Y188812D01*
X658664Y188819D01*
X658503Y188829D01*
X636252Y188829D01*
X610954Y214128D01*
X610876Y214188D01*
X610804Y214256D01*
X610751Y214285D01*
X610703Y214322D01*
X610612Y214362D01*
X610525Y214410D01*
X610467Y214425D01*
X610411Y214449D01*
X610313Y214464D01*
X610217Y214489D01*
X610117Y214495D01*
X610097Y214499D01*
X610085Y214497D01*
X610057Y214499D01*
X608136Y214499D01*
X605499Y217136D01*
X605499Y220864D01*
X608136Y223501D01*
X611864Y223501D01*
X614501Y220864D01*
X614501Y218943D01*
X614513Y218845D01*
X614516Y218746D01*
X614533Y218688D01*
X614541Y218628D01*
X614577Y218536D01*
X614605Y218441D01*
X614635Y218389D01*
X614658Y218332D01*
X614716Y218252D01*
X614766Y218167D01*
X614832Y218091D01*
X614844Y218075D01*
X614854Y218067D01*
X614872Y218046D01*
X638176Y194742D01*
X638254Y194682D01*
X638326Y194614D01*
X638379Y194585D01*
X638427Y194548D01*
X638518Y194508D01*
X638605Y194460D01*
X638663Y194445D01*
X638719Y194421D01*
X638817Y194406D01*
X638913Y194381D01*
X639013Y194375D01*
X639033Y194371D01*
X639045Y194373D01*
X639073Y194371D01*
X658503Y194371D01*
X658532Y194374D01*
X658562Y194372D01*
X658690Y194394D01*
X658818Y194411D01*
X658846Y194421D01*
X658875Y194426D01*
X658993Y194480D01*
X659114Y194528D01*
X659138Y194545D01*
X659165Y194557D01*
X659266Y194638D01*
X659371Y194714D01*
X659390Y194737D01*
X659413Y194756D01*
X659491Y194859D01*
X659574Y194959D01*
X659587Y194986D01*
X659605Y195010D01*
X659676Y195154D01*
X660760Y197774D01*
X663826Y200840D01*
X667832Y202499D01*
X672168Y202499D01*
X676174Y200840D01*
X679240Y197774D01*
X680899Y193768D01*
X680899Y189432D01*
X679240Y185426D01*
X676174Y182360D01*
X672168Y180701D01*
X667832Y180701D01*
G37*
%LPD*%
%LPC*%
G36*
X236136Y426499D02*
X236136Y426499D01*
X233499Y429136D01*
X233499Y432864D01*
X234858Y434223D01*
X234918Y434301D01*
X234986Y434373D01*
X235015Y434426D01*
X235052Y434474D01*
X235092Y434565D01*
X235140Y434651D01*
X235155Y434710D01*
X235179Y434766D01*
X235194Y434864D01*
X235219Y434959D01*
X235225Y435059D01*
X235229Y435080D01*
X235227Y435092D01*
X235229Y435120D01*
X235229Y520148D01*
X248128Y533046D01*
X248188Y533124D01*
X248256Y533196D01*
X248285Y533249D01*
X248322Y533297D01*
X248362Y533388D01*
X248410Y533475D01*
X248425Y533533D01*
X248449Y533589D01*
X248464Y533687D01*
X248489Y533783D01*
X248495Y533883D01*
X248499Y533903D01*
X248497Y533915D01*
X248499Y533943D01*
X248499Y535864D01*
X251136Y538501D01*
X254864Y538501D01*
X257501Y535864D01*
X257501Y532136D01*
X254864Y529499D01*
X252943Y529499D01*
X252845Y529487D01*
X252746Y529484D01*
X252688Y529467D01*
X252628Y529459D01*
X252536Y529423D01*
X252441Y529395D01*
X252389Y529365D01*
X252332Y529342D01*
X252252Y529284D01*
X252167Y529234D01*
X252091Y529168D01*
X252075Y529156D01*
X252067Y529146D01*
X252046Y529128D01*
X241142Y518224D01*
X241082Y518146D01*
X241014Y518074D01*
X240985Y518021D01*
X240948Y517973D01*
X240908Y517882D01*
X240860Y517795D01*
X240845Y517737D01*
X240821Y517681D01*
X240806Y517583D01*
X240781Y517487D01*
X240775Y517387D01*
X240771Y517367D01*
X240773Y517355D01*
X240771Y517327D01*
X240771Y435120D01*
X240783Y435022D01*
X240786Y434923D01*
X240803Y434865D01*
X240811Y434804D01*
X240847Y434712D01*
X240875Y434617D01*
X240905Y434565D01*
X240928Y434509D01*
X240986Y434429D01*
X241036Y434343D01*
X241102Y434268D01*
X241114Y434251D01*
X241124Y434244D01*
X241142Y434223D01*
X242501Y432864D01*
X242501Y429136D01*
X239864Y426499D01*
X236136Y426499D01*
G37*
%LPD*%
%LPC*%
G36*
X251136Y426499D02*
X251136Y426499D01*
X248499Y429136D01*
X248499Y432864D01*
X249858Y434223D01*
X249918Y434301D01*
X249986Y434373D01*
X250015Y434426D01*
X250052Y434474D01*
X250092Y434565D01*
X250140Y434651D01*
X250155Y434710D01*
X250179Y434766D01*
X250194Y434864D01*
X250219Y434959D01*
X250225Y435059D01*
X250229Y435080D01*
X250227Y435092D01*
X250229Y435120D01*
X250229Y511880D01*
X250217Y511978D01*
X250214Y512077D01*
X250197Y512135D01*
X250189Y512196D01*
X250153Y512288D01*
X250125Y512383D01*
X250095Y512435D01*
X250072Y512491D01*
X250014Y512571D01*
X249964Y512657D01*
X249898Y512732D01*
X249886Y512749D01*
X249876Y512756D01*
X249858Y512777D01*
X247499Y515136D01*
X247499Y518864D01*
X250136Y521501D01*
X253864Y521501D01*
X256501Y518864D01*
X256501Y515136D01*
X256142Y514777D01*
X256082Y514699D01*
X256014Y514627D01*
X255985Y514574D01*
X255948Y514526D01*
X255908Y514435D01*
X255860Y514349D01*
X255845Y514290D01*
X255821Y514234D01*
X255806Y514136D01*
X255781Y514041D01*
X255775Y513941D01*
X255771Y513920D01*
X255773Y513908D01*
X255771Y513880D01*
X255771Y435120D01*
X255783Y435022D01*
X255786Y434923D01*
X255803Y434865D01*
X255811Y434804D01*
X255847Y434712D01*
X255875Y434617D01*
X255905Y434565D01*
X255928Y434509D01*
X255986Y434429D01*
X256036Y434343D01*
X256102Y434268D01*
X256114Y434251D01*
X256124Y434244D01*
X256142Y434223D01*
X257501Y432864D01*
X257501Y429136D01*
X254864Y426499D01*
X251136Y426499D01*
G37*
%LPD*%
%LPC*%
G36*
X600136Y324499D02*
X600136Y324499D01*
X597499Y327136D01*
X597499Y330864D01*
X598858Y332223D01*
X598918Y332301D01*
X598986Y332373D01*
X599015Y332426D01*
X599052Y332474D01*
X599092Y332565D01*
X599140Y332651D01*
X599155Y332710D01*
X599179Y332766D01*
X599194Y332864D01*
X599219Y332959D01*
X599225Y333059D01*
X599229Y333080D01*
X599227Y333092D01*
X599229Y333120D01*
X599229Y375230D01*
X599214Y375348D01*
X599207Y375467D01*
X599194Y375505D01*
X599189Y375546D01*
X599146Y375656D01*
X599109Y375769D01*
X599087Y375804D01*
X599072Y375841D01*
X599003Y375937D01*
X598939Y376038D01*
X598909Y376066D01*
X598886Y376099D01*
X598794Y376175D01*
X598707Y376256D01*
X598672Y376276D01*
X598641Y376301D01*
X598533Y376352D01*
X598429Y376410D01*
X598389Y376420D01*
X598353Y376437D01*
X598236Y376459D01*
X598121Y376489D01*
X598061Y376493D01*
X598041Y376497D01*
X598020Y376495D01*
X597960Y376499D01*
X595136Y376499D01*
X592499Y379136D01*
X592499Y382864D01*
X595136Y385501D01*
X598864Y385501D01*
X601501Y382864D01*
X601501Y381943D01*
X601513Y381845D01*
X601516Y381746D01*
X601533Y381688D01*
X601541Y381628D01*
X601577Y381536D01*
X601605Y381441D01*
X601635Y381389D01*
X601658Y381332D01*
X601716Y381252D01*
X601766Y381167D01*
X601832Y381091D01*
X601844Y381075D01*
X601854Y381067D01*
X601872Y381046D01*
X604771Y378148D01*
X604771Y333120D01*
X604783Y333022D01*
X604786Y332923D01*
X604803Y332865D01*
X604811Y332804D01*
X604847Y332712D01*
X604875Y332617D01*
X604905Y332565D01*
X604928Y332509D01*
X604986Y332429D01*
X605036Y332343D01*
X605102Y332268D01*
X605114Y332251D01*
X605124Y332244D01*
X605142Y332223D01*
X606501Y330864D01*
X606501Y327136D01*
X603864Y324499D01*
X600136Y324499D01*
G37*
%LPD*%
%LPC*%
G36*
X667832Y155301D02*
X667832Y155301D01*
X663826Y156960D01*
X660760Y160026D01*
X659101Y164032D01*
X659101Y168368D01*
X660760Y172374D01*
X663826Y175440D01*
X667832Y177099D01*
X672168Y177099D01*
X676174Y175440D01*
X679240Y172374D01*
X680899Y168368D01*
X680899Y164032D01*
X679240Y160026D01*
X676174Y156960D01*
X672168Y155301D01*
X667832Y155301D01*
G37*
%LPD*%
%LPC*%
G36*
X667832Y340301D02*
X667832Y340301D01*
X663826Y341960D01*
X660760Y345026D01*
X659101Y349032D01*
X659101Y353368D01*
X660760Y357374D01*
X663826Y360440D01*
X667832Y362099D01*
X672168Y362099D01*
X676174Y360440D01*
X679240Y357374D01*
X680899Y353368D01*
X680899Y349032D01*
X679240Y345026D01*
X676174Y341960D01*
X672168Y340301D01*
X667832Y340301D01*
G37*
%LPD*%
%LPC*%
G36*
X460344Y621707D02*
X460344Y621707D01*
X456338Y623366D01*
X453272Y626432D01*
X451613Y630438D01*
X451613Y634774D01*
X453272Y638780D01*
X456338Y641846D01*
X460344Y643505D01*
X464680Y643505D01*
X468686Y641846D01*
X471752Y638780D01*
X473411Y634774D01*
X473411Y630438D01*
X471752Y626432D01*
X468686Y623366D01*
X464680Y621707D01*
X460344Y621707D01*
G37*
%LPD*%
%LPC*%
G36*
X667832Y264101D02*
X667832Y264101D01*
X663826Y265760D01*
X660760Y268826D01*
X659101Y272832D01*
X659101Y277168D01*
X660760Y281174D01*
X663826Y284240D01*
X667832Y285899D01*
X672168Y285899D01*
X676174Y284240D01*
X679240Y281174D01*
X680899Y277168D01*
X680899Y272832D01*
X679240Y268826D01*
X676174Y265760D01*
X672168Y264101D01*
X667832Y264101D01*
G37*
%LPD*%
%LPC*%
G36*
X667832Y560701D02*
X667832Y560701D01*
X663826Y562360D01*
X660760Y565426D01*
X659101Y569432D01*
X659101Y573768D01*
X660760Y577774D01*
X663826Y580840D01*
X667832Y582499D01*
X672168Y582499D01*
X676174Y580840D01*
X679240Y577774D01*
X680899Y573768D01*
X680899Y569432D01*
X679240Y565426D01*
X676174Y562360D01*
X672168Y560701D01*
X667832Y560701D01*
G37*
%LPD*%
%LPC*%
G36*
X667832Y586101D02*
X667832Y586101D01*
X663826Y587760D01*
X660760Y590826D01*
X659101Y594832D01*
X659101Y599168D01*
X660760Y603174D01*
X663826Y606240D01*
X667832Y607899D01*
X672168Y607899D01*
X676174Y606240D01*
X679240Y603174D01*
X680899Y599168D01*
X680899Y594832D01*
X679240Y590826D01*
X676174Y587760D01*
X672168Y586101D01*
X667832Y586101D01*
G37*
%LPD*%
%LPC*%
G36*
X460344Y576495D02*
X460344Y576495D01*
X456338Y578154D01*
X453272Y581220D01*
X451613Y585226D01*
X451613Y589562D01*
X453272Y593568D01*
X456338Y596634D01*
X460344Y598293D01*
X464680Y598293D01*
X468686Y596634D01*
X471752Y593568D01*
X473411Y589562D01*
X473411Y585226D01*
X471752Y581220D01*
X468686Y578154D01*
X464680Y576495D01*
X460344Y576495D01*
G37*
%LPD*%
%LPC*%
G36*
X395320Y576495D02*
X395320Y576495D01*
X391314Y578154D01*
X388248Y581220D01*
X386589Y585226D01*
X386589Y589562D01*
X388248Y593568D01*
X391314Y596634D01*
X395320Y598293D01*
X399656Y598293D01*
X403662Y596634D01*
X406728Y593568D01*
X408387Y589562D01*
X408387Y585226D01*
X406728Y581220D01*
X403662Y578154D01*
X399656Y576495D01*
X395320Y576495D01*
G37*
%LPD*%
%LPC*%
G36*
X667832Y79101D02*
X667832Y79101D01*
X663826Y80760D01*
X660760Y83826D01*
X659101Y87832D01*
X659101Y92168D01*
X660760Y96174D01*
X663826Y99240D01*
X667832Y100899D01*
X672168Y100899D01*
X676174Y99240D01*
X679240Y96174D01*
X680899Y92168D01*
X680899Y87832D01*
X679240Y83826D01*
X676174Y80760D01*
X672168Y79101D01*
X667832Y79101D01*
G37*
%LPD*%
%LPC*%
G36*
X667832Y459101D02*
X667832Y459101D01*
X663826Y460760D01*
X660760Y463826D01*
X659101Y467832D01*
X659101Y472168D01*
X660760Y476174D01*
X663826Y479240D01*
X667832Y480899D01*
X672168Y480899D01*
X676174Y479240D01*
X679240Y476174D01*
X680899Y472168D01*
X680899Y467832D01*
X679240Y463826D01*
X676174Y460760D01*
X672168Y459101D01*
X667832Y459101D01*
G37*
%LPD*%
%LPC*%
G36*
X667832Y509901D02*
X667832Y509901D01*
X663826Y511560D01*
X660760Y514626D01*
X659101Y518632D01*
X659101Y522968D01*
X660760Y526974D01*
X663826Y530040D01*
X667832Y531699D01*
X672168Y531699D01*
X676174Y530040D01*
X679240Y526974D01*
X680899Y522968D01*
X680899Y518632D01*
X679240Y514626D01*
X676174Y511560D01*
X672168Y509901D01*
X667832Y509901D01*
G37*
%LPD*%
%LPC*%
G36*
X534923Y595539D02*
X534923Y595539D01*
X534923Y617349D01*
X536491Y617172D01*
X539172Y616560D01*
X541767Y615652D01*
X544244Y614459D01*
X546572Y612996D01*
X548722Y611282D01*
X550666Y609338D01*
X552380Y607188D01*
X553843Y604860D01*
X555036Y602383D01*
X555944Y599788D01*
X556556Y597107D01*
X556733Y595539D01*
X534923Y595539D01*
G37*
%LPD*%
%LPC*%
G36*
X572285Y631891D02*
X572285Y631891D01*
X594095Y631891D01*
X593918Y630323D01*
X593306Y627642D01*
X592398Y625047D01*
X591205Y622570D01*
X589742Y620242D01*
X588028Y618092D01*
X586084Y616148D01*
X583934Y614434D01*
X581606Y612971D01*
X579129Y611778D01*
X576534Y610870D01*
X573853Y610258D01*
X572285Y610081D01*
X572285Y631891D01*
G37*
%LPD*%
%LPC*%
G36*
X508035Y595539D02*
X508035Y595539D01*
X508212Y597107D01*
X508824Y599788D01*
X509732Y602383D01*
X510925Y604860D01*
X511631Y605983D01*
X512388Y607188D01*
X514102Y609338D01*
X516046Y611282D01*
X518196Y612996D01*
X520524Y614459D01*
X523001Y615652D01*
X525596Y616560D01*
X528277Y617172D01*
X529845Y617349D01*
X529845Y595539D01*
X508035Y595539D01*
G37*
%LPD*%
%LPC*%
G36*
X528277Y568828D02*
X528277Y568828D01*
X525596Y569440D01*
X523001Y570348D01*
X520524Y571541D01*
X518196Y573004D01*
X516046Y574718D01*
X514102Y576662D01*
X512388Y578812D01*
X510925Y581140D01*
X509732Y583617D01*
X508824Y586212D01*
X508212Y588893D01*
X508035Y590461D01*
X529845Y590461D01*
X529845Y568651D01*
X528277Y568828D01*
G37*
%LPD*%
%LPC*%
G36*
X565639Y610258D02*
X565639Y610258D01*
X562958Y610870D01*
X560363Y611778D01*
X557886Y612971D01*
X555558Y614434D01*
X553408Y616148D01*
X551464Y618092D01*
X549750Y620242D01*
X548287Y622570D01*
X547094Y625047D01*
X546186Y627642D01*
X545574Y630323D01*
X545397Y631891D01*
X567207Y631891D01*
X567207Y610081D01*
X565639Y610258D01*
G37*
%LPD*%
%LPC*%
G36*
X93662Y279660D02*
X93662Y279660D01*
X90449Y280991D01*
X87991Y283449D01*
X86660Y286662D01*
X86660Y290138D01*
X87991Y293351D01*
X90449Y295809D01*
X93662Y297140D01*
X97138Y297140D01*
X100351Y295809D01*
X102809Y293351D01*
X104140Y290138D01*
X104140Y286662D01*
X102809Y283449D01*
X100351Y280991D01*
X97138Y279660D01*
X93662Y279660D01*
G37*
%LPD*%
%LPC*%
G36*
X93662Y25660D02*
X93662Y25660D01*
X90449Y26991D01*
X87991Y29449D01*
X86660Y32662D01*
X86660Y36138D01*
X87991Y39351D01*
X90449Y41809D01*
X93662Y43140D01*
X97138Y43140D01*
X100351Y41809D01*
X102809Y39351D01*
X104140Y36138D01*
X104140Y32662D01*
X102809Y29449D01*
X100351Y26991D01*
X97138Y25660D01*
X93662Y25660D01*
G37*
%LPD*%
%LPC*%
G36*
X246062Y279660D02*
X246062Y279660D01*
X242849Y280991D01*
X240391Y283449D01*
X239060Y286662D01*
X239060Y290138D01*
X240391Y293351D01*
X242849Y295809D01*
X246062Y297140D01*
X249538Y297140D01*
X252751Y295809D01*
X255209Y293351D01*
X256540Y290138D01*
X256540Y286662D01*
X255209Y283449D01*
X252751Y280991D01*
X249538Y279660D01*
X246062Y279660D01*
G37*
%LPD*%
%LPC*%
G36*
X93662Y127260D02*
X93662Y127260D01*
X90449Y128591D01*
X87991Y131049D01*
X86660Y134262D01*
X86660Y137738D01*
X87991Y140951D01*
X90449Y143409D01*
X93662Y144740D01*
X97138Y144740D01*
X100351Y143409D01*
X102809Y140951D01*
X104140Y137738D01*
X104140Y134262D01*
X102809Y131049D01*
X100351Y128591D01*
X97138Y127260D01*
X93662Y127260D01*
G37*
%LPD*%
%LPC*%
G36*
X93662Y254260D02*
X93662Y254260D01*
X90449Y255591D01*
X87991Y258049D01*
X86660Y261262D01*
X86660Y264738D01*
X87991Y267951D01*
X90449Y270409D01*
X93662Y271740D01*
X97138Y271740D01*
X100351Y270409D01*
X102809Y267951D01*
X104140Y264738D01*
X104140Y261262D01*
X102809Y258049D01*
X100351Y255591D01*
X97138Y254260D01*
X93662Y254260D01*
G37*
%LPD*%
%LPC*%
G36*
X246062Y127260D02*
X246062Y127260D01*
X242849Y128591D01*
X240391Y131049D01*
X239060Y134262D01*
X239060Y137738D01*
X240391Y140951D01*
X242849Y143409D01*
X246062Y144740D01*
X249538Y144740D01*
X252751Y143409D01*
X255209Y140951D01*
X256540Y137738D01*
X256540Y134262D01*
X255209Y131049D01*
X252751Y128591D01*
X249538Y127260D01*
X246062Y127260D01*
G37*
%LPD*%
%LPC*%
G36*
X93662Y228860D02*
X93662Y228860D01*
X90449Y230191D01*
X87991Y232649D01*
X86660Y235862D01*
X86660Y239338D01*
X87991Y242551D01*
X90449Y245009D01*
X93662Y246340D01*
X97138Y246340D01*
X100351Y245009D01*
X102809Y242551D01*
X104140Y239338D01*
X104140Y235862D01*
X102809Y232649D01*
X100351Y230191D01*
X97138Y228860D01*
X93662Y228860D01*
G37*
%LPD*%
%LPC*%
G36*
X93662Y203460D02*
X93662Y203460D01*
X90449Y204791D01*
X87991Y207249D01*
X86660Y210462D01*
X86660Y213938D01*
X87991Y217151D01*
X90449Y219609D01*
X93662Y220940D01*
X97138Y220940D01*
X100351Y219609D01*
X102809Y217151D01*
X104140Y213938D01*
X104140Y210462D01*
X102809Y207249D01*
X100351Y204791D01*
X97138Y203460D01*
X93662Y203460D01*
G37*
%LPD*%
%LPC*%
G36*
X93662Y101860D02*
X93662Y101860D01*
X90449Y103191D01*
X87991Y105649D01*
X86660Y108862D01*
X86660Y112338D01*
X87991Y115551D01*
X90449Y118009D01*
X93662Y119340D01*
X97138Y119340D01*
X100351Y118009D01*
X102809Y115551D01*
X104140Y112338D01*
X104140Y108862D01*
X102809Y105649D01*
X100351Y103191D01*
X97138Y101860D01*
X93662Y101860D01*
G37*
%LPD*%
%LPC*%
G36*
X246062Y305060D02*
X246062Y305060D01*
X242849Y306391D01*
X240391Y308849D01*
X239060Y312062D01*
X239060Y315538D01*
X240391Y318751D01*
X242849Y321209D01*
X246062Y322540D01*
X249538Y322540D01*
X252751Y321209D01*
X255209Y318751D01*
X256540Y315538D01*
X256540Y312062D01*
X255209Y308849D01*
X252751Y306391D01*
X249538Y305060D01*
X246062Y305060D01*
G37*
%LPD*%
%LPC*%
G36*
X93662Y330460D02*
X93662Y330460D01*
X90449Y331791D01*
X87991Y334249D01*
X86660Y337462D01*
X86660Y340938D01*
X87991Y344151D01*
X90449Y346609D01*
X93662Y347940D01*
X97138Y347940D01*
X100351Y346609D01*
X102809Y344151D01*
X104140Y340938D01*
X104140Y337462D01*
X102809Y334249D01*
X100351Y331791D01*
X97138Y330460D01*
X93662Y330460D01*
G37*
%LPD*%
%LPC*%
G36*
X93662Y76460D02*
X93662Y76460D01*
X90449Y77791D01*
X87991Y80249D01*
X86660Y83462D01*
X86660Y86938D01*
X87991Y90151D01*
X90449Y92609D01*
X93662Y93940D01*
X97138Y93940D01*
X100351Y92609D01*
X102809Y90151D01*
X104140Y86938D01*
X104140Y83462D01*
X102809Y80249D01*
X100351Y77791D01*
X97138Y76460D01*
X93662Y76460D01*
G37*
%LPD*%
%LPC*%
G36*
X93662Y305060D02*
X93662Y305060D01*
X90449Y306391D01*
X87991Y308849D01*
X86660Y312062D01*
X86660Y315538D01*
X87991Y318751D01*
X90449Y321209D01*
X93662Y322540D01*
X97138Y322540D01*
X100351Y321209D01*
X102809Y318751D01*
X104140Y315538D01*
X104140Y312062D01*
X102809Y308849D01*
X100351Y306391D01*
X97138Y305060D01*
X93662Y305060D01*
G37*
%LPD*%
%LPC*%
G36*
X560938Y54549D02*
X560938Y54549D01*
X558053Y55744D01*
X555844Y57953D01*
X554649Y60838D01*
X554649Y63962D01*
X555844Y66847D01*
X558053Y69056D01*
X560938Y70251D01*
X564062Y70251D01*
X566947Y69056D01*
X569156Y66847D01*
X570351Y63962D01*
X570351Y60838D01*
X569156Y57953D01*
X566947Y55744D01*
X564062Y54549D01*
X560938Y54549D01*
G37*
%LPD*%
%LPC*%
G36*
X560938Y154549D02*
X560938Y154549D01*
X558053Y155744D01*
X555844Y157953D01*
X554649Y160838D01*
X554649Y163962D01*
X555844Y166847D01*
X558053Y169056D01*
X560938Y170251D01*
X564062Y170251D01*
X566947Y169056D01*
X569156Y166847D01*
X570351Y163962D01*
X570351Y160838D01*
X569156Y157953D01*
X566947Y155744D01*
X564062Y154549D01*
X560938Y154549D01*
G37*
%LPD*%
%LPC*%
G36*
X340938Y134549D02*
X340938Y134549D01*
X338053Y135744D01*
X335844Y137953D01*
X334649Y140838D01*
X334649Y143962D01*
X335844Y146847D01*
X338053Y149056D01*
X340938Y150251D01*
X344062Y150251D01*
X346947Y149056D01*
X349156Y146847D01*
X350351Y143962D01*
X350351Y140838D01*
X349156Y137953D01*
X346947Y135744D01*
X344062Y134549D01*
X340938Y134549D01*
G37*
%LPD*%
%LPC*%
G36*
X560938Y74549D02*
X560938Y74549D01*
X558053Y75744D01*
X555844Y77953D01*
X554649Y80838D01*
X554649Y83962D01*
X555844Y86847D01*
X558053Y89056D01*
X560938Y90251D01*
X564062Y90251D01*
X566947Y89056D01*
X569156Y86847D01*
X570351Y83962D01*
X570351Y80838D01*
X569156Y77953D01*
X566947Y75744D01*
X564062Y74549D01*
X560938Y74549D01*
G37*
%LPD*%
%LPC*%
G36*
X560938Y234549D02*
X560938Y234549D01*
X558053Y235744D01*
X555844Y237953D01*
X554649Y240838D01*
X554649Y243962D01*
X555844Y246847D01*
X558053Y249056D01*
X560938Y250251D01*
X564062Y250251D01*
X566947Y249056D01*
X569156Y246847D01*
X570351Y243962D01*
X570351Y240838D01*
X569156Y237953D01*
X566947Y235744D01*
X564062Y234549D01*
X560938Y234549D01*
G37*
%LPD*%
%LPC*%
G36*
X340938Y114549D02*
X340938Y114549D01*
X338053Y115744D01*
X335844Y117953D01*
X334649Y120838D01*
X334649Y123962D01*
X335844Y126847D01*
X338053Y129056D01*
X340938Y130251D01*
X344062Y130251D01*
X346947Y129056D01*
X349156Y126847D01*
X350351Y123962D01*
X350351Y120838D01*
X349156Y117953D01*
X346947Y115744D01*
X344062Y114549D01*
X340938Y114549D01*
G37*
%LPD*%
%LPC*%
G36*
X560938Y134549D02*
X560938Y134549D01*
X558053Y135744D01*
X555844Y137953D01*
X554649Y140838D01*
X554649Y143962D01*
X555844Y146847D01*
X558053Y149056D01*
X560938Y150251D01*
X564062Y150251D01*
X566947Y149056D01*
X569156Y146847D01*
X570351Y143962D01*
X570351Y140838D01*
X569156Y137953D01*
X566947Y135744D01*
X564062Y134549D01*
X560938Y134549D01*
G37*
%LPD*%
%LPC*%
G36*
X560938Y214549D02*
X560938Y214549D01*
X558053Y215744D01*
X555844Y217953D01*
X554649Y220838D01*
X554649Y223962D01*
X555844Y226847D01*
X558053Y229056D01*
X560938Y230251D01*
X564062Y230251D01*
X566947Y229056D01*
X569156Y226847D01*
X570351Y223962D01*
X570351Y220838D01*
X569156Y217953D01*
X566947Y215744D01*
X564062Y214549D01*
X560938Y214549D01*
G37*
%LPD*%
%LPC*%
G36*
X560938Y174549D02*
X560938Y174549D01*
X558053Y175744D01*
X555844Y177953D01*
X554649Y180838D01*
X554649Y183962D01*
X555844Y186847D01*
X558053Y189056D01*
X560938Y190251D01*
X564062Y190251D01*
X566947Y189056D01*
X569156Y186847D01*
X570351Y183962D01*
X570351Y180838D01*
X569156Y177953D01*
X566947Y175744D01*
X564062Y174549D01*
X560938Y174549D01*
G37*
%LPD*%
%LPC*%
G36*
X340938Y74549D02*
X340938Y74549D01*
X338053Y75744D01*
X335844Y77953D01*
X334649Y80838D01*
X334649Y83962D01*
X335844Y86847D01*
X338053Y89056D01*
X340938Y90251D01*
X344062Y90251D01*
X346947Y89056D01*
X349156Y86847D01*
X350351Y83962D01*
X350351Y80838D01*
X349156Y77953D01*
X346947Y75744D01*
X344062Y74549D01*
X340938Y74549D01*
G37*
%LPD*%
%LPC*%
G36*
X340938Y174549D02*
X340938Y174549D01*
X338053Y175744D01*
X335844Y177953D01*
X334649Y180838D01*
X334649Y183962D01*
X335844Y186847D01*
X338053Y189056D01*
X340938Y190251D01*
X344062Y190251D01*
X346947Y189056D01*
X349156Y186847D01*
X350351Y183962D01*
X350351Y180838D01*
X349156Y177953D01*
X346947Y175744D01*
X344062Y174549D01*
X340938Y174549D01*
G37*
%LPD*%
%LPC*%
G36*
X560938Y194549D02*
X560938Y194549D01*
X558053Y195744D01*
X555844Y197953D01*
X554649Y200838D01*
X554649Y203962D01*
X555844Y206847D01*
X558053Y209056D01*
X560938Y210251D01*
X564062Y210251D01*
X566947Y209056D01*
X569156Y206847D01*
X570351Y203962D01*
X570351Y200838D01*
X569156Y197953D01*
X566947Y195744D01*
X564062Y194549D01*
X560938Y194549D01*
G37*
%LPD*%
%LPC*%
G36*
X340938Y154549D02*
X340938Y154549D01*
X338053Y155744D01*
X335844Y157953D01*
X334649Y160838D01*
X334649Y163962D01*
X335844Y166847D01*
X338053Y169056D01*
X340938Y170251D01*
X344062Y170251D01*
X346947Y169056D01*
X349156Y166847D01*
X350351Y163962D01*
X350351Y160838D01*
X349156Y157953D01*
X346947Y155744D01*
X344062Y154549D01*
X340938Y154549D01*
G37*
%LPD*%
%LPC*%
G36*
X560938Y114549D02*
X560938Y114549D01*
X558053Y115744D01*
X555844Y117953D01*
X554649Y120838D01*
X554649Y123962D01*
X555844Y126847D01*
X558053Y129056D01*
X560938Y130251D01*
X564062Y130251D01*
X566947Y129056D01*
X569156Y126847D01*
X570351Y123962D01*
X570351Y120838D01*
X569156Y117953D01*
X566947Y115744D01*
X564062Y114549D01*
X560938Y114549D01*
G37*
%LPD*%
%LPC*%
G36*
X560938Y94549D02*
X560938Y94549D01*
X558053Y95744D01*
X555844Y97953D01*
X554649Y100838D01*
X554649Y103962D01*
X555844Y106847D01*
X558053Y109056D01*
X560938Y110251D01*
X564062Y110251D01*
X566947Y109056D01*
X569156Y106847D01*
X570351Y103962D01*
X570351Y100838D01*
X569156Y97953D01*
X566947Y95744D01*
X564062Y94549D01*
X560938Y94549D01*
G37*
%LPD*%
%LPC*%
G36*
X340938Y94549D02*
X340938Y94549D01*
X338053Y95744D01*
X335844Y97953D01*
X334649Y100838D01*
X334649Y103962D01*
X335844Y106847D01*
X338053Y109056D01*
X340938Y110251D01*
X344062Y110251D01*
X346947Y109056D01*
X349156Y106847D01*
X350351Y103962D01*
X350351Y100838D01*
X349156Y97953D01*
X346947Y95744D01*
X344062Y94549D01*
X340938Y94549D01*
G37*
%LPD*%
%LPC*%
G36*
X102539Y505839D02*
X102539Y505839D01*
X102539Y514699D01*
X110295Y514699D01*
X112067Y514418D01*
X113774Y513864D01*
X115372Y513049D01*
X116824Y511994D01*
X118092Y510726D01*
X119147Y509274D01*
X119962Y507676D01*
X120516Y505969D01*
X120537Y505839D01*
X102539Y505839D01*
G37*
%LPD*%
%LPC*%
G36*
X102539Y480439D02*
X102539Y480439D01*
X102539Y489299D01*
X110295Y489299D01*
X112067Y489018D01*
X113774Y488464D01*
X115372Y487649D01*
X116824Y486594D01*
X118092Y485326D01*
X119147Y483874D01*
X119962Y482276D01*
X120516Y480569D01*
X120537Y480439D01*
X102539Y480439D01*
G37*
%LPD*%
%LPC*%
G36*
X79463Y505839D02*
X79463Y505839D01*
X79484Y505969D01*
X80038Y507676D01*
X80853Y509274D01*
X81908Y510726D01*
X83176Y511994D01*
X84628Y513049D01*
X86226Y513864D01*
X87933Y514418D01*
X89705Y514699D01*
X97461Y514699D01*
X97461Y505839D01*
X79463Y505839D01*
G37*
%LPD*%
%LPC*%
G36*
X79463Y480439D02*
X79463Y480439D01*
X79484Y480569D01*
X80038Y482276D01*
X80853Y483874D01*
X81908Y485326D01*
X83176Y486594D01*
X84628Y487649D01*
X86226Y488464D01*
X87933Y489018D01*
X89705Y489299D01*
X97461Y489299D01*
X97461Y480439D01*
X79463Y480439D01*
G37*
%LPD*%
%LPC*%
G36*
X102539Y466501D02*
X102539Y466501D01*
X102539Y475361D01*
X120537Y475361D01*
X120516Y475231D01*
X119962Y473524D01*
X119147Y471926D01*
X118092Y470474D01*
X116824Y469206D01*
X115372Y468151D01*
X113774Y467336D01*
X112067Y466782D01*
X110295Y466501D01*
X102539Y466501D01*
G37*
%LPD*%
%LPC*%
G36*
X102539Y491901D02*
X102539Y491901D01*
X102539Y500761D01*
X120537Y500761D01*
X120516Y500631D01*
X119962Y498924D01*
X119147Y497326D01*
X118092Y495874D01*
X116824Y494606D01*
X115372Y493551D01*
X113774Y492736D01*
X112067Y492182D01*
X110295Y491901D01*
X102539Y491901D01*
G37*
%LPD*%
%LPC*%
G36*
X89705Y491901D02*
X89705Y491901D01*
X87933Y492182D01*
X86226Y492736D01*
X84628Y493551D01*
X83176Y494606D01*
X81908Y495874D01*
X80853Y497326D01*
X80038Y498924D01*
X79484Y500631D01*
X79463Y500761D01*
X97461Y500761D01*
X97461Y491901D01*
X89705Y491901D01*
G37*
%LPD*%
%LPC*%
G36*
X89705Y466501D02*
X89705Y466501D01*
X87933Y466782D01*
X86226Y467336D01*
X84628Y468151D01*
X83176Y469206D01*
X81908Y470474D01*
X80853Y471926D01*
X80038Y473524D01*
X79484Y475231D01*
X79463Y475361D01*
X97461Y475361D01*
X97461Y466501D01*
X89705Y466501D01*
G37*
%LPD*%
%LPC*%
G36*
X400027Y635145D02*
X400027Y635145D01*
X400027Y643745D01*
X400157Y643724D01*
X401864Y643170D01*
X403462Y642355D01*
X404914Y641300D01*
X406182Y640032D01*
X407237Y638580D01*
X408052Y636982D01*
X408606Y635275D01*
X408627Y635145D01*
X400027Y635145D01*
G37*
%LPD*%
%LPC*%
G36*
X400027Y630067D02*
X400027Y630067D01*
X408627Y630067D01*
X408606Y629937D01*
X408052Y628230D01*
X407237Y626632D01*
X406182Y625180D01*
X404914Y623912D01*
X403462Y622857D01*
X401864Y622042D01*
X400157Y621488D01*
X400027Y621467D01*
X400027Y630067D01*
G37*
%LPD*%
%LPC*%
G36*
X386349Y635145D02*
X386349Y635145D01*
X386370Y635275D01*
X386924Y636982D01*
X387739Y638580D01*
X388794Y640032D01*
X390062Y641300D01*
X391514Y642355D01*
X393112Y643170D01*
X394819Y643724D01*
X394949Y643745D01*
X394949Y635145D01*
X386349Y635145D01*
G37*
%LPD*%
%LPC*%
G36*
X394819Y621488D02*
X394819Y621488D01*
X393112Y622042D01*
X391514Y622857D01*
X390062Y623912D01*
X388794Y625180D01*
X387739Y626632D01*
X386924Y628230D01*
X386370Y629937D01*
X386349Y630067D01*
X394949Y630067D01*
X394949Y621467D01*
X394819Y621488D01*
G37*
%LPD*%
%LPC*%
G36*
X250212Y36812D02*
X250212Y36812D01*
X250212Y43331D01*
X251347Y42963D01*
X252643Y42303D01*
X253819Y41448D01*
X254848Y40419D01*
X255703Y39243D01*
X256363Y37947D01*
X256731Y36812D01*
X250212Y36812D01*
G37*
%LPD*%
%LPC*%
G36*
X97812Y62212D02*
X97812Y62212D01*
X97812Y68731D01*
X98947Y68363D01*
X100243Y67703D01*
X101419Y66848D01*
X102448Y65819D01*
X103303Y64643D01*
X103963Y63347D01*
X104331Y62212D01*
X97812Y62212D01*
G37*
%LPD*%
%LPC*%
G36*
X238869Y36812D02*
X238869Y36812D01*
X239237Y37947D01*
X239897Y39243D01*
X240752Y40419D01*
X241781Y41448D01*
X242957Y42303D01*
X244253Y42963D01*
X245388Y43331D01*
X245388Y36812D01*
X238869Y36812D01*
G37*
%LPD*%
%LPC*%
G36*
X86469Y62212D02*
X86469Y62212D01*
X86837Y63347D01*
X87497Y64643D01*
X88352Y65819D01*
X89381Y66848D01*
X90557Y67703D01*
X91853Y68363D01*
X92988Y68731D01*
X92988Y62212D01*
X86469Y62212D01*
G37*
%LPD*%
%LPC*%
G36*
X250212Y31988D02*
X250212Y31988D01*
X256731Y31988D01*
X256363Y30853D01*
X255703Y29557D01*
X254848Y28381D01*
X253819Y27352D01*
X252643Y26497D01*
X251347Y25837D01*
X250212Y25469D01*
X250212Y31988D01*
G37*
%LPD*%
%LPC*%
G36*
X97812Y57388D02*
X97812Y57388D01*
X104331Y57388D01*
X103963Y56253D01*
X103303Y54957D01*
X102448Y53781D01*
X101419Y52752D01*
X100243Y51897D01*
X98947Y51237D01*
X97812Y50869D01*
X97812Y57388D01*
G37*
%LPD*%
%LPC*%
G36*
X244253Y25837D02*
X244253Y25837D01*
X242957Y26497D01*
X241781Y27352D01*
X240752Y28381D01*
X239897Y29557D01*
X239237Y30853D01*
X238869Y31988D01*
X245388Y31988D01*
X245388Y25469D01*
X244253Y25837D01*
G37*
%LPD*%
%LPC*%
G36*
X91853Y51237D02*
X91853Y51237D01*
X90557Y51897D01*
X89381Y52752D01*
X88352Y53781D01*
X87497Y54957D01*
X86837Y56253D01*
X86469Y57388D01*
X92988Y57388D01*
X92988Y50869D01*
X91853Y51237D01*
G37*
%LPD*%
%LPC*%
G36*
X344499Y64399D02*
X344499Y64399D01*
X344499Y70517D01*
X344936Y70430D01*
X346456Y69800D01*
X347823Y68886D01*
X348986Y67723D01*
X349900Y66356D01*
X350530Y64836D01*
X350617Y64399D01*
X344499Y64399D01*
G37*
%LPD*%
%LPC*%
G36*
X334383Y64399D02*
X334383Y64399D01*
X334470Y64836D01*
X335100Y66356D01*
X336014Y67723D01*
X337177Y68886D01*
X338544Y69800D01*
X340064Y70430D01*
X340501Y70517D01*
X340501Y64399D01*
X334383Y64399D01*
G37*
%LPD*%
%LPC*%
G36*
X366269Y390731D02*
X366269Y390731D01*
X369846Y390731D01*
X369809Y390541D01*
X369432Y389631D01*
X368884Y388812D01*
X368188Y388116D01*
X367463Y387631D01*
X367384Y387563D01*
X367299Y387502D01*
X367264Y387459D01*
X367223Y387423D01*
X367177Y387357D01*
X367111Y387365D01*
X367022Y387352D01*
X366932Y387349D01*
X366865Y387330D01*
X366796Y387320D01*
X366644Y387268D01*
X366459Y387191D01*
X366269Y387154D01*
X366269Y390731D01*
G37*
%LPD*%
%LPC*%
G36*
X251269Y388269D02*
X251269Y388269D01*
X251269Y391846D01*
X251459Y391809D01*
X252369Y391432D01*
X253188Y390884D01*
X253884Y390188D01*
X254432Y389369D01*
X254809Y388459D01*
X254846Y388269D01*
X251269Y388269D01*
G37*
%LPD*%
%LPC*%
G36*
X411269Y341269D02*
X411269Y341269D01*
X411269Y344846D01*
X411459Y344809D01*
X412369Y344432D01*
X413188Y343884D01*
X413884Y343188D01*
X414432Y342369D01*
X414809Y341459D01*
X414846Y341269D01*
X411269Y341269D01*
G37*
%LPD*%
%LPC*%
G36*
X241269Y661269D02*
X241269Y661269D01*
X241269Y664846D01*
X241459Y664809D01*
X242369Y664432D01*
X243188Y663884D01*
X243884Y663188D01*
X244432Y662369D01*
X244809Y661459D01*
X244846Y661269D01*
X241269Y661269D01*
G37*
%LPD*%
%LPC*%
G36*
X421269Y681269D02*
X421269Y681269D01*
X421269Y684846D01*
X421459Y684809D01*
X422369Y684432D01*
X423188Y683884D01*
X423884Y683188D01*
X424432Y682369D01*
X424809Y681459D01*
X424846Y681269D01*
X421269Y681269D01*
G37*
%LPD*%
%LPC*%
G36*
X45714Y72219D02*
X45714Y72219D01*
X45714Y75796D01*
X45904Y75759D01*
X46814Y75382D01*
X47633Y74834D01*
X48329Y74138D01*
X48877Y73319D01*
X49254Y72409D01*
X49291Y72219D01*
X45714Y72219D01*
G37*
%LPD*%
%LPC*%
G36*
X581269Y321269D02*
X581269Y321269D01*
X581269Y324846D01*
X581459Y324809D01*
X582369Y324432D01*
X583188Y323884D01*
X583884Y323188D01*
X584432Y322369D01*
X584809Y321459D01*
X584846Y321269D01*
X581269Y321269D01*
G37*
%LPD*%
%LPC*%
G36*
X421269Y81269D02*
X421269Y81269D01*
X421269Y84846D01*
X421459Y84809D01*
X422369Y84432D01*
X423188Y83884D01*
X423884Y83188D01*
X424432Y82369D01*
X424809Y81459D01*
X424846Y81269D01*
X421269Y81269D01*
G37*
%LPD*%
%LPC*%
G36*
X221269Y81269D02*
X221269Y81269D01*
X221269Y84846D01*
X221459Y84809D01*
X222369Y84432D01*
X223188Y83884D01*
X223884Y83188D01*
X224432Y82369D01*
X224809Y81459D01*
X224846Y81269D01*
X221269Y81269D01*
G37*
%LPD*%
%LPC*%
G36*
X366269Y393269D02*
X366269Y393269D01*
X366269Y396846D01*
X366459Y396809D01*
X367369Y396432D01*
X368188Y395884D01*
X368884Y395188D01*
X369432Y394369D01*
X369809Y393459D01*
X369846Y393269D01*
X366269Y393269D01*
G37*
%LPD*%
%LPC*%
G36*
X501269Y81269D02*
X501269Y81269D01*
X501269Y84846D01*
X501459Y84809D01*
X502369Y84432D01*
X503188Y83884D01*
X503884Y83188D01*
X504432Y82369D01*
X504809Y81459D01*
X504846Y81269D01*
X501269Y81269D01*
G37*
%LPD*%
%LPC*%
G36*
X641269Y621269D02*
X641269Y621269D01*
X641269Y624846D01*
X641459Y624809D01*
X642369Y624432D01*
X643188Y623884D01*
X643884Y623188D01*
X644432Y622369D01*
X644809Y621459D01*
X644846Y621269D01*
X641269Y621269D01*
G37*
%LPD*%
%LPC*%
G36*
X149269Y94269D02*
X149269Y94269D01*
X149269Y97846D01*
X149459Y97809D01*
X150369Y97432D01*
X151188Y96884D01*
X151884Y96188D01*
X152432Y95369D01*
X152809Y94459D01*
X152846Y94269D01*
X149269Y94269D01*
G37*
%LPD*%
%LPC*%
G36*
X41269Y581269D02*
X41269Y581269D01*
X41269Y584846D01*
X41459Y584809D01*
X42369Y584432D01*
X43188Y583884D01*
X43884Y583188D01*
X44432Y582369D01*
X44809Y581459D01*
X44846Y581269D01*
X41269Y581269D01*
G37*
%LPD*%
%LPC*%
G36*
X481269Y561269D02*
X481269Y561269D01*
X481269Y564846D01*
X481459Y564809D01*
X482369Y564432D01*
X483188Y563884D01*
X483884Y563188D01*
X484432Y562369D01*
X484809Y561459D01*
X484846Y561269D01*
X481269Y561269D01*
G37*
%LPD*%
%LPC*%
G36*
X101269Y401269D02*
X101269Y401269D01*
X101269Y404846D01*
X101459Y404809D01*
X102369Y404432D01*
X103188Y403884D01*
X103884Y403188D01*
X104432Y402369D01*
X104809Y401459D01*
X104846Y401269D01*
X101269Y401269D01*
G37*
%LPD*%
%LPC*%
G36*
X137269Y160269D02*
X137269Y160269D01*
X137269Y163846D01*
X137459Y163809D01*
X138369Y163432D01*
X139188Y162884D01*
X139884Y162188D01*
X140432Y161369D01*
X140809Y160459D01*
X140846Y160269D01*
X137269Y160269D01*
G37*
%LPD*%
%LPC*%
G36*
X41269Y481269D02*
X41269Y481269D01*
X41269Y484846D01*
X41459Y484809D01*
X42369Y484432D01*
X43188Y483884D01*
X43884Y483188D01*
X44432Y482369D01*
X44809Y481459D01*
X44846Y481269D01*
X41269Y481269D01*
G37*
%LPD*%
%LPC*%
G36*
X361269Y451269D02*
X361269Y451269D01*
X361269Y454846D01*
X361459Y454809D01*
X362369Y454432D01*
X363188Y453884D01*
X363884Y453188D01*
X364432Y452369D01*
X364809Y451459D01*
X364846Y451269D01*
X361269Y451269D01*
G37*
%LPD*%
%LPC*%
G36*
X501269Y221269D02*
X501269Y221269D01*
X501269Y224846D01*
X501459Y224809D01*
X502369Y224432D01*
X503188Y223884D01*
X503884Y223188D01*
X504432Y222369D01*
X504809Y221459D01*
X504846Y221269D01*
X501269Y221269D01*
G37*
%LPD*%
%LPC*%
G36*
X471269Y451269D02*
X471269Y451269D01*
X471269Y454846D01*
X471459Y454809D01*
X472369Y454432D01*
X473188Y453884D01*
X473884Y453188D01*
X474432Y452369D01*
X474809Y451459D01*
X474846Y451269D01*
X471269Y451269D01*
G37*
%LPD*%
%LPC*%
G36*
X421269Y221269D02*
X421269Y221269D01*
X421269Y224846D01*
X421459Y224809D01*
X422369Y224432D01*
X423188Y223884D01*
X423884Y223188D01*
X424432Y222369D01*
X424809Y221459D01*
X424846Y221269D01*
X421269Y221269D01*
G37*
%LPD*%
%LPC*%
G36*
X495154Y221269D02*
X495154Y221269D01*
X495191Y221459D01*
X495568Y222369D01*
X496116Y223188D01*
X496812Y223884D01*
X497631Y224432D01*
X498541Y224809D01*
X498731Y224846D01*
X498731Y221269D01*
X495154Y221269D01*
G37*
%LPD*%
%LPC*%
G36*
X415154Y221269D02*
X415154Y221269D01*
X415191Y221459D01*
X415568Y222369D01*
X416116Y223188D01*
X416812Y223884D01*
X417631Y224432D01*
X418541Y224809D01*
X418731Y224846D01*
X418731Y221269D01*
X415154Y221269D01*
G37*
%LPD*%
%LPC*%
G36*
X355154Y451269D02*
X355154Y451269D01*
X355191Y451459D01*
X355568Y452369D01*
X356116Y453188D01*
X356812Y453884D01*
X357631Y454432D01*
X358541Y454809D01*
X358731Y454846D01*
X358731Y451269D01*
X355154Y451269D01*
G37*
%LPD*%
%LPC*%
G36*
X361269Y448731D02*
X361269Y448731D01*
X364846Y448731D01*
X364809Y448541D01*
X364432Y447631D01*
X363884Y446812D01*
X363188Y446116D01*
X362369Y445568D01*
X361459Y445191D01*
X361269Y445154D01*
X361269Y448731D01*
G37*
%LPD*%
%LPC*%
G36*
X251269Y385731D02*
X251269Y385731D01*
X254846Y385731D01*
X254809Y385541D01*
X254432Y384631D01*
X253884Y383812D01*
X253188Y383116D01*
X252369Y382568D01*
X251459Y382191D01*
X251269Y382154D01*
X251269Y385731D01*
G37*
%LPD*%
%LPC*%
G36*
X501269Y218731D02*
X501269Y218731D01*
X504846Y218731D01*
X504809Y218541D01*
X504432Y217631D01*
X503884Y216812D01*
X503188Y216116D01*
X502369Y215568D01*
X501459Y215191D01*
X501269Y215154D01*
X501269Y218731D01*
G37*
%LPD*%
%LPC*%
G36*
X415154Y681269D02*
X415154Y681269D01*
X415191Y681459D01*
X415568Y682369D01*
X416116Y683188D01*
X416812Y683884D01*
X417631Y684432D01*
X418541Y684809D01*
X418731Y684846D01*
X418731Y681269D01*
X415154Y681269D01*
G37*
%LPD*%
%LPC*%
G36*
X421269Y678731D02*
X421269Y678731D01*
X424846Y678731D01*
X424809Y678541D01*
X424432Y677631D01*
X423884Y676812D01*
X423188Y676116D01*
X422369Y675568D01*
X421459Y675191D01*
X421269Y675154D01*
X421269Y678731D01*
G37*
%LPD*%
%LPC*%
G36*
X421269Y218731D02*
X421269Y218731D01*
X424846Y218731D01*
X424809Y218541D01*
X424432Y217631D01*
X423884Y216812D01*
X423188Y216116D01*
X422369Y215568D01*
X421459Y215191D01*
X421269Y215154D01*
X421269Y218731D01*
G37*
%LPD*%
%LPC*%
G36*
X235154Y661269D02*
X235154Y661269D01*
X235191Y661459D01*
X235568Y662369D01*
X236116Y663188D01*
X236812Y663884D01*
X237631Y664432D01*
X238541Y664809D01*
X238731Y664846D01*
X238731Y661269D01*
X235154Y661269D01*
G37*
%LPD*%
%LPC*%
G36*
X41269Y478731D02*
X41269Y478731D01*
X44846Y478731D01*
X44809Y478541D01*
X44432Y477631D01*
X43884Y476812D01*
X43188Y476116D01*
X42369Y475568D01*
X41459Y475191D01*
X41269Y475154D01*
X41269Y478731D01*
G37*
%LPD*%
%LPC*%
G36*
X35154Y481269D02*
X35154Y481269D01*
X35191Y481459D01*
X35568Y482369D01*
X36116Y483188D01*
X36812Y483884D01*
X37631Y484432D01*
X38541Y484809D01*
X38731Y484846D01*
X38731Y481269D01*
X35154Y481269D01*
G37*
%LPD*%
%LPC*%
G36*
X241269Y658731D02*
X241269Y658731D01*
X244846Y658731D01*
X244809Y658541D01*
X244432Y657631D01*
X243884Y656812D01*
X243188Y656116D01*
X242369Y655568D01*
X241459Y655191D01*
X241269Y655154D01*
X241269Y658731D01*
G37*
%LPD*%
%LPC*%
G36*
X245154Y388269D02*
X245154Y388269D01*
X245191Y388459D01*
X245568Y389369D01*
X246116Y390188D01*
X246812Y390884D01*
X247631Y391432D01*
X248541Y391809D01*
X248731Y391846D01*
X248731Y388269D01*
X245154Y388269D01*
G37*
%LPD*%
%LPC*%
G36*
X45714Y69681D02*
X45714Y69681D01*
X49291Y69681D01*
X49254Y69491D01*
X48877Y68581D01*
X48329Y67762D01*
X47633Y67066D01*
X46814Y66518D01*
X45904Y66141D01*
X45714Y66104D01*
X45714Y69681D01*
G37*
%LPD*%
%LPC*%
G36*
X471269Y448731D02*
X471269Y448731D01*
X474846Y448731D01*
X474809Y448541D01*
X474432Y447631D01*
X473884Y446812D01*
X473188Y446116D01*
X472369Y445568D01*
X471459Y445191D01*
X471269Y445154D01*
X471269Y448731D01*
G37*
%LPD*%
%LPC*%
G36*
X131154Y160269D02*
X131154Y160269D01*
X131191Y160459D01*
X131568Y161369D01*
X132116Y162188D01*
X132812Y162884D01*
X133631Y163432D01*
X134541Y163809D01*
X134731Y163846D01*
X134731Y160269D01*
X131154Y160269D01*
G37*
%LPD*%
%LPC*%
G36*
X635154Y621269D02*
X635154Y621269D01*
X635191Y621459D01*
X635568Y622369D01*
X636116Y623188D01*
X636812Y623884D01*
X637631Y624432D01*
X638541Y624809D01*
X638731Y624846D01*
X638731Y621269D01*
X635154Y621269D01*
G37*
%LPD*%
%LPC*%
G36*
X137269Y157731D02*
X137269Y157731D01*
X140846Y157731D01*
X140809Y157541D01*
X140432Y156631D01*
X139884Y155812D01*
X139188Y155116D01*
X138369Y154568D01*
X137459Y154191D01*
X137269Y154154D01*
X137269Y157731D01*
G37*
%LPD*%
%LPC*%
G36*
X481269Y558731D02*
X481269Y558731D01*
X484846Y558731D01*
X484809Y558541D01*
X484432Y557631D01*
X483884Y556812D01*
X483188Y556116D01*
X482369Y555568D01*
X481459Y555191D01*
X481269Y555154D01*
X481269Y558731D01*
G37*
%LPD*%
%LPC*%
G36*
X475154Y561269D02*
X475154Y561269D01*
X475191Y561459D01*
X475568Y562369D01*
X476116Y563188D01*
X476812Y563884D01*
X477631Y564432D01*
X478541Y564809D01*
X478731Y564846D01*
X478731Y561269D01*
X475154Y561269D01*
G37*
%LPD*%
%LPC*%
G36*
X95154Y401269D02*
X95154Y401269D01*
X95191Y401459D01*
X95568Y402369D01*
X96116Y403188D01*
X96812Y403884D01*
X97631Y404432D01*
X98541Y404809D01*
X98731Y404846D01*
X98731Y401269D01*
X95154Y401269D01*
G37*
%LPD*%
%LPC*%
G36*
X405154Y341269D02*
X405154Y341269D01*
X405191Y341459D01*
X405568Y342369D01*
X406116Y343188D01*
X406812Y343884D01*
X407631Y344432D01*
X408541Y344809D01*
X408731Y344846D01*
X408731Y341269D01*
X405154Y341269D01*
G37*
%LPD*%
%LPC*%
G36*
X215154Y571269D02*
X215154Y571269D01*
X215191Y571459D01*
X215568Y572369D01*
X216116Y573188D01*
X216812Y573884D01*
X217631Y574432D01*
X218541Y574809D01*
X218731Y574846D01*
X218731Y571269D01*
X215154Y571269D01*
G37*
%LPD*%
%LPC*%
G36*
X39599Y72219D02*
X39599Y72219D01*
X39636Y72409D01*
X40013Y73319D01*
X40561Y74138D01*
X41257Y74834D01*
X42076Y75382D01*
X42986Y75759D01*
X43176Y75796D01*
X43176Y72219D01*
X39599Y72219D01*
G37*
%LPD*%
%LPC*%
G36*
X41269Y578731D02*
X41269Y578731D01*
X44846Y578731D01*
X44809Y578541D01*
X44432Y577631D01*
X43884Y576812D01*
X43188Y576116D01*
X42369Y575568D01*
X41459Y575191D01*
X41269Y575154D01*
X41269Y578731D01*
G37*
%LPD*%
%LPC*%
G36*
X35154Y581269D02*
X35154Y581269D01*
X35191Y581459D01*
X35568Y582369D01*
X36116Y583188D01*
X36812Y583884D01*
X37631Y584432D01*
X38541Y584809D01*
X38731Y584846D01*
X38731Y581269D01*
X35154Y581269D01*
G37*
%LPD*%
%LPC*%
G36*
X101269Y398731D02*
X101269Y398731D01*
X104846Y398731D01*
X104809Y398541D01*
X104432Y397631D01*
X103884Y396812D01*
X103188Y396116D01*
X102369Y395568D01*
X101459Y395191D01*
X101269Y395154D01*
X101269Y398731D01*
G37*
%LPD*%
%LPC*%
G36*
X411269Y338731D02*
X411269Y338731D01*
X414846Y338731D01*
X414809Y338541D01*
X414432Y337631D01*
X413884Y336812D01*
X413188Y336116D01*
X412369Y335568D01*
X411459Y335191D01*
X411269Y335154D01*
X411269Y338731D01*
G37*
%LPD*%
%LPC*%
G36*
X421269Y78731D02*
X421269Y78731D01*
X424846Y78731D01*
X424809Y78541D01*
X424432Y77631D01*
X423884Y76812D01*
X423188Y76116D01*
X422369Y75568D01*
X421459Y75191D01*
X421269Y75154D01*
X421269Y78731D01*
G37*
%LPD*%
%LPC*%
G36*
X143154Y94269D02*
X143154Y94269D01*
X143191Y94459D01*
X143568Y95369D01*
X144116Y96188D01*
X144812Y96884D01*
X145631Y97432D01*
X146541Y97809D01*
X146731Y97846D01*
X146731Y94269D01*
X143154Y94269D01*
G37*
%LPD*%
%LPC*%
G36*
X501269Y78731D02*
X501269Y78731D01*
X504846Y78731D01*
X504809Y78541D01*
X504432Y77631D01*
X503884Y76812D01*
X503188Y76116D01*
X502369Y75568D01*
X501459Y75191D01*
X501269Y75154D01*
X501269Y78731D01*
G37*
%LPD*%
%LPC*%
G36*
X149269Y91731D02*
X149269Y91731D01*
X152846Y91731D01*
X152809Y91541D01*
X152432Y90631D01*
X151884Y89812D01*
X151188Y89116D01*
X150369Y88568D01*
X149459Y88191D01*
X149269Y88154D01*
X149269Y91731D01*
G37*
%LPD*%
%LPC*%
G36*
X221269Y78731D02*
X221269Y78731D01*
X224846Y78731D01*
X224809Y78541D01*
X224432Y77631D01*
X223884Y76812D01*
X223188Y76116D01*
X222369Y75568D01*
X221459Y75191D01*
X221269Y75154D01*
X221269Y78731D01*
G37*
%LPD*%
%LPC*%
G36*
X641269Y618731D02*
X641269Y618731D01*
X644846Y618731D01*
X644809Y618541D01*
X644432Y617631D01*
X643884Y616812D01*
X643188Y616116D01*
X642369Y615568D01*
X641459Y615191D01*
X641269Y615154D01*
X641269Y618731D01*
G37*
%LPD*%
%LPC*%
G36*
X575154Y321269D02*
X575154Y321269D01*
X575191Y321459D01*
X575568Y322369D01*
X576116Y323188D01*
X576812Y323884D01*
X577631Y324432D01*
X578541Y324809D01*
X578731Y324846D01*
X578731Y321269D01*
X575154Y321269D01*
G37*
%LPD*%
%LPC*%
G36*
X215154Y81269D02*
X215154Y81269D01*
X215191Y81459D01*
X215568Y82369D01*
X216116Y83188D01*
X216812Y83884D01*
X217631Y84432D01*
X218541Y84809D01*
X218731Y84846D01*
X218731Y81269D01*
X215154Y81269D01*
G37*
%LPD*%
%LPC*%
G36*
X581269Y318731D02*
X581269Y318731D01*
X584846Y318731D01*
X584809Y318541D01*
X584432Y317631D01*
X583884Y316812D01*
X583188Y316116D01*
X582369Y315568D01*
X581459Y315191D01*
X581269Y315154D01*
X581269Y318731D01*
G37*
%LPD*%
%LPC*%
G36*
X495154Y81269D02*
X495154Y81269D01*
X495191Y81459D01*
X495568Y82369D01*
X496116Y83188D01*
X496812Y83884D01*
X497631Y84432D01*
X498541Y84809D01*
X498731Y84846D01*
X498731Y81269D01*
X495154Y81269D01*
G37*
%LPD*%
%LPC*%
G36*
X415154Y81269D02*
X415154Y81269D01*
X415191Y81459D01*
X415568Y82369D01*
X416116Y83188D01*
X416812Y83884D01*
X417631Y84432D01*
X418541Y84809D01*
X418731Y84846D01*
X418731Y81269D01*
X415154Y81269D01*
G37*
%LPD*%
%LPC*%
G36*
X360154Y393269D02*
X360154Y393269D01*
X360191Y393459D01*
X360568Y394369D01*
X361116Y395188D01*
X361812Y395884D01*
X362631Y396432D01*
X363541Y396809D01*
X363731Y396846D01*
X363731Y393269D01*
X360154Y393269D01*
G37*
%LPD*%
%LPC*%
G36*
X578541Y315191D02*
X578541Y315191D01*
X577631Y315568D01*
X576812Y316116D01*
X576116Y316812D01*
X575568Y317631D01*
X575191Y318541D01*
X575154Y318731D01*
X578731Y318731D01*
X578731Y315154D01*
X578541Y315191D01*
G37*
%LPD*%
%LPC*%
G36*
X418541Y75191D02*
X418541Y75191D01*
X417631Y75568D01*
X416812Y76116D01*
X416116Y76812D01*
X415568Y77631D01*
X415191Y78541D01*
X415154Y78731D01*
X418731Y78731D01*
X418731Y75154D01*
X418541Y75191D01*
G37*
%LPD*%
%LPC*%
G36*
X146541Y88191D02*
X146541Y88191D01*
X145631Y88568D01*
X144812Y89116D01*
X144116Y89812D01*
X143568Y90631D01*
X143191Y91541D01*
X143154Y91731D01*
X146731Y91731D01*
X146731Y88154D01*
X146541Y88191D01*
G37*
%LPD*%
%LPC*%
G36*
X218541Y75191D02*
X218541Y75191D01*
X217631Y75568D01*
X216812Y76116D01*
X216116Y76812D01*
X215568Y77631D01*
X215191Y78541D01*
X215154Y78731D01*
X218731Y78731D01*
X218731Y75154D01*
X218541Y75191D01*
G37*
%LPD*%
%LPC*%
G36*
X638541Y615191D02*
X638541Y615191D01*
X637631Y615568D01*
X636812Y616116D01*
X636116Y616812D01*
X635568Y617631D01*
X635191Y618541D01*
X635154Y618731D01*
X638731Y618731D01*
X638731Y615154D01*
X638541Y615191D01*
G37*
%LPD*%
%LPC*%
G36*
X498541Y75191D02*
X498541Y75191D01*
X497631Y75568D01*
X496812Y76116D01*
X496116Y76812D01*
X495568Y77631D01*
X495191Y78541D01*
X495154Y78731D01*
X498731Y78731D01*
X498731Y75154D01*
X498541Y75191D01*
G37*
%LPD*%
%LPC*%
G36*
X98541Y395191D02*
X98541Y395191D01*
X97631Y395568D01*
X96812Y396116D01*
X96116Y396812D01*
X95568Y397631D01*
X95191Y398541D01*
X95154Y398731D01*
X98731Y398731D01*
X98731Y395154D01*
X98541Y395191D01*
G37*
%LPD*%
%LPC*%
G36*
X248541Y382191D02*
X248541Y382191D01*
X247631Y382568D01*
X246812Y383116D01*
X246116Y383812D01*
X245568Y384631D01*
X245191Y385541D01*
X245154Y385731D01*
X248731Y385731D01*
X248731Y382154D01*
X248541Y382191D01*
G37*
%LPD*%
%LPC*%
G36*
X38541Y575191D02*
X38541Y575191D01*
X37631Y575568D01*
X36812Y576116D01*
X36116Y576812D01*
X35568Y577631D01*
X35191Y578541D01*
X35154Y578731D01*
X38731Y578731D01*
X38731Y575154D01*
X38541Y575191D01*
G37*
%LPD*%
%LPC*%
G36*
X408541Y335191D02*
X408541Y335191D01*
X407631Y335568D01*
X406812Y336116D01*
X406116Y336812D01*
X405568Y337631D01*
X405191Y338541D01*
X405154Y338731D01*
X408731Y338731D01*
X408731Y335154D01*
X408541Y335191D01*
G37*
%LPD*%
%LPC*%
G36*
X218541Y565191D02*
X218541Y565191D01*
X217631Y565568D01*
X216812Y566116D01*
X216116Y566812D01*
X215568Y567631D01*
X215191Y568541D01*
X215154Y568731D01*
X218731Y568731D01*
X218731Y565154D01*
X218541Y565191D01*
G37*
%LPD*%
%LPC*%
G36*
X134541Y154191D02*
X134541Y154191D01*
X133631Y154568D01*
X132812Y155116D01*
X132116Y155812D01*
X131568Y156631D01*
X131191Y157541D01*
X131154Y157731D01*
X134731Y157731D01*
X134731Y154154D01*
X134541Y154191D01*
G37*
%LPD*%
%LPC*%
G36*
X478541Y555191D02*
X478541Y555191D01*
X477631Y555568D01*
X476812Y556116D01*
X476116Y556812D01*
X475568Y557631D01*
X475191Y558541D01*
X475154Y558731D01*
X478731Y558731D01*
X478731Y555154D01*
X478541Y555191D01*
G37*
%LPD*%
%LPC*%
G36*
X42986Y66141D02*
X42986Y66141D01*
X42076Y66518D01*
X41257Y67066D01*
X40561Y67762D01*
X40013Y68581D01*
X39636Y69491D01*
X39599Y69681D01*
X43176Y69681D01*
X43176Y66104D01*
X42986Y66141D01*
G37*
%LPD*%
%LPC*%
G36*
X498541Y215191D02*
X498541Y215191D01*
X497631Y215568D01*
X496812Y216116D01*
X496116Y216812D01*
X495568Y217631D01*
X495191Y218541D01*
X495154Y218731D01*
X498731Y218731D01*
X498731Y215154D01*
X498541Y215191D01*
G37*
%LPD*%
%LPC*%
G36*
X238541Y655191D02*
X238541Y655191D01*
X237631Y655568D01*
X236812Y656116D01*
X236116Y656812D01*
X235568Y657631D01*
X235191Y658541D01*
X235154Y658731D01*
X238731Y658731D01*
X238731Y655154D01*
X238541Y655191D01*
G37*
%LPD*%
%LPC*%
G36*
X418541Y215191D02*
X418541Y215191D01*
X417631Y215568D01*
X416812Y216116D01*
X416116Y216812D01*
X415568Y217631D01*
X415191Y218541D01*
X415154Y218731D01*
X418731Y218731D01*
X418731Y215154D01*
X418541Y215191D01*
G37*
%LPD*%
%LPC*%
G36*
X358541Y445191D02*
X358541Y445191D01*
X357631Y445568D01*
X356812Y446116D01*
X356116Y446812D01*
X355568Y447631D01*
X355191Y448541D01*
X355154Y448731D01*
X358731Y448731D01*
X358731Y445154D01*
X358541Y445191D01*
G37*
%LPD*%
%LPC*%
G36*
X38541Y475191D02*
X38541Y475191D01*
X37631Y475568D01*
X36812Y476116D01*
X36116Y476812D01*
X35568Y477631D01*
X35191Y478541D01*
X35154Y478731D01*
X38731Y478731D01*
X38731Y475154D01*
X38541Y475191D01*
G37*
%LPD*%
%LPC*%
G36*
X363541Y387191D02*
X363541Y387191D01*
X362631Y387568D01*
X361812Y388116D01*
X361116Y388812D01*
X360568Y389631D01*
X360191Y390541D01*
X360154Y390731D01*
X363731Y390731D01*
X363731Y387154D01*
X363541Y387191D01*
G37*
%LPD*%
%LPC*%
G36*
X418541Y675191D02*
X418541Y675191D01*
X417631Y675568D01*
X416812Y676116D01*
X416116Y676812D01*
X415568Y677631D01*
X415191Y678541D01*
X415154Y678731D01*
X418731Y678731D01*
X418731Y675154D01*
X418541Y675191D01*
G37*
%LPD*%
%LPC*%
G36*
X99999Y503299D02*
X99999Y503299D01*
X99999Y503301D01*
X100001Y503301D01*
X100001Y503299D01*
X99999Y503299D01*
G37*
%LPD*%
%LPC*%
G36*
X397487Y632605D02*
X397487Y632605D01*
X397487Y632607D01*
X397489Y632607D01*
X397489Y632605D01*
X397487Y632605D01*
G37*
%LPD*%
%LPC*%
G36*
X99999Y477899D02*
X99999Y477899D01*
X99999Y477901D01*
X100001Y477901D01*
X100001Y477899D01*
X99999Y477899D01*
G37*
%LPD*%
%LPC*%
G36*
X532383Y592999D02*
X532383Y592999D01*
X532383Y593001D01*
X532385Y593001D01*
X532385Y592999D01*
X532383Y592999D01*
G37*
%LPD*%
D10*
X247800Y34400D03*
X247800Y59800D03*
X247800Y85200D03*
X247800Y110600D03*
X247800Y136000D03*
X247800Y161400D03*
X247800Y186800D03*
X247800Y212200D03*
X247800Y237600D03*
X247800Y263000D03*
X247800Y288400D03*
X247800Y313800D03*
X247800Y339200D03*
X247800Y364600D03*
X95400Y364600D03*
X95400Y339200D03*
X95400Y313800D03*
X95400Y288400D03*
X95400Y263000D03*
X95400Y237600D03*
X95400Y212200D03*
X95400Y186800D03*
X95400Y161400D03*
X95400Y136000D03*
X95400Y110600D03*
X95400Y85200D03*
X95400Y59800D03*
X95400Y34400D03*
D11*
X342500Y242400D03*
X342500Y222400D03*
X342500Y202400D03*
X342500Y182400D03*
X342500Y162400D03*
X342500Y142400D03*
X342500Y122400D03*
X342500Y102400D03*
X342500Y82400D03*
X342500Y62400D03*
X562500Y62400D03*
X562500Y82400D03*
X562500Y102400D03*
X562500Y122400D03*
X562500Y142400D03*
X562500Y162400D03*
X562500Y182400D03*
X562500Y202400D03*
X562500Y222400D03*
X562500Y242400D03*
D12*
X670000Y470000D03*
X670000Y495400D03*
X670000Y520800D03*
X670000Y546200D03*
X670000Y571600D03*
X670000Y597000D03*
X670000Y275000D03*
X670000Y300400D03*
X670000Y325800D03*
X670000Y351200D03*
X670000Y376600D03*
X670000Y402000D03*
X670000Y90000D03*
X670000Y115400D03*
X670000Y140800D03*
X670000Y166200D03*
X670000Y191600D03*
X670000Y217000D03*
D13*
X109398Y452500D02*
X90602Y452500D01*
X90602Y477900D02*
X109398Y477900D01*
X109398Y503300D02*
X90602Y503300D01*
X90602Y528700D02*
X109398Y528700D01*
D14*
X570000Y561222D03*
D15*
X569746Y634430D03*
X532384Y593000D03*
D12*
X397488Y632606D03*
X462512Y632606D03*
X397488Y587394D03*
X462512Y587394D03*
D16*
X40000Y580000D03*
X220000Y570000D03*
X240000Y660000D03*
X420000Y680000D03*
X480000Y560000D03*
X640000Y620000D03*
X40000Y480000D03*
X100000Y400000D03*
X250000Y387000D03*
X420000Y280000D03*
X500000Y290000D03*
X580000Y320000D03*
X500000Y220000D03*
X420000Y220000D03*
X420000Y80000D03*
X500000Y80000D03*
X148000Y93000D03*
X220000Y80000D03*
X136000Y159000D03*
X44445Y70950D03*
X410000Y340000D03*
X470000Y450000D03*
X365000Y392000D03*
X360000Y450000D03*
D17*
X275000Y366400D02*
X247800Y339200D01*
X275000Y366400D02*
X275000Y507000D01*
X276000Y508000D01*
D16*
X276000Y508000D03*
X405000Y518000D03*
D17*
X401000Y514000D01*
X401000Y488000D01*
D16*
X401000Y488000D03*
X390000Y454000D03*
X390000Y396000D03*
D18*
X390000Y454000D01*
D16*
X390000Y320000D03*
D18*
X390000Y396000D01*
D16*
X490000Y452000D03*
D18*
X490000Y394000D01*
D16*
X490000Y394000D03*
D18*
X490000Y320000D01*
D16*
X490000Y320000D03*
X350000Y492000D03*
D17*
X392000Y534000D01*
X657800Y534000D02*
X670000Y546200D01*
X657800Y534000D02*
X392000Y534000D01*
D16*
X338000Y320000D03*
D17*
X338000Y332000D01*
X360000Y354000D02*
X360000Y370806D01*
X370000Y380806D01*
D16*
X370000Y380806D03*
D17*
X360000Y354000D02*
X338000Y332000D01*
D16*
X335000Y339000D03*
D17*
X349000Y353000D01*
X349000Y397000D01*
X350000Y397000D01*
D16*
X350000Y397000D03*
X353000Y309000D03*
D17*
X365000Y297000D01*
X641200Y297000D01*
X670000Y325800D01*
D16*
X621000Y520000D03*
D17*
X621000Y471000D01*
X620000Y470000D01*
D16*
X620000Y470000D03*
X621000Y320000D03*
D17*
X626800Y325800D01*
X670000Y325800D01*
X598000Y212800D02*
X670000Y140800D01*
D16*
X598000Y281000D03*
D17*
X598000Y212800D01*
X95400Y364600D02*
X50000Y319200D01*
X50000Y210000D01*
X85440Y174560D01*
X101608Y174560D01*
X226528Y49640D01*
X473000Y162000D02*
X473000Y263000D01*
X474000Y263000D01*
D16*
X474000Y263000D03*
D17*
X360640Y49640D02*
X226528Y49640D01*
X360640Y49640D02*
X473000Y162000D01*
D16*
X497000Y308576D03*
D17*
X506000Y317576D01*
D16*
X506000Y368000D03*
D17*
X506000Y317576D01*
D16*
X253000Y431000D03*
D17*
X253000Y517000D01*
X252000Y517000D01*
D16*
X252000Y517000D03*
X479000Y517386D03*
D17*
X479000Y507000D01*
D16*
X452000Y442000D03*
D17*
X456576Y484576D02*
X479000Y507000D01*
X456576Y484576D02*
X456576Y446576D01*
X452000Y442000D01*
D16*
X238000Y431000D03*
D17*
X238000Y519000D02*
X253000Y534000D01*
X238000Y519000D02*
X238000Y431000D01*
D16*
X253000Y534000D03*
X459000Y523000D03*
D17*
X459000Y505000D01*
X449000Y495000D01*
X449000Y494000D01*
D16*
X449000Y494000D03*
X461000Y390000D03*
D17*
X461000Y471000D01*
X514000Y524000D01*
X592000Y524000D01*
X598000Y518000D01*
D16*
X598000Y518000D03*
X451000Y392000D03*
D17*
X451000Y330000D01*
X479000Y302000D01*
X592000Y302000D01*
X666600Y376600D02*
X670000Y376600D01*
X666600Y376600D02*
X592000Y302000D01*
D16*
X450000Y461000D03*
D17*
X435000Y446000D01*
X435000Y309576D01*
D16*
X435000Y309576D03*
X610000Y219000D03*
D17*
X637400Y191600D01*
X670000Y191600D01*
D16*
X344150Y267850D03*
D17*
X349150Y272850D02*
X565850Y272850D01*
X349150Y272850D02*
X344150Y267850D01*
X565850Y272850D02*
X581000Y288000D01*
D16*
X581000Y288000D03*
X602000Y329000D03*
D17*
X602000Y377000D01*
X598000Y381000D01*
X597000Y381000D01*
D16*
X597000Y381000D03*
X347000Y280000D03*
D17*
X353576Y286576D02*
X488724Y286576D01*
X353576Y286576D02*
X347000Y280000D01*
X488724Y286576D02*
X492300Y283000D01*
X553000Y283000D01*
X558000Y288000D01*
D16*
X558000Y288000D03*
X574000Y332000D03*
D17*
X574000Y364000D01*
X547000Y391000D02*
X547000Y431000D01*
X555000Y439000D01*
X558000Y439000D01*
X558000Y438000D01*
D16*
X558000Y438000D03*
D17*
X547000Y391000D02*
X574000Y364000D01*
D16*
X227000Y391000D03*
D17*
X226576Y391424D01*
X226576Y594576D01*
X260000Y628000D01*
X362000Y628000D01*
X394000Y660000D02*
X601000Y660000D01*
X612000Y649000D01*
X612000Y561000D02*
X593000Y542000D01*
D16*
X593000Y542000D03*
X564000Y517386D03*
D17*
X545000Y498386D01*
D16*
X545000Y493000D03*
D17*
X394000Y660000D02*
X362000Y628000D01*
X612000Y649000D02*
X612000Y561000D01*
X545000Y498386D02*
X545000Y493000D01*
D16*
X539000Y388000D03*
D17*
X539000Y475000D01*
X579000Y515000D01*
X579000Y517386D01*
D16*
X579000Y517386D03*
X558000Y391000D03*
D17*
X659000Y391000D01*
X670000Y402000D01*
D16*
X559000Y450000D03*
D17*
X665000Y450000D01*
X687000Y428000D01*
X687000Y262000D01*
X670000Y245000D02*
X670000Y217000D01*
X670000Y245000D02*
X687000Y262000D01*
X670000Y495400D02*
X666600Y495400D01*
X633000Y529000D01*
X403000Y529000D01*
X348000Y474000D02*
X348000Y434000D01*
X347000Y434000D01*
D16*
X347000Y434000D03*
D17*
X348000Y474000D02*
X403000Y529000D01*
X587000Y198400D02*
X670000Y115400D01*
X587000Y283000D02*
X594936Y290936D01*
X659883Y290936D01*
X669347Y300400D01*
X670000Y300400D01*
X587000Y283000D02*
X587000Y198400D01*
X647000Y472400D02*
X670000Y495400D01*
X647000Y472400D02*
X647000Y465000D01*
D16*
X647000Y465000D03*
D17*
X322000Y134000D02*
X247800Y59800D01*
X322000Y201900D02*
X342500Y222400D01*
X322000Y201900D02*
X322000Y134000D01*
X313000Y150400D02*
X247800Y85200D01*
X313000Y150400D02*
X313000Y229000D01*
X342000Y258000D01*
X350000Y258000D01*
X359000Y249000D01*
X359000Y218900D02*
X342500Y202400D01*
X359000Y218900D02*
X359000Y249000D01*
D16*
X264000Y558000D03*
D17*
X264000Y380800D01*
X247800Y364600D01*
X126590Y616590D02*
X127000Y617000D01*
D16*
X127000Y617000D03*
D17*
X126590Y192410D02*
X183000Y136000D01*
D16*
X183000Y136000D03*
D17*
X126590Y192410D02*
X126590Y616590D01*
X176000Y233200D02*
X247800Y161400D01*
X176000Y233200D02*
X176000Y617000D01*
X178000Y617000D01*
D16*
X178000Y617000D03*
D17*
X198000Y236600D02*
X247800Y186800D01*
X198000Y236600D02*
X198000Y616000D01*
X197000Y617000D01*
D16*
X197000Y617000D03*
D17*
X157000Y201400D02*
X247800Y110600D01*
X157000Y201400D02*
X157000Y569000D01*
D16*
X157000Y569000D03*
D17*
X328000Y292400D02*
X247800Y212200D01*
X328000Y292400D02*
X328000Y617000D01*
X327000Y618000D01*
D16*
X327000Y618000D03*
D17*
X308000Y297800D02*
X247800Y237600D01*
X308000Y297800D02*
X308000Y618000D01*
D16*
X308000Y618000D03*
D17*
X287000Y302200D02*
X247800Y263000D01*
X287000Y302200D02*
X287000Y570000D01*
D16*
X287000Y570000D03*
M02*
