M48
;GenerationSoftware,Autodesk,EAGLE,9.6.2*%
;CreationDate,2021-06-23T15:04:51Z*%
FMAT,2
ICI,OFF
METRIC,TZ,000.000
T7C0.350
T6C0.813
T5C0.965
T4C1.000
T3C1.016
T2C1.700
T1C3.200
%
G90
M71
T1
X3000Y138000
X47000Y138000
X47000Y12000
X3000Y12000
X47000Y26000
X47000Y38000
X47000Y124000
X47000Y112000
T2
X17410Y14802
X12410Y14802
T3
X8000Y80040
X8000Y77500
X8000Y95080
X8000Y92540
X8000Y90000
X8000Y107460
X8000Y110000
X8000Y130080
X8000Y127540
X8000Y125000
X8000Y42540
X8000Y45080
X8000Y40000
X8000Y57580
X8000Y55040
X8000Y52500
X8000Y82580
X8000Y65000
X26460Y89310
X26460Y91850
X26460Y94390
X26460Y96930
X26460Y99470
X26460Y102010
X8000Y67540
X8000Y70080
T4
X9410Y4802
X20410Y4802
X5350Y27220
X5350Y22720
X7850Y21470
X7850Y28470
T5
X41780Y24360
X26540Y9120
X26540Y24360
X26540Y26900
X26540Y29440
X26540Y31980
X26540Y59920
X26540Y57380
X26540Y54840
X26540Y52300
X26540Y62460
X41780Y62460
X41780Y59920
X41780Y57380
X41780Y54840
X41780Y52300
X26540Y39600
X26540Y42140
X26540Y44680
X26540Y47220
X26540Y49760
X41780Y39600
X26540Y4040
X26540Y6580
X26540Y11660
X26540Y14200
X26540Y16740
X26540Y19280
X41780Y4040
X41780Y6580
X41780Y9120
X41780Y11660
X41780Y14200
X41780Y16740
X41780Y19280
X41780Y21820
X26540Y21820
X41780Y26900
X41780Y29440
X41780Y31980
X41780Y34520
X41780Y37060
X41780Y42140
X41780Y44680
X41780Y47220
X41780Y49760
X26540Y37060
X26540Y34520
T6
X13730Y49300
X16270Y49300
X13730Y26569
X16270Y26569
T7
X29500Y33000
X3500Y88000
X3500Y75500
X3500Y63500
X4000Y50500
X4500Y59000
X4000Y37000
X5400Y83000
X23800Y44200
X5500Y71500
X30100Y74700
X30000Y34200
X32000Y73000
X31000Y34000
X8000Y118000
X26500Y119000
X25100Y117700
X24500Y113500
X14000Y130500
X14000Y125000
X14000Y120000
X14000Y115000
X15500Y111500
X28000Y25600
X39400Y23700
X28000Y23100
X26400Y78400
X24800Y79100
X41900Y68100
X32000Y70000
X36000Y80000
X41900Y88300
X34000Y92000
X34000Y98000
X11500Y29000
X6158Y46500
X28500Y35000
X29500Y31000
X42400Y112000
X43640Y123280
X38000Y120000
X32000Y126000
X28000Y132000
X20000Y136000
X8000Y136000
X12000Y128000
X18000Y104000
X8000Y102000
X10000Y98000
X12000Y96000
X12000Y90000
X12000Y86000
X12000Y76000
X8000Y74000
X10000Y60000
X12000Y62000
X10000Y48000
X12000Y46000
X32000Y54000
X36000Y6000
X32000Y14000
X4000Y4000
M30