M48
;GenerationSoftware,Autodesk,EAGLE,9.6.2*%
;CreationDate,2021-06-23T10:25:48Z*%
FMAT,2
ICI,OFF
METRIC,TZ,000.000
T7C0.350
T6C0.800
T5C0.965
T4C1.016
T3C1.118
T2C2.997
T1C3.200
%
G90
M71
T1
X3000Y67000
X72000Y67000
X72000Y3000
X3000Y3000
X57000Y56122
T2
X53238Y59300
X56975Y63443
T3
X10000Y52870
X10000Y50330
X10000Y47790
X10000Y45250
T4
X67000Y21700
X67000Y19160
X67000Y16620
X67000Y14080
X67000Y11540
X67000Y9000
X67000Y40200
X67000Y37660
X67000Y35120
X67000Y32580
X67000Y30040
X67000Y27500
X67000Y59700
X67000Y57160
X67000Y54620
X67000Y52080
X67000Y49540
X67000Y47000
X39749Y58739
X46251Y63261
X39749Y63261
X46251Y58739
T5
X24780Y5980
X24780Y8520
X24780Y11060
X24780Y13600
X24780Y16140
X24780Y18680
X24780Y21220
X24780Y3440
X24780Y23760
X24780Y26300
X24780Y28840
X24780Y31380
X24780Y33920
X24780Y36460
X9540Y36460
X9540Y33920
X9540Y3440
X9540Y5980
X9540Y8520
X9540Y11060
X9540Y13600
X9540Y16140
X9540Y18680
X9540Y21220
X9540Y23760
X9540Y26300
X9540Y28840
X9540Y31380
T6
X34250Y24240
X34250Y22240
X34250Y20240
X34250Y18240
X34250Y16240
X34250Y14240
X34250Y12240
X34250Y10240
X34250Y6240
X56250Y6240
X56250Y8240
X56250Y10240
X56250Y12240
X56250Y14240
X56250Y16240
X56250Y18240
X56250Y20240
X56250Y22240
X56250Y24240
X34250Y8240
T7
X17800Y61700
X19700Y61700
X15700Y56900
X4000Y58000
X30800Y61800
X28700Y57000
X18300Y13600
X12700Y61700
X26400Y55800
X64700Y46500
X34700Y43400
X55900Y45000
X55800Y39100
X57900Y51739
X53900Y38800
X54500Y49300
X56400Y51739
X59300Y54200
X22700Y39100
X55800Y43800
X57400Y33200
X55800Y28800
X34700Y28000
X59700Y38100
X60200Y32900
X58100Y28800
X34415Y26785
X61000Y21900
X43500Y30958
X45000Y46100
X45100Y39200
X59800Y51800
X46100Y39000
X44900Y49400
X45900Y52300
X25300Y53400
X23800Y43100
X45200Y44200
X47900Y51739
X25200Y51700
X25300Y43100
X50600Y36800
X49700Y30858
X47400Y26300
X59800Y28100
X62100Y32000
X62000Y47000
X62100Y52000
X35300Y30900
X35000Y39700
X33500Y33900
X37000Y38081
X33800Y32000
X35000Y49200
X49000Y32000
X49000Y39400
X49000Y45200
X39000Y32000
X39000Y39600
X39000Y45400
X40100Y48800
X40500Y51800
X27600Y50800
X36000Y45000
X36500Y39200
X47000Y45000
X41000Y34000
X4445Y7095
X13600Y15900
X22000Y8000
X14800Y9300
X50000Y8000
X42000Y8000
X42000Y22000
X50000Y22000
X58000Y32000
X50000Y29000
X42000Y28000
X25000Y38700
X10000Y40000
X4000Y48000
X64000Y62000
X48000Y56000
X42000Y68000
X24000Y66000
X22000Y57000
X32700Y61800
M30