G04 EAGLE Gerber RS-274X export*
G75*
%MOMM*%
%FSLAX34Y34*%
%LPD*%
%IN*%
%IPPOS*%
%AMOC8*
5,1,8,0,0,1.08239X$1,22.5*%
G01*
%ADD10C,0.254000*%


D10*
X0Y0D02*
X500000Y0D01*
X500000Y1500000D01*
X0Y1500000D01*
X0Y0D01*
X486000Y119476D02*
X485932Y118431D01*
X485795Y117392D01*
X485590Y116365D01*
X485319Y115353D01*
X484983Y114361D01*
X484582Y113393D01*
X484118Y112454D01*
X483595Y111546D01*
X483013Y110675D01*
X482375Y109844D01*
X481684Y109057D01*
X480943Y108316D01*
X480156Y107625D01*
X479325Y106988D01*
X478454Y106406D01*
X477546Y105882D01*
X476607Y105418D01*
X475639Y105017D01*
X474647Y104681D01*
X473635Y104410D01*
X472608Y104205D01*
X471569Y104069D01*
X470524Y104000D01*
X469476Y104000D01*
X468431Y104069D01*
X467392Y104205D01*
X466365Y104410D01*
X465353Y104681D01*
X464361Y105017D01*
X463393Y105418D01*
X462454Y105882D01*
X461546Y106406D01*
X460675Y106988D01*
X459844Y107625D01*
X459057Y108316D01*
X458316Y109057D01*
X457625Y109844D01*
X456988Y110675D01*
X456406Y111546D01*
X455882Y112454D01*
X455418Y113393D01*
X455017Y114361D01*
X454681Y115353D01*
X454410Y116365D01*
X454205Y117392D01*
X454069Y118431D01*
X454000Y119476D01*
X454000Y120524D01*
X454069Y121569D01*
X454205Y122608D01*
X454410Y123635D01*
X454681Y124647D01*
X455017Y125639D01*
X455418Y126607D01*
X455882Y127546D01*
X456406Y128454D01*
X456988Y129325D01*
X457625Y130156D01*
X458316Y130943D01*
X459057Y131684D01*
X459844Y132375D01*
X460675Y133013D01*
X461546Y133595D01*
X462454Y134118D01*
X463393Y134582D01*
X464361Y134983D01*
X465353Y135319D01*
X466365Y135590D01*
X467392Y135795D01*
X468431Y135932D01*
X469476Y136000D01*
X470524Y136000D01*
X471569Y135932D01*
X472608Y135795D01*
X473635Y135590D01*
X474647Y135319D01*
X475639Y134983D01*
X476607Y134582D01*
X477546Y134118D01*
X478454Y133595D01*
X479325Y133013D01*
X480156Y132375D01*
X480943Y131684D01*
X481684Y130943D01*
X482375Y130156D01*
X483013Y129325D01*
X483595Y128454D01*
X484118Y127546D01*
X484582Y126607D01*
X484983Y125639D01*
X485319Y124647D01*
X485590Y123635D01*
X485795Y122608D01*
X485932Y121569D01*
X486000Y120524D01*
X486000Y119476D01*
X486000Y1379476D02*
X485932Y1378431D01*
X485795Y1377392D01*
X485590Y1376365D01*
X485319Y1375353D01*
X484983Y1374361D01*
X484582Y1373393D01*
X484118Y1372454D01*
X483595Y1371546D01*
X483013Y1370675D01*
X482375Y1369844D01*
X481684Y1369057D01*
X480943Y1368316D01*
X480156Y1367625D01*
X479325Y1366988D01*
X478454Y1366406D01*
X477546Y1365882D01*
X476607Y1365418D01*
X475639Y1365017D01*
X474647Y1364681D01*
X473635Y1364410D01*
X472608Y1364205D01*
X471569Y1364069D01*
X470524Y1364000D01*
X469476Y1364000D01*
X468431Y1364069D01*
X467392Y1364205D01*
X466365Y1364410D01*
X465353Y1364681D01*
X464361Y1365017D01*
X463393Y1365418D01*
X462454Y1365882D01*
X461546Y1366406D01*
X460675Y1366988D01*
X459844Y1367625D01*
X459057Y1368316D01*
X458316Y1369057D01*
X457625Y1369844D01*
X456988Y1370675D01*
X456406Y1371546D01*
X455882Y1372454D01*
X455418Y1373393D01*
X455017Y1374361D01*
X454681Y1375353D01*
X454410Y1376365D01*
X454205Y1377392D01*
X454069Y1378431D01*
X454000Y1379476D01*
X454000Y1380524D01*
X454069Y1381569D01*
X454205Y1382608D01*
X454410Y1383635D01*
X454681Y1384647D01*
X455017Y1385639D01*
X455418Y1386607D01*
X455882Y1387546D01*
X456406Y1388454D01*
X456988Y1389325D01*
X457625Y1390156D01*
X458316Y1390943D01*
X459057Y1391684D01*
X459844Y1392375D01*
X460675Y1393013D01*
X461546Y1393595D01*
X462454Y1394118D01*
X463393Y1394582D01*
X464361Y1394983D01*
X465353Y1395319D01*
X466365Y1395590D01*
X467392Y1395795D01*
X468431Y1395932D01*
X469476Y1396000D01*
X470524Y1396000D01*
X471569Y1395932D01*
X472608Y1395795D01*
X473635Y1395590D01*
X474647Y1395319D01*
X475639Y1394983D01*
X476607Y1394582D01*
X477546Y1394118D01*
X478454Y1393595D01*
X479325Y1393013D01*
X480156Y1392375D01*
X480943Y1391684D01*
X481684Y1390943D01*
X482375Y1390156D01*
X483013Y1389325D01*
X483595Y1388454D01*
X484118Y1387546D01*
X484582Y1386607D01*
X484983Y1385639D01*
X485319Y1384647D01*
X485590Y1383635D01*
X485795Y1382608D01*
X485932Y1381569D01*
X486000Y1380524D01*
X486000Y1379476D01*
X46000Y1379476D02*
X45932Y1378431D01*
X45795Y1377392D01*
X45590Y1376365D01*
X45319Y1375353D01*
X44983Y1374361D01*
X44582Y1373393D01*
X44118Y1372454D01*
X43595Y1371546D01*
X43013Y1370675D01*
X42375Y1369844D01*
X41684Y1369057D01*
X40943Y1368316D01*
X40156Y1367625D01*
X39325Y1366988D01*
X38454Y1366406D01*
X37546Y1365882D01*
X36607Y1365418D01*
X35639Y1365017D01*
X34647Y1364681D01*
X33635Y1364410D01*
X32608Y1364205D01*
X31569Y1364069D01*
X30524Y1364000D01*
X29476Y1364000D01*
X28431Y1364069D01*
X27392Y1364205D01*
X26365Y1364410D01*
X25353Y1364681D01*
X24361Y1365017D01*
X23393Y1365418D01*
X22454Y1365882D01*
X21546Y1366406D01*
X20675Y1366988D01*
X19844Y1367625D01*
X19057Y1368316D01*
X18316Y1369057D01*
X17625Y1369844D01*
X16988Y1370675D01*
X16406Y1371546D01*
X15882Y1372454D01*
X15418Y1373393D01*
X15017Y1374361D01*
X14681Y1375353D01*
X14410Y1376365D01*
X14205Y1377392D01*
X14069Y1378431D01*
X14000Y1379476D01*
X14000Y1380524D01*
X14069Y1381569D01*
X14205Y1382608D01*
X14410Y1383635D01*
X14681Y1384647D01*
X15017Y1385639D01*
X15418Y1386607D01*
X15882Y1387546D01*
X16406Y1388454D01*
X16988Y1389325D01*
X17625Y1390156D01*
X18316Y1390943D01*
X19057Y1391684D01*
X19844Y1392375D01*
X20675Y1393013D01*
X21546Y1393595D01*
X22454Y1394118D01*
X23393Y1394582D01*
X24361Y1394983D01*
X25353Y1395319D01*
X26365Y1395590D01*
X27392Y1395795D01*
X28431Y1395932D01*
X29476Y1396000D01*
X30524Y1396000D01*
X31569Y1395932D01*
X32608Y1395795D01*
X33635Y1395590D01*
X34647Y1395319D01*
X35639Y1394983D01*
X36607Y1394582D01*
X37546Y1394118D01*
X38454Y1393595D01*
X39325Y1393013D01*
X40156Y1392375D01*
X40943Y1391684D01*
X41684Y1390943D01*
X42375Y1390156D01*
X43013Y1389325D01*
X43595Y1388454D01*
X44118Y1387546D01*
X44582Y1386607D01*
X44983Y1385639D01*
X45319Y1384647D01*
X45590Y1383635D01*
X45795Y1382608D01*
X45932Y1381569D01*
X46000Y1380524D01*
X46000Y1379476D01*
X46000Y119476D02*
X45932Y118431D01*
X45795Y117392D01*
X45590Y116365D01*
X45319Y115353D01*
X44983Y114361D01*
X44582Y113393D01*
X44118Y112454D01*
X43595Y111546D01*
X43013Y110675D01*
X42375Y109844D01*
X41684Y109057D01*
X40943Y108316D01*
X40156Y107625D01*
X39325Y106988D01*
X38454Y106406D01*
X37546Y105882D01*
X36607Y105418D01*
X35639Y105017D01*
X34647Y104681D01*
X33635Y104410D01*
X32608Y104205D01*
X31569Y104069D01*
X30524Y104000D01*
X29476Y104000D01*
X28431Y104069D01*
X27392Y104205D01*
X26365Y104410D01*
X25353Y104681D01*
X24361Y105017D01*
X23393Y105418D01*
X22454Y105882D01*
X21546Y106406D01*
X20675Y106988D01*
X19844Y107625D01*
X19057Y108316D01*
X18316Y109057D01*
X17625Y109844D01*
X16988Y110675D01*
X16406Y111546D01*
X15882Y112454D01*
X15418Y113393D01*
X15017Y114361D01*
X14681Y115353D01*
X14410Y116365D01*
X14205Y117392D01*
X14069Y118431D01*
X14000Y119476D01*
X14000Y120524D01*
X14069Y121569D01*
X14205Y122608D01*
X14410Y123635D01*
X14681Y124647D01*
X15017Y125639D01*
X15418Y126607D01*
X15882Y127546D01*
X16406Y128454D01*
X16988Y129325D01*
X17625Y130156D01*
X18316Y130943D01*
X19057Y131684D01*
X19844Y132375D01*
X20675Y133013D01*
X21546Y133595D01*
X22454Y134118D01*
X23393Y134582D01*
X24361Y134983D01*
X25353Y135319D01*
X26365Y135590D01*
X27392Y135795D01*
X28431Y135932D01*
X29476Y136000D01*
X30524Y136000D01*
X31569Y135932D01*
X32608Y135795D01*
X33635Y135590D01*
X34647Y135319D01*
X35639Y134983D01*
X36607Y134582D01*
X37546Y134118D01*
X38454Y133595D01*
X39325Y133013D01*
X40156Y132375D01*
X40943Y131684D01*
X41684Y130943D01*
X42375Y130156D01*
X43013Y129325D01*
X43595Y128454D01*
X44118Y127546D01*
X44582Y126607D01*
X44983Y125639D01*
X45319Y124647D01*
X45590Y123635D01*
X45795Y122608D01*
X45932Y121569D01*
X46000Y120524D01*
X46000Y119476D01*
X46000Y1239476D02*
X45932Y1238431D01*
X45795Y1237392D01*
X45590Y1236365D01*
X45319Y1235353D01*
X44983Y1234361D01*
X44582Y1233393D01*
X44118Y1232454D01*
X43595Y1231546D01*
X43013Y1230675D01*
X42375Y1229844D01*
X41684Y1229057D01*
X40943Y1228316D01*
X40156Y1227625D01*
X39325Y1226988D01*
X38454Y1226406D01*
X37546Y1225882D01*
X36607Y1225418D01*
X35639Y1225017D01*
X34647Y1224681D01*
X33635Y1224410D01*
X32608Y1224205D01*
X31569Y1224069D01*
X30524Y1224000D01*
X29476Y1224000D01*
X28431Y1224069D01*
X27392Y1224205D01*
X26365Y1224410D01*
X25353Y1224681D01*
X24361Y1225017D01*
X23393Y1225418D01*
X22454Y1225882D01*
X21546Y1226406D01*
X20675Y1226988D01*
X19844Y1227625D01*
X19057Y1228316D01*
X18316Y1229057D01*
X17625Y1229844D01*
X16988Y1230675D01*
X16406Y1231546D01*
X15882Y1232454D01*
X15418Y1233393D01*
X15017Y1234361D01*
X14681Y1235353D01*
X14410Y1236365D01*
X14205Y1237392D01*
X14069Y1238431D01*
X14000Y1239476D01*
X14000Y1240524D01*
X14069Y1241569D01*
X14205Y1242608D01*
X14410Y1243635D01*
X14681Y1244647D01*
X15017Y1245639D01*
X15418Y1246607D01*
X15882Y1247546D01*
X16406Y1248454D01*
X16988Y1249325D01*
X17625Y1250156D01*
X18316Y1250943D01*
X19057Y1251684D01*
X19844Y1252375D01*
X20675Y1253013D01*
X21546Y1253595D01*
X22454Y1254118D01*
X23393Y1254582D01*
X24361Y1254983D01*
X25353Y1255319D01*
X26365Y1255590D01*
X27392Y1255795D01*
X28431Y1255932D01*
X29476Y1256000D01*
X30524Y1256000D01*
X31569Y1255932D01*
X32608Y1255795D01*
X33635Y1255590D01*
X34647Y1255319D01*
X35639Y1254983D01*
X36607Y1254582D01*
X37546Y1254118D01*
X38454Y1253595D01*
X39325Y1253013D01*
X40156Y1252375D01*
X40943Y1251684D01*
X41684Y1250943D01*
X42375Y1250156D01*
X43013Y1249325D01*
X43595Y1248454D01*
X44118Y1247546D01*
X44582Y1246607D01*
X44983Y1245639D01*
X45319Y1244647D01*
X45590Y1243635D01*
X45795Y1242608D01*
X45932Y1241569D01*
X46000Y1240524D01*
X46000Y1239476D01*
X46000Y1119476D02*
X45932Y1118431D01*
X45795Y1117392D01*
X45590Y1116365D01*
X45319Y1115353D01*
X44983Y1114361D01*
X44582Y1113393D01*
X44118Y1112454D01*
X43595Y1111546D01*
X43013Y1110675D01*
X42375Y1109844D01*
X41684Y1109057D01*
X40943Y1108316D01*
X40156Y1107625D01*
X39325Y1106988D01*
X38454Y1106406D01*
X37546Y1105882D01*
X36607Y1105418D01*
X35639Y1105017D01*
X34647Y1104681D01*
X33635Y1104410D01*
X32608Y1104205D01*
X31569Y1104069D01*
X30524Y1104000D01*
X29476Y1104000D01*
X28431Y1104069D01*
X27392Y1104205D01*
X26365Y1104410D01*
X25353Y1104681D01*
X24361Y1105017D01*
X23393Y1105418D01*
X22454Y1105882D01*
X21546Y1106406D01*
X20675Y1106988D01*
X19844Y1107625D01*
X19057Y1108316D01*
X18316Y1109057D01*
X17625Y1109844D01*
X16988Y1110675D01*
X16406Y1111546D01*
X15882Y1112454D01*
X15418Y1113393D01*
X15017Y1114361D01*
X14681Y1115353D01*
X14410Y1116365D01*
X14205Y1117392D01*
X14069Y1118431D01*
X14000Y1119476D01*
X14000Y1120524D01*
X14069Y1121569D01*
X14205Y1122608D01*
X14410Y1123635D01*
X14681Y1124647D01*
X15017Y1125639D01*
X15418Y1126607D01*
X15882Y1127546D01*
X16406Y1128454D01*
X16988Y1129325D01*
X17625Y1130156D01*
X18316Y1130943D01*
X19057Y1131684D01*
X19844Y1132375D01*
X20675Y1133013D01*
X21546Y1133595D01*
X22454Y1134118D01*
X23393Y1134582D01*
X24361Y1134983D01*
X25353Y1135319D01*
X26365Y1135590D01*
X27392Y1135795D01*
X28431Y1135932D01*
X29476Y1136000D01*
X30524Y1136000D01*
X31569Y1135932D01*
X32608Y1135795D01*
X33635Y1135590D01*
X34647Y1135319D01*
X35639Y1134983D01*
X36607Y1134582D01*
X37546Y1134118D01*
X38454Y1133595D01*
X39325Y1133013D01*
X40156Y1132375D01*
X40943Y1131684D01*
X41684Y1130943D01*
X42375Y1130156D01*
X43013Y1129325D01*
X43595Y1128454D01*
X44118Y1127546D01*
X44582Y1126607D01*
X44983Y1125639D01*
X45319Y1124647D01*
X45590Y1123635D01*
X45795Y1122608D01*
X45932Y1121569D01*
X46000Y1120524D01*
X46000Y1119476D01*
X46000Y259476D02*
X45932Y258431D01*
X45795Y257392D01*
X45590Y256365D01*
X45319Y255353D01*
X44983Y254361D01*
X44582Y253393D01*
X44118Y252454D01*
X43595Y251546D01*
X43013Y250675D01*
X42375Y249844D01*
X41684Y249057D01*
X40943Y248316D01*
X40156Y247625D01*
X39325Y246988D01*
X38454Y246406D01*
X37546Y245882D01*
X36607Y245418D01*
X35639Y245017D01*
X34647Y244681D01*
X33635Y244410D01*
X32608Y244205D01*
X31569Y244069D01*
X30524Y244000D01*
X29476Y244000D01*
X28431Y244069D01*
X27392Y244205D01*
X26365Y244410D01*
X25353Y244681D01*
X24361Y245017D01*
X23393Y245418D01*
X22454Y245882D01*
X21546Y246406D01*
X20675Y246988D01*
X19844Y247625D01*
X19057Y248316D01*
X18316Y249057D01*
X17625Y249844D01*
X16988Y250675D01*
X16406Y251546D01*
X15882Y252454D01*
X15418Y253393D01*
X15017Y254361D01*
X14681Y255353D01*
X14410Y256365D01*
X14205Y257392D01*
X14069Y258431D01*
X14000Y259476D01*
X14000Y260524D01*
X14069Y261569D01*
X14205Y262608D01*
X14410Y263635D01*
X14681Y264647D01*
X15017Y265639D01*
X15418Y266607D01*
X15882Y267546D01*
X16406Y268454D01*
X16988Y269325D01*
X17625Y270156D01*
X18316Y270943D01*
X19057Y271684D01*
X19844Y272375D01*
X20675Y273013D01*
X21546Y273595D01*
X22454Y274118D01*
X23393Y274582D01*
X24361Y274983D01*
X25353Y275319D01*
X26365Y275590D01*
X27392Y275795D01*
X28431Y275932D01*
X29476Y276000D01*
X30524Y276000D01*
X31569Y275932D01*
X32608Y275795D01*
X33635Y275590D01*
X34647Y275319D01*
X35639Y274983D01*
X36607Y274582D01*
X37546Y274118D01*
X38454Y273595D01*
X39325Y273013D01*
X40156Y272375D01*
X40943Y271684D01*
X41684Y270943D01*
X42375Y270156D01*
X43013Y269325D01*
X43595Y268454D01*
X44118Y267546D01*
X44582Y266607D01*
X44983Y265639D01*
X45319Y264647D01*
X45590Y263635D01*
X45795Y262608D01*
X45932Y261569D01*
X46000Y260524D01*
X46000Y259476D01*
X46000Y379476D02*
X45932Y378431D01*
X45795Y377392D01*
X45590Y376365D01*
X45319Y375353D01*
X44983Y374361D01*
X44582Y373393D01*
X44118Y372454D01*
X43595Y371546D01*
X43013Y370675D01*
X42375Y369844D01*
X41684Y369057D01*
X40943Y368316D01*
X40156Y367625D01*
X39325Y366988D01*
X38454Y366406D01*
X37546Y365882D01*
X36607Y365418D01*
X35639Y365017D01*
X34647Y364681D01*
X33635Y364410D01*
X32608Y364205D01*
X31569Y364069D01*
X30524Y364000D01*
X29476Y364000D01*
X28431Y364069D01*
X27392Y364205D01*
X26365Y364410D01*
X25353Y364681D01*
X24361Y365017D01*
X23393Y365418D01*
X22454Y365882D01*
X21546Y366406D01*
X20675Y366988D01*
X19844Y367625D01*
X19057Y368316D01*
X18316Y369057D01*
X17625Y369844D01*
X16988Y370675D01*
X16406Y371546D01*
X15882Y372454D01*
X15418Y373393D01*
X15017Y374361D01*
X14681Y375353D01*
X14410Y376365D01*
X14205Y377392D01*
X14069Y378431D01*
X14000Y379476D01*
X14000Y380524D01*
X14069Y381569D01*
X14205Y382608D01*
X14410Y383635D01*
X14681Y384647D01*
X15017Y385639D01*
X15418Y386607D01*
X15882Y387546D01*
X16406Y388454D01*
X16988Y389325D01*
X17625Y390156D01*
X18316Y390943D01*
X19057Y391684D01*
X19844Y392375D01*
X20675Y393013D01*
X21546Y393595D01*
X22454Y394118D01*
X23393Y394582D01*
X24361Y394983D01*
X25353Y395319D01*
X26365Y395590D01*
X27392Y395795D01*
X28431Y395932D01*
X29476Y396000D01*
X30524Y396000D01*
X31569Y395932D01*
X32608Y395795D01*
X33635Y395590D01*
X34647Y395319D01*
X35639Y394983D01*
X36607Y394582D01*
X37546Y394118D01*
X38454Y393595D01*
X39325Y393013D01*
X40156Y392375D01*
X40943Y391684D01*
X41684Y390943D01*
X42375Y390156D01*
X43013Y389325D01*
X43595Y388454D01*
X44118Y387546D01*
X44582Y386607D01*
X44983Y385639D01*
X45319Y384647D01*
X45590Y383635D01*
X45795Y382608D01*
X45932Y381569D01*
X46000Y380524D01*
X46000Y379476D01*
M02*
