G04 EAGLE Gerber RS-274X export*
G75*
%MOMM*%
%FSLAX34Y34*%
%LPD*%
%IN*%
%IPPOS*%
%AMOC8*
5,1,8,0,0,1.08239X$1,22.5*%
G01*
%ADD10C,0.254000*%


D10*
X0Y0D02*
X500000Y0D01*
X500000Y1500000D01*
X0Y1500000D01*
X0Y0D01*
X46000Y1379476D02*
X45932Y1378431D01*
X45795Y1377392D01*
X45590Y1376365D01*
X45319Y1375353D01*
X44983Y1374361D01*
X44582Y1373393D01*
X44118Y1372454D01*
X43595Y1371546D01*
X43013Y1370675D01*
X42375Y1369844D01*
X41684Y1369057D01*
X40943Y1368316D01*
X40156Y1367625D01*
X39325Y1366988D01*
X38454Y1366406D01*
X37546Y1365882D01*
X36607Y1365418D01*
X35639Y1365017D01*
X34647Y1364681D01*
X33635Y1364410D01*
X32608Y1364205D01*
X31569Y1364069D01*
X30524Y1364000D01*
X29476Y1364000D01*
X28431Y1364069D01*
X27392Y1364205D01*
X26365Y1364410D01*
X25353Y1364681D01*
X24361Y1365017D01*
X23393Y1365418D01*
X22454Y1365882D01*
X21546Y1366406D01*
X20675Y1366988D01*
X19844Y1367625D01*
X19057Y1368316D01*
X18316Y1369057D01*
X17625Y1369844D01*
X16988Y1370675D01*
X16406Y1371546D01*
X15882Y1372454D01*
X15418Y1373393D01*
X15017Y1374361D01*
X14681Y1375353D01*
X14410Y1376365D01*
X14205Y1377392D01*
X14069Y1378431D01*
X14000Y1379476D01*
X14000Y1380524D01*
X14069Y1381569D01*
X14205Y1382608D01*
X14410Y1383635D01*
X14681Y1384647D01*
X15017Y1385639D01*
X15418Y1386607D01*
X15882Y1387546D01*
X16406Y1388454D01*
X16988Y1389325D01*
X17625Y1390156D01*
X18316Y1390943D01*
X19057Y1391684D01*
X19844Y1392375D01*
X20675Y1393013D01*
X21546Y1393595D01*
X22454Y1394118D01*
X23393Y1394582D01*
X24361Y1394983D01*
X25353Y1395319D01*
X26365Y1395590D01*
X27392Y1395795D01*
X28431Y1395932D01*
X29476Y1396000D01*
X30524Y1396000D01*
X31569Y1395932D01*
X32608Y1395795D01*
X33635Y1395590D01*
X34647Y1395319D01*
X35639Y1394983D01*
X36607Y1394582D01*
X37546Y1394118D01*
X38454Y1393595D01*
X39325Y1393013D01*
X40156Y1392375D01*
X40943Y1391684D01*
X41684Y1390943D01*
X42375Y1390156D01*
X43013Y1389325D01*
X43595Y1388454D01*
X44118Y1387546D01*
X44582Y1386607D01*
X44983Y1385639D01*
X45319Y1384647D01*
X45590Y1383635D01*
X45795Y1382608D01*
X45932Y1381569D01*
X46000Y1380524D01*
X46000Y1379476D01*
X486000Y1379476D02*
X485932Y1378431D01*
X485795Y1377392D01*
X485590Y1376365D01*
X485319Y1375353D01*
X484983Y1374361D01*
X484582Y1373393D01*
X484118Y1372454D01*
X483595Y1371546D01*
X483013Y1370675D01*
X482375Y1369844D01*
X481684Y1369057D01*
X480943Y1368316D01*
X480156Y1367625D01*
X479325Y1366988D01*
X478454Y1366406D01*
X477546Y1365882D01*
X476607Y1365418D01*
X475639Y1365017D01*
X474647Y1364681D01*
X473635Y1364410D01*
X472608Y1364205D01*
X471569Y1364069D01*
X470524Y1364000D01*
X469476Y1364000D01*
X468431Y1364069D01*
X467392Y1364205D01*
X466365Y1364410D01*
X465353Y1364681D01*
X464361Y1365017D01*
X463393Y1365418D01*
X462454Y1365882D01*
X461546Y1366406D01*
X460675Y1366988D01*
X459844Y1367625D01*
X459057Y1368316D01*
X458316Y1369057D01*
X457625Y1369844D01*
X456988Y1370675D01*
X456406Y1371546D01*
X455882Y1372454D01*
X455418Y1373393D01*
X455017Y1374361D01*
X454681Y1375353D01*
X454410Y1376365D01*
X454205Y1377392D01*
X454069Y1378431D01*
X454000Y1379476D01*
X454000Y1380524D01*
X454069Y1381569D01*
X454205Y1382608D01*
X454410Y1383635D01*
X454681Y1384647D01*
X455017Y1385639D01*
X455418Y1386607D01*
X455882Y1387546D01*
X456406Y1388454D01*
X456988Y1389325D01*
X457625Y1390156D01*
X458316Y1390943D01*
X459057Y1391684D01*
X459844Y1392375D01*
X460675Y1393013D01*
X461546Y1393595D01*
X462454Y1394118D01*
X463393Y1394582D01*
X464361Y1394983D01*
X465353Y1395319D01*
X466365Y1395590D01*
X467392Y1395795D01*
X468431Y1395932D01*
X469476Y1396000D01*
X470524Y1396000D01*
X471569Y1395932D01*
X472608Y1395795D01*
X473635Y1395590D01*
X474647Y1395319D01*
X475639Y1394983D01*
X476607Y1394582D01*
X477546Y1394118D01*
X478454Y1393595D01*
X479325Y1393013D01*
X480156Y1392375D01*
X480943Y1391684D01*
X481684Y1390943D01*
X482375Y1390156D01*
X483013Y1389325D01*
X483595Y1388454D01*
X484118Y1387546D01*
X484582Y1386607D01*
X484983Y1385639D01*
X485319Y1384647D01*
X485590Y1383635D01*
X485795Y1382608D01*
X485932Y1381569D01*
X486000Y1380524D01*
X486000Y1379476D01*
X486000Y119476D02*
X485932Y118431D01*
X485795Y117392D01*
X485590Y116365D01*
X485319Y115353D01*
X484983Y114361D01*
X484582Y113393D01*
X484118Y112454D01*
X483595Y111546D01*
X483013Y110675D01*
X482375Y109844D01*
X481684Y109057D01*
X480943Y108316D01*
X480156Y107625D01*
X479325Y106988D01*
X478454Y106406D01*
X477546Y105882D01*
X476607Y105418D01*
X475639Y105017D01*
X474647Y104681D01*
X473635Y104410D01*
X472608Y104205D01*
X471569Y104069D01*
X470524Y104000D01*
X469476Y104000D01*
X468431Y104069D01*
X467392Y104205D01*
X466365Y104410D01*
X465353Y104681D01*
X464361Y105017D01*
X463393Y105418D01*
X462454Y105882D01*
X461546Y106406D01*
X460675Y106988D01*
X459844Y107625D01*
X459057Y108316D01*
X458316Y109057D01*
X457625Y109844D01*
X456988Y110675D01*
X456406Y111546D01*
X455882Y112454D01*
X455418Y113393D01*
X455017Y114361D01*
X454681Y115353D01*
X454410Y116365D01*
X454205Y117392D01*
X454069Y118431D01*
X454000Y119476D01*
X454000Y120524D01*
X454069Y121569D01*
X454205Y122608D01*
X454410Y123635D01*
X454681Y124647D01*
X455017Y125639D01*
X455418Y126607D01*
X455882Y127546D01*
X456406Y128454D01*
X456988Y129325D01*
X457625Y130156D01*
X458316Y130943D01*
X459057Y131684D01*
X459844Y132375D01*
X460675Y133013D01*
X461546Y133595D01*
X462454Y134118D01*
X463393Y134582D01*
X464361Y134983D01*
X465353Y135319D01*
X466365Y135590D01*
X467392Y135795D01*
X468431Y135932D01*
X469476Y136000D01*
X470524Y136000D01*
X471569Y135932D01*
X472608Y135795D01*
X473635Y135590D01*
X474647Y135319D01*
X475639Y134983D01*
X476607Y134582D01*
X477546Y134118D01*
X478454Y133595D01*
X479325Y133013D01*
X480156Y132375D01*
X480943Y131684D01*
X481684Y130943D01*
X482375Y130156D01*
X483013Y129325D01*
X483595Y128454D01*
X484118Y127546D01*
X484582Y126607D01*
X484983Y125639D01*
X485319Y124647D01*
X485590Y123635D01*
X485795Y122608D01*
X485932Y121569D01*
X486000Y120524D01*
X486000Y119476D01*
X46000Y119476D02*
X45932Y118431D01*
X45795Y117392D01*
X45590Y116365D01*
X45319Y115353D01*
X44983Y114361D01*
X44582Y113393D01*
X44118Y112454D01*
X43595Y111546D01*
X43013Y110675D01*
X42375Y109844D01*
X41684Y109057D01*
X40943Y108316D01*
X40156Y107625D01*
X39325Y106988D01*
X38454Y106406D01*
X37546Y105882D01*
X36607Y105418D01*
X35639Y105017D01*
X34647Y104681D01*
X33635Y104410D01*
X32608Y104205D01*
X31569Y104069D01*
X30524Y104000D01*
X29476Y104000D01*
X28431Y104069D01*
X27392Y104205D01*
X26365Y104410D01*
X25353Y104681D01*
X24361Y105017D01*
X23393Y105418D01*
X22454Y105882D01*
X21546Y106406D01*
X20675Y106988D01*
X19844Y107625D01*
X19057Y108316D01*
X18316Y109057D01*
X17625Y109844D01*
X16988Y110675D01*
X16406Y111546D01*
X15882Y112454D01*
X15418Y113393D01*
X15017Y114361D01*
X14681Y115353D01*
X14410Y116365D01*
X14205Y117392D01*
X14069Y118431D01*
X14000Y119476D01*
X14000Y120524D01*
X14069Y121569D01*
X14205Y122608D01*
X14410Y123635D01*
X14681Y124647D01*
X15017Y125639D01*
X15418Y126607D01*
X15882Y127546D01*
X16406Y128454D01*
X16988Y129325D01*
X17625Y130156D01*
X18316Y130943D01*
X19057Y131684D01*
X19844Y132375D01*
X20675Y133013D01*
X21546Y133595D01*
X22454Y134118D01*
X23393Y134582D01*
X24361Y134983D01*
X25353Y135319D01*
X26365Y135590D01*
X27392Y135795D01*
X28431Y135932D01*
X29476Y136000D01*
X30524Y136000D01*
X31569Y135932D01*
X32608Y135795D01*
X33635Y135590D01*
X34647Y135319D01*
X35639Y134983D01*
X36607Y134582D01*
X37546Y134118D01*
X38454Y133595D01*
X39325Y133013D01*
X40156Y132375D01*
X40943Y131684D01*
X41684Y130943D01*
X42375Y130156D01*
X43013Y129325D01*
X43595Y128454D01*
X44118Y127546D01*
X44582Y126607D01*
X44983Y125639D01*
X45319Y124647D01*
X45590Y123635D01*
X45795Y122608D01*
X45932Y121569D01*
X46000Y120524D01*
X46000Y119476D01*
X486000Y259476D02*
X485932Y258431D01*
X485795Y257392D01*
X485590Y256365D01*
X485319Y255353D01*
X484983Y254361D01*
X484582Y253393D01*
X484118Y252454D01*
X483595Y251546D01*
X483013Y250675D01*
X482375Y249844D01*
X481684Y249057D01*
X480943Y248316D01*
X480156Y247625D01*
X479325Y246988D01*
X478454Y246406D01*
X477546Y245882D01*
X476607Y245418D01*
X475639Y245017D01*
X474647Y244681D01*
X473635Y244410D01*
X472608Y244205D01*
X471569Y244069D01*
X470524Y244000D01*
X469476Y244000D01*
X468431Y244069D01*
X467392Y244205D01*
X466365Y244410D01*
X465353Y244681D01*
X464361Y245017D01*
X463393Y245418D01*
X462454Y245882D01*
X461546Y246406D01*
X460675Y246988D01*
X459844Y247625D01*
X459057Y248316D01*
X458316Y249057D01*
X457625Y249844D01*
X456988Y250675D01*
X456406Y251546D01*
X455882Y252454D01*
X455418Y253393D01*
X455017Y254361D01*
X454681Y255353D01*
X454410Y256365D01*
X454205Y257392D01*
X454069Y258431D01*
X454000Y259476D01*
X454000Y260524D01*
X454069Y261569D01*
X454205Y262608D01*
X454410Y263635D01*
X454681Y264647D01*
X455017Y265639D01*
X455418Y266607D01*
X455882Y267546D01*
X456406Y268454D01*
X456988Y269325D01*
X457625Y270156D01*
X458316Y270943D01*
X459057Y271684D01*
X459844Y272375D01*
X460675Y273013D01*
X461546Y273595D01*
X462454Y274118D01*
X463393Y274582D01*
X464361Y274983D01*
X465353Y275319D01*
X466365Y275590D01*
X467392Y275795D01*
X468431Y275932D01*
X469476Y276000D01*
X470524Y276000D01*
X471569Y275932D01*
X472608Y275795D01*
X473635Y275590D01*
X474647Y275319D01*
X475639Y274983D01*
X476607Y274582D01*
X477546Y274118D01*
X478454Y273595D01*
X479325Y273013D01*
X480156Y272375D01*
X480943Y271684D01*
X481684Y270943D01*
X482375Y270156D01*
X483013Y269325D01*
X483595Y268454D01*
X484118Y267546D01*
X484582Y266607D01*
X484983Y265639D01*
X485319Y264647D01*
X485590Y263635D01*
X485795Y262608D01*
X485932Y261569D01*
X486000Y260524D01*
X486000Y259476D01*
X486000Y379476D02*
X485932Y378431D01*
X485795Y377392D01*
X485590Y376365D01*
X485319Y375353D01*
X484983Y374361D01*
X484582Y373393D01*
X484118Y372454D01*
X483595Y371546D01*
X483013Y370675D01*
X482375Y369844D01*
X481684Y369057D01*
X480943Y368316D01*
X480156Y367625D01*
X479325Y366988D01*
X478454Y366406D01*
X477546Y365882D01*
X476607Y365418D01*
X475639Y365017D01*
X474647Y364681D01*
X473635Y364410D01*
X472608Y364205D01*
X471569Y364069D01*
X470524Y364000D01*
X469476Y364000D01*
X468431Y364069D01*
X467392Y364205D01*
X466365Y364410D01*
X465353Y364681D01*
X464361Y365017D01*
X463393Y365418D01*
X462454Y365882D01*
X461546Y366406D01*
X460675Y366988D01*
X459844Y367625D01*
X459057Y368316D01*
X458316Y369057D01*
X457625Y369844D01*
X456988Y370675D01*
X456406Y371546D01*
X455882Y372454D01*
X455418Y373393D01*
X455017Y374361D01*
X454681Y375353D01*
X454410Y376365D01*
X454205Y377392D01*
X454069Y378431D01*
X454000Y379476D01*
X454000Y380524D01*
X454069Y381569D01*
X454205Y382608D01*
X454410Y383635D01*
X454681Y384647D01*
X455017Y385639D01*
X455418Y386607D01*
X455882Y387546D01*
X456406Y388454D01*
X456988Y389325D01*
X457625Y390156D01*
X458316Y390943D01*
X459057Y391684D01*
X459844Y392375D01*
X460675Y393013D01*
X461546Y393595D01*
X462454Y394118D01*
X463393Y394582D01*
X464361Y394983D01*
X465353Y395319D01*
X466365Y395590D01*
X467392Y395795D01*
X468431Y395932D01*
X469476Y396000D01*
X470524Y396000D01*
X471569Y395932D01*
X472608Y395795D01*
X473635Y395590D01*
X474647Y395319D01*
X475639Y394983D01*
X476607Y394582D01*
X477546Y394118D01*
X478454Y393595D01*
X479325Y393013D01*
X480156Y392375D01*
X480943Y391684D01*
X481684Y390943D01*
X482375Y390156D01*
X483013Y389325D01*
X483595Y388454D01*
X484118Y387546D01*
X484582Y386607D01*
X484983Y385639D01*
X485319Y384647D01*
X485590Y383635D01*
X485795Y382608D01*
X485932Y381569D01*
X486000Y380524D01*
X486000Y379476D01*
X486000Y1239476D02*
X485932Y1238431D01*
X485795Y1237392D01*
X485590Y1236365D01*
X485319Y1235353D01*
X484983Y1234361D01*
X484582Y1233393D01*
X484118Y1232454D01*
X483595Y1231546D01*
X483013Y1230675D01*
X482375Y1229844D01*
X481684Y1229057D01*
X480943Y1228316D01*
X480156Y1227625D01*
X479325Y1226988D01*
X478454Y1226406D01*
X477546Y1225882D01*
X476607Y1225418D01*
X475639Y1225017D01*
X474647Y1224681D01*
X473635Y1224410D01*
X472608Y1224205D01*
X471569Y1224069D01*
X470524Y1224000D01*
X469476Y1224000D01*
X468431Y1224069D01*
X467392Y1224205D01*
X466365Y1224410D01*
X465353Y1224681D01*
X464361Y1225017D01*
X463393Y1225418D01*
X462454Y1225882D01*
X461546Y1226406D01*
X460675Y1226988D01*
X459844Y1227625D01*
X459057Y1228316D01*
X458316Y1229057D01*
X457625Y1229844D01*
X456988Y1230675D01*
X456406Y1231546D01*
X455882Y1232454D01*
X455418Y1233393D01*
X455017Y1234361D01*
X454681Y1235353D01*
X454410Y1236365D01*
X454205Y1237392D01*
X454069Y1238431D01*
X454000Y1239476D01*
X454000Y1240524D01*
X454069Y1241569D01*
X454205Y1242608D01*
X454410Y1243635D01*
X454681Y1244647D01*
X455017Y1245639D01*
X455418Y1246607D01*
X455882Y1247546D01*
X456406Y1248454D01*
X456988Y1249325D01*
X457625Y1250156D01*
X458316Y1250943D01*
X459057Y1251684D01*
X459844Y1252375D01*
X460675Y1253013D01*
X461546Y1253595D01*
X462454Y1254118D01*
X463393Y1254582D01*
X464361Y1254983D01*
X465353Y1255319D01*
X466365Y1255590D01*
X467392Y1255795D01*
X468431Y1255932D01*
X469476Y1256000D01*
X470524Y1256000D01*
X471569Y1255932D01*
X472608Y1255795D01*
X473635Y1255590D01*
X474647Y1255319D01*
X475639Y1254983D01*
X476607Y1254582D01*
X477546Y1254118D01*
X478454Y1253595D01*
X479325Y1253013D01*
X480156Y1252375D01*
X480943Y1251684D01*
X481684Y1250943D01*
X482375Y1250156D01*
X483013Y1249325D01*
X483595Y1248454D01*
X484118Y1247546D01*
X484582Y1246607D01*
X484983Y1245639D01*
X485319Y1244647D01*
X485590Y1243635D01*
X485795Y1242608D01*
X485932Y1241569D01*
X486000Y1240524D01*
X486000Y1239476D01*
X486000Y1119476D02*
X485932Y1118431D01*
X485795Y1117392D01*
X485590Y1116365D01*
X485319Y1115353D01*
X484983Y1114361D01*
X484582Y1113393D01*
X484118Y1112454D01*
X483595Y1111546D01*
X483013Y1110675D01*
X482375Y1109844D01*
X481684Y1109057D01*
X480943Y1108316D01*
X480156Y1107625D01*
X479325Y1106988D01*
X478454Y1106406D01*
X477546Y1105882D01*
X476607Y1105418D01*
X475639Y1105017D01*
X474647Y1104681D01*
X473635Y1104410D01*
X472608Y1104205D01*
X471569Y1104069D01*
X470524Y1104000D01*
X469476Y1104000D01*
X468431Y1104069D01*
X467392Y1104205D01*
X466365Y1104410D01*
X465353Y1104681D01*
X464361Y1105017D01*
X463393Y1105418D01*
X462454Y1105882D01*
X461546Y1106406D01*
X460675Y1106988D01*
X459844Y1107625D01*
X459057Y1108316D01*
X458316Y1109057D01*
X457625Y1109844D01*
X456988Y1110675D01*
X456406Y1111546D01*
X455882Y1112454D01*
X455418Y1113393D01*
X455017Y1114361D01*
X454681Y1115353D01*
X454410Y1116365D01*
X454205Y1117392D01*
X454069Y1118431D01*
X454000Y1119476D01*
X454000Y1120524D01*
X454069Y1121569D01*
X454205Y1122608D01*
X454410Y1123635D01*
X454681Y1124647D01*
X455017Y1125639D01*
X455418Y1126607D01*
X455882Y1127546D01*
X456406Y1128454D01*
X456988Y1129325D01*
X457625Y1130156D01*
X458316Y1130943D01*
X459057Y1131684D01*
X459844Y1132375D01*
X460675Y1133013D01*
X461546Y1133595D01*
X462454Y1134118D01*
X463393Y1134582D01*
X464361Y1134983D01*
X465353Y1135319D01*
X466365Y1135590D01*
X467392Y1135795D01*
X468431Y1135932D01*
X469476Y1136000D01*
X470524Y1136000D01*
X471569Y1135932D01*
X472608Y1135795D01*
X473635Y1135590D01*
X474647Y1135319D01*
X475639Y1134983D01*
X476607Y1134582D01*
X477546Y1134118D01*
X478454Y1133595D01*
X479325Y1133013D01*
X480156Y1132375D01*
X480943Y1131684D01*
X481684Y1130943D01*
X482375Y1130156D01*
X483013Y1129325D01*
X483595Y1128454D01*
X484118Y1127546D01*
X484582Y1126607D01*
X484983Y1125639D01*
X485319Y1124647D01*
X485590Y1123635D01*
X485795Y1122608D01*
X485932Y1121569D01*
X486000Y1120524D01*
X486000Y1119476D01*
M02*
