G04 EAGLE Gerber RS-274X export*
G75*
%MOMM*%
%FSLAX34Y34*%
%LPD*%
%INSilkscreen Bottom*%
%IPPOS*%
%AMOC8*
5,1,8,0,0,1.08239X$1,22.5*%
G01*
%ADD10C,0.203200*%
%ADD11C,0.152400*%


D10*
X473500Y992000D02*
X473500Y964000D01*
X486500Y964000D02*
X486500Y992000D01*
X486500Y964000D02*
X473500Y964000D01*
X473500Y992000D02*
X486500Y992000D01*
X480000Y976000D02*
X476000Y976000D01*
X480000Y976000D02*
X484000Y976000D01*
X480000Y976000D02*
X476000Y980000D01*
X484000Y980000D01*
X480000Y976000D01*
D11*
X471618Y973710D02*
X465014Y973710D01*
X471618Y973710D02*
X471618Y975545D01*
X471616Y975630D01*
X471610Y975714D01*
X471600Y975798D01*
X471587Y975882D01*
X471569Y975965D01*
X471548Y976047D01*
X471523Y976128D01*
X471494Y976208D01*
X471462Y976286D01*
X471426Y976362D01*
X471386Y976437D01*
X471343Y976510D01*
X471297Y976581D01*
X471248Y976650D01*
X471195Y976717D01*
X471139Y976781D01*
X471081Y976842D01*
X471020Y976900D01*
X470956Y976956D01*
X470889Y977009D01*
X470820Y977058D01*
X470749Y977104D01*
X470676Y977147D01*
X470601Y977187D01*
X470525Y977223D01*
X470447Y977255D01*
X470367Y977284D01*
X470286Y977309D01*
X470204Y977330D01*
X470121Y977348D01*
X470037Y977361D01*
X469953Y977371D01*
X469869Y977377D01*
X469784Y977379D01*
X466848Y977379D01*
X466763Y977377D01*
X466679Y977371D01*
X466595Y977361D01*
X466511Y977348D01*
X466428Y977330D01*
X466346Y977309D01*
X466265Y977284D01*
X466185Y977255D01*
X466107Y977223D01*
X466031Y977187D01*
X465956Y977147D01*
X465883Y977104D01*
X465812Y977058D01*
X465743Y977009D01*
X465676Y976956D01*
X465612Y976900D01*
X465551Y976842D01*
X465493Y976781D01*
X465437Y976717D01*
X465384Y976650D01*
X465335Y976581D01*
X465289Y976510D01*
X465246Y976437D01*
X465206Y976362D01*
X465170Y976286D01*
X465138Y976208D01*
X465109Y976128D01*
X465084Y976047D01*
X465063Y975965D01*
X465045Y975882D01*
X465032Y975798D01*
X465022Y975714D01*
X465016Y975630D01*
X465014Y975545D01*
X465014Y973710D01*
X470150Y981269D02*
X471618Y983104D01*
X465014Y983104D01*
X465014Y984938D02*
X465014Y981269D01*
D10*
X473500Y854000D02*
X473500Y826000D01*
X486500Y826000D02*
X486500Y854000D01*
X486500Y826000D02*
X473500Y826000D01*
X473500Y854000D02*
X486500Y854000D01*
X480000Y838000D02*
X476000Y838000D01*
X480000Y838000D02*
X484000Y838000D01*
X480000Y838000D02*
X476000Y842000D01*
X484000Y842000D01*
X480000Y838000D01*
D11*
X471618Y835710D02*
X465014Y835710D01*
X471618Y835710D02*
X471618Y837545D01*
X471616Y837630D01*
X471610Y837714D01*
X471600Y837798D01*
X471587Y837882D01*
X471569Y837965D01*
X471548Y838047D01*
X471523Y838128D01*
X471494Y838208D01*
X471462Y838286D01*
X471426Y838362D01*
X471386Y838437D01*
X471343Y838510D01*
X471297Y838581D01*
X471248Y838650D01*
X471195Y838717D01*
X471139Y838781D01*
X471081Y838842D01*
X471020Y838900D01*
X470956Y838956D01*
X470889Y839009D01*
X470820Y839058D01*
X470749Y839104D01*
X470676Y839147D01*
X470601Y839187D01*
X470525Y839223D01*
X470447Y839255D01*
X470367Y839284D01*
X470286Y839309D01*
X470204Y839330D01*
X470121Y839348D01*
X470037Y839361D01*
X469953Y839371D01*
X469869Y839377D01*
X469784Y839379D01*
X466848Y839379D01*
X466763Y839377D01*
X466679Y839371D01*
X466595Y839361D01*
X466511Y839348D01*
X466428Y839330D01*
X466346Y839309D01*
X466265Y839284D01*
X466185Y839255D01*
X466107Y839223D01*
X466031Y839187D01*
X465956Y839147D01*
X465883Y839104D01*
X465812Y839058D01*
X465743Y839009D01*
X465676Y838956D01*
X465612Y838900D01*
X465551Y838842D01*
X465493Y838781D01*
X465437Y838717D01*
X465384Y838650D01*
X465335Y838581D01*
X465289Y838510D01*
X465246Y838437D01*
X465206Y838362D01*
X465170Y838286D01*
X465138Y838208D01*
X465109Y838128D01*
X465084Y838047D01*
X465063Y837965D01*
X465045Y837882D01*
X465032Y837798D01*
X465022Y837714D01*
X465016Y837630D01*
X465014Y837545D01*
X465014Y835710D01*
X471618Y845287D02*
X471616Y845366D01*
X471611Y845444D01*
X471601Y845522D01*
X471588Y845599D01*
X471571Y845676D01*
X471551Y845752D01*
X471527Y845827D01*
X471500Y845901D01*
X471469Y845973D01*
X471434Y846044D01*
X471397Y846113D01*
X471356Y846180D01*
X471312Y846245D01*
X471265Y846308D01*
X471215Y846368D01*
X471162Y846426D01*
X471106Y846482D01*
X471048Y846535D01*
X470988Y846585D01*
X470925Y846632D01*
X470860Y846676D01*
X470793Y846717D01*
X470724Y846754D01*
X470653Y846789D01*
X470581Y846820D01*
X470507Y846847D01*
X470432Y846871D01*
X470356Y846891D01*
X470279Y846908D01*
X470202Y846921D01*
X470124Y846931D01*
X470046Y846936D01*
X469967Y846938D01*
X471618Y845287D02*
X471616Y845198D01*
X471611Y845109D01*
X471601Y845021D01*
X471588Y844933D01*
X471572Y844846D01*
X471551Y844759D01*
X471527Y844674D01*
X471500Y844589D01*
X471469Y844506D01*
X471434Y844424D01*
X471396Y844343D01*
X471355Y844264D01*
X471311Y844188D01*
X471263Y844112D01*
X471212Y844039D01*
X471159Y843969D01*
X471102Y843900D01*
X471042Y843834D01*
X470980Y843771D01*
X470915Y843710D01*
X470848Y843652D01*
X470778Y843597D01*
X470706Y843544D01*
X470632Y843495D01*
X470556Y843449D01*
X470478Y843407D01*
X470398Y843367D01*
X470317Y843331D01*
X470234Y843298D01*
X470150Y843269D01*
X468683Y846388D02*
X468739Y846444D01*
X468798Y846498D01*
X468859Y846549D01*
X468923Y846598D01*
X468988Y846643D01*
X469056Y846686D01*
X469125Y846725D01*
X469196Y846762D01*
X469269Y846795D01*
X469343Y846824D01*
X469418Y846851D01*
X469494Y846874D01*
X469572Y846893D01*
X469650Y846909D01*
X469728Y846922D01*
X469808Y846931D01*
X469887Y846936D01*
X469967Y846938D01*
X468683Y846388D02*
X465014Y843269D01*
X465014Y846938D01*
D10*
X473500Y714000D02*
X473500Y686000D01*
X486500Y686000D02*
X486500Y714000D01*
X486500Y686000D02*
X473500Y686000D01*
X473500Y714000D02*
X486500Y714000D01*
X480000Y698000D02*
X476000Y698000D01*
X480000Y698000D02*
X484000Y698000D01*
X480000Y698000D02*
X476000Y702000D01*
X484000Y702000D01*
X480000Y698000D01*
D11*
X471618Y695710D02*
X465014Y695710D01*
X471618Y695710D02*
X471618Y697545D01*
X471616Y697630D01*
X471610Y697714D01*
X471600Y697798D01*
X471587Y697882D01*
X471569Y697965D01*
X471548Y698047D01*
X471523Y698128D01*
X471494Y698208D01*
X471462Y698286D01*
X471426Y698362D01*
X471386Y698437D01*
X471343Y698510D01*
X471297Y698581D01*
X471248Y698650D01*
X471195Y698717D01*
X471139Y698781D01*
X471081Y698842D01*
X471020Y698900D01*
X470956Y698956D01*
X470889Y699009D01*
X470820Y699058D01*
X470749Y699104D01*
X470676Y699147D01*
X470601Y699187D01*
X470525Y699223D01*
X470447Y699255D01*
X470367Y699284D01*
X470286Y699309D01*
X470204Y699330D01*
X470121Y699348D01*
X470037Y699361D01*
X469953Y699371D01*
X469869Y699377D01*
X469784Y699379D01*
X466848Y699379D01*
X466763Y699377D01*
X466679Y699371D01*
X466595Y699361D01*
X466511Y699348D01*
X466428Y699330D01*
X466346Y699309D01*
X466265Y699284D01*
X466185Y699255D01*
X466107Y699223D01*
X466031Y699187D01*
X465956Y699147D01*
X465883Y699104D01*
X465812Y699058D01*
X465743Y699009D01*
X465676Y698956D01*
X465612Y698900D01*
X465551Y698842D01*
X465493Y698781D01*
X465437Y698717D01*
X465384Y698650D01*
X465335Y698581D01*
X465289Y698510D01*
X465246Y698437D01*
X465206Y698362D01*
X465170Y698286D01*
X465138Y698208D01*
X465109Y698128D01*
X465084Y698047D01*
X465063Y697965D01*
X465045Y697882D01*
X465032Y697798D01*
X465022Y697714D01*
X465016Y697630D01*
X465014Y697545D01*
X465014Y695710D01*
X465014Y703269D02*
X465014Y705104D01*
X465016Y705189D01*
X465022Y705273D01*
X465032Y705357D01*
X465045Y705441D01*
X465063Y705524D01*
X465084Y705606D01*
X465109Y705687D01*
X465138Y705767D01*
X465170Y705845D01*
X465206Y705921D01*
X465246Y705996D01*
X465289Y706069D01*
X465335Y706140D01*
X465384Y706209D01*
X465437Y706276D01*
X465493Y706340D01*
X465551Y706401D01*
X465612Y706459D01*
X465676Y706515D01*
X465743Y706568D01*
X465812Y706617D01*
X465883Y706663D01*
X465956Y706706D01*
X466031Y706746D01*
X466107Y706782D01*
X466185Y706814D01*
X466265Y706843D01*
X466346Y706868D01*
X466428Y706889D01*
X466511Y706907D01*
X466595Y706920D01*
X466679Y706930D01*
X466763Y706936D01*
X466848Y706938D01*
X466933Y706936D01*
X467017Y706930D01*
X467101Y706920D01*
X467185Y706907D01*
X467268Y706889D01*
X467350Y706868D01*
X467431Y706843D01*
X467511Y706814D01*
X467589Y706782D01*
X467665Y706746D01*
X467740Y706706D01*
X467813Y706663D01*
X467884Y706617D01*
X467953Y706568D01*
X468020Y706515D01*
X468084Y706459D01*
X468145Y706401D01*
X468203Y706340D01*
X468259Y706276D01*
X468312Y706209D01*
X468361Y706140D01*
X468407Y706069D01*
X468450Y705996D01*
X468490Y705921D01*
X468526Y705845D01*
X468558Y705767D01*
X468587Y705687D01*
X468612Y705606D01*
X468633Y705524D01*
X468651Y705441D01*
X468664Y705357D01*
X468674Y705273D01*
X468680Y705189D01*
X468682Y705104D01*
X471618Y705470D02*
X471618Y703269D01*
X471618Y705470D02*
X471616Y705546D01*
X471610Y705621D01*
X471601Y705696D01*
X471587Y705770D01*
X471570Y705844D01*
X471548Y705916D01*
X471524Y705988D01*
X471495Y706058D01*
X471463Y706126D01*
X471428Y706193D01*
X471389Y706258D01*
X471346Y706321D01*
X471301Y706381D01*
X471253Y706439D01*
X471201Y706495D01*
X471147Y706547D01*
X471090Y706597D01*
X471031Y706644D01*
X470970Y706688D01*
X470906Y706729D01*
X470840Y706766D01*
X470772Y706800D01*
X470703Y706830D01*
X470632Y706857D01*
X470560Y706880D01*
X470487Y706899D01*
X470413Y706914D01*
X470338Y706926D01*
X470263Y706934D01*
X470188Y706938D01*
X470112Y706938D01*
X470037Y706934D01*
X469962Y706926D01*
X469887Y706914D01*
X469813Y706899D01*
X469740Y706880D01*
X469668Y706857D01*
X469597Y706830D01*
X469528Y706800D01*
X469460Y706766D01*
X469394Y706729D01*
X469330Y706688D01*
X469269Y706644D01*
X469210Y706597D01*
X469153Y706547D01*
X469099Y706495D01*
X469047Y706439D01*
X468999Y706381D01*
X468954Y706321D01*
X468911Y706258D01*
X468872Y706193D01*
X468837Y706126D01*
X468805Y706058D01*
X468776Y705988D01*
X468752Y705916D01*
X468730Y705844D01*
X468713Y705770D01*
X468699Y705696D01*
X468690Y705621D01*
X468684Y705546D01*
X468682Y705470D01*
X468683Y705470D02*
X468683Y704003D01*
D10*
X473500Y574000D02*
X473500Y546000D01*
X486500Y546000D02*
X486500Y574000D01*
X486500Y546000D02*
X473500Y546000D01*
X473500Y574000D02*
X486500Y574000D01*
X480000Y558000D02*
X476000Y558000D01*
X480000Y558000D02*
X484000Y558000D01*
X480000Y558000D02*
X476000Y562000D01*
X484000Y562000D01*
X480000Y558000D01*
D11*
X471618Y555710D02*
X465014Y555710D01*
X471618Y555710D02*
X471618Y557545D01*
X471616Y557630D01*
X471610Y557714D01*
X471600Y557798D01*
X471587Y557882D01*
X471569Y557965D01*
X471548Y558047D01*
X471523Y558128D01*
X471494Y558208D01*
X471462Y558286D01*
X471426Y558362D01*
X471386Y558437D01*
X471343Y558510D01*
X471297Y558581D01*
X471248Y558650D01*
X471195Y558717D01*
X471139Y558781D01*
X471081Y558842D01*
X471020Y558900D01*
X470956Y558956D01*
X470889Y559009D01*
X470820Y559058D01*
X470749Y559104D01*
X470676Y559147D01*
X470601Y559187D01*
X470525Y559223D01*
X470447Y559255D01*
X470367Y559284D01*
X470286Y559309D01*
X470204Y559330D01*
X470121Y559348D01*
X470037Y559361D01*
X469953Y559371D01*
X469869Y559377D01*
X469784Y559379D01*
X466848Y559379D01*
X466763Y559377D01*
X466679Y559371D01*
X466595Y559361D01*
X466511Y559348D01*
X466428Y559330D01*
X466346Y559309D01*
X466265Y559284D01*
X466185Y559255D01*
X466107Y559223D01*
X466031Y559187D01*
X465956Y559147D01*
X465883Y559104D01*
X465812Y559058D01*
X465743Y559009D01*
X465676Y558956D01*
X465612Y558900D01*
X465551Y558842D01*
X465493Y558781D01*
X465437Y558717D01*
X465384Y558650D01*
X465335Y558581D01*
X465289Y558510D01*
X465246Y558437D01*
X465206Y558362D01*
X465170Y558286D01*
X465138Y558208D01*
X465109Y558128D01*
X465084Y558047D01*
X465063Y557965D01*
X465045Y557882D01*
X465032Y557798D01*
X465022Y557714D01*
X465016Y557630D01*
X465014Y557545D01*
X465014Y555710D01*
X466482Y563269D02*
X471618Y564737D01*
X466482Y563269D02*
X466482Y566938D01*
X467949Y565837D02*
X465014Y565837D01*
D10*
X473500Y434000D02*
X473500Y406000D01*
X486500Y406000D02*
X486500Y434000D01*
X486500Y406000D02*
X473500Y406000D01*
X473500Y434000D02*
X486500Y434000D01*
X480000Y418000D02*
X476000Y418000D01*
X480000Y418000D02*
X484000Y418000D01*
X480000Y418000D02*
X476000Y422000D01*
X484000Y422000D01*
X480000Y418000D01*
D11*
X471618Y415710D02*
X465014Y415710D01*
X471618Y415710D02*
X471618Y417545D01*
X471616Y417630D01*
X471610Y417714D01*
X471600Y417798D01*
X471587Y417882D01*
X471569Y417965D01*
X471548Y418047D01*
X471523Y418128D01*
X471494Y418208D01*
X471462Y418286D01*
X471426Y418362D01*
X471386Y418437D01*
X471343Y418510D01*
X471297Y418581D01*
X471248Y418650D01*
X471195Y418717D01*
X471139Y418781D01*
X471081Y418842D01*
X471020Y418900D01*
X470956Y418956D01*
X470889Y419009D01*
X470820Y419058D01*
X470749Y419104D01*
X470676Y419147D01*
X470601Y419187D01*
X470525Y419223D01*
X470447Y419255D01*
X470367Y419284D01*
X470286Y419309D01*
X470204Y419330D01*
X470121Y419348D01*
X470037Y419361D01*
X469953Y419371D01*
X469869Y419377D01*
X469784Y419379D01*
X466848Y419379D01*
X466763Y419377D01*
X466679Y419371D01*
X466595Y419361D01*
X466511Y419348D01*
X466428Y419330D01*
X466346Y419309D01*
X466265Y419284D01*
X466185Y419255D01*
X466107Y419223D01*
X466031Y419187D01*
X465956Y419147D01*
X465883Y419104D01*
X465812Y419058D01*
X465743Y419009D01*
X465676Y418956D01*
X465612Y418900D01*
X465551Y418842D01*
X465493Y418781D01*
X465437Y418717D01*
X465384Y418650D01*
X465335Y418581D01*
X465289Y418510D01*
X465246Y418437D01*
X465206Y418362D01*
X465170Y418286D01*
X465138Y418208D01*
X465109Y418128D01*
X465084Y418047D01*
X465063Y417965D01*
X465045Y417882D01*
X465032Y417798D01*
X465022Y417714D01*
X465016Y417630D01*
X465014Y417545D01*
X465014Y415710D01*
X465014Y423269D02*
X465014Y425470D01*
X465016Y425544D01*
X465022Y425619D01*
X465031Y425692D01*
X465044Y425766D01*
X465061Y425838D01*
X465081Y425909D01*
X465105Y425980D01*
X465133Y426049D01*
X465164Y426116D01*
X465198Y426182D01*
X465236Y426247D01*
X465277Y426309D01*
X465321Y426369D01*
X465368Y426426D01*
X465418Y426481D01*
X465471Y426534D01*
X465526Y426584D01*
X465583Y426631D01*
X465643Y426675D01*
X465705Y426716D01*
X465770Y426754D01*
X465835Y426788D01*
X465903Y426819D01*
X465972Y426847D01*
X466043Y426871D01*
X466114Y426891D01*
X466186Y426908D01*
X466260Y426921D01*
X466333Y426930D01*
X466408Y426936D01*
X466482Y426938D01*
X467215Y426938D01*
X467289Y426936D01*
X467364Y426930D01*
X467437Y426921D01*
X467511Y426908D01*
X467583Y426891D01*
X467654Y426871D01*
X467725Y426847D01*
X467794Y426819D01*
X467861Y426788D01*
X467927Y426754D01*
X467992Y426716D01*
X468054Y426675D01*
X468114Y426631D01*
X468171Y426584D01*
X468226Y426534D01*
X468279Y426481D01*
X468329Y426426D01*
X468376Y426369D01*
X468420Y426309D01*
X468461Y426247D01*
X468499Y426182D01*
X468533Y426116D01*
X468564Y426049D01*
X468592Y425980D01*
X468616Y425909D01*
X468636Y425838D01*
X468653Y425766D01*
X468666Y425692D01*
X468675Y425619D01*
X468681Y425544D01*
X468683Y425470D01*
X468683Y423269D01*
X471618Y423269D01*
X471618Y426938D01*
D10*
X473500Y1056000D02*
X473500Y1084000D01*
X486500Y1084000D02*
X486500Y1056000D01*
X473500Y1056000D01*
X473500Y1084000D02*
X486500Y1084000D01*
X480000Y1068000D02*
X476000Y1068000D01*
X480000Y1068000D02*
X484000Y1068000D01*
X480000Y1068000D02*
X476000Y1072000D01*
X484000Y1072000D01*
X480000Y1068000D01*
D11*
X471618Y1065710D02*
X465014Y1065710D01*
X471618Y1065710D02*
X471618Y1067545D01*
X471616Y1067630D01*
X471610Y1067714D01*
X471600Y1067798D01*
X471587Y1067882D01*
X471569Y1067965D01*
X471548Y1068047D01*
X471523Y1068128D01*
X471494Y1068208D01*
X471462Y1068286D01*
X471426Y1068362D01*
X471386Y1068437D01*
X471343Y1068510D01*
X471297Y1068581D01*
X471248Y1068650D01*
X471195Y1068717D01*
X471139Y1068781D01*
X471081Y1068842D01*
X471020Y1068900D01*
X470956Y1068956D01*
X470889Y1069009D01*
X470820Y1069058D01*
X470749Y1069104D01*
X470676Y1069147D01*
X470601Y1069187D01*
X470525Y1069223D01*
X470447Y1069255D01*
X470367Y1069284D01*
X470286Y1069309D01*
X470204Y1069330D01*
X470121Y1069348D01*
X470037Y1069361D01*
X469953Y1069371D01*
X469869Y1069377D01*
X469784Y1069379D01*
X466848Y1069379D01*
X466763Y1069377D01*
X466679Y1069371D01*
X466595Y1069361D01*
X466511Y1069348D01*
X466428Y1069330D01*
X466346Y1069309D01*
X466265Y1069284D01*
X466185Y1069255D01*
X466107Y1069223D01*
X466031Y1069187D01*
X465956Y1069147D01*
X465883Y1069104D01*
X465812Y1069058D01*
X465743Y1069009D01*
X465676Y1068956D01*
X465612Y1068900D01*
X465551Y1068842D01*
X465493Y1068781D01*
X465437Y1068717D01*
X465384Y1068650D01*
X465335Y1068581D01*
X465289Y1068510D01*
X465246Y1068437D01*
X465206Y1068362D01*
X465170Y1068286D01*
X465138Y1068208D01*
X465109Y1068128D01*
X465084Y1068047D01*
X465063Y1067965D01*
X465045Y1067882D01*
X465032Y1067798D01*
X465022Y1067714D01*
X465016Y1067630D01*
X465014Y1067545D01*
X465014Y1065710D01*
X468683Y1073269D02*
X468683Y1075470D01*
X468681Y1075544D01*
X468675Y1075619D01*
X468666Y1075692D01*
X468653Y1075766D01*
X468636Y1075838D01*
X468616Y1075909D01*
X468592Y1075980D01*
X468564Y1076049D01*
X468533Y1076116D01*
X468499Y1076182D01*
X468461Y1076247D01*
X468420Y1076309D01*
X468376Y1076369D01*
X468329Y1076426D01*
X468279Y1076481D01*
X468226Y1076534D01*
X468171Y1076584D01*
X468114Y1076631D01*
X468054Y1076675D01*
X467992Y1076716D01*
X467927Y1076754D01*
X467861Y1076788D01*
X467794Y1076819D01*
X467725Y1076847D01*
X467654Y1076871D01*
X467583Y1076891D01*
X467511Y1076908D01*
X467437Y1076921D01*
X467364Y1076930D01*
X467289Y1076936D01*
X467215Y1076938D01*
X466848Y1076938D01*
X466763Y1076936D01*
X466679Y1076930D01*
X466595Y1076920D01*
X466511Y1076907D01*
X466428Y1076889D01*
X466346Y1076868D01*
X466265Y1076843D01*
X466185Y1076814D01*
X466107Y1076782D01*
X466031Y1076746D01*
X465956Y1076706D01*
X465883Y1076663D01*
X465812Y1076617D01*
X465743Y1076568D01*
X465676Y1076515D01*
X465612Y1076459D01*
X465551Y1076401D01*
X465493Y1076340D01*
X465437Y1076276D01*
X465384Y1076209D01*
X465335Y1076140D01*
X465289Y1076069D01*
X465246Y1075996D01*
X465206Y1075921D01*
X465170Y1075845D01*
X465138Y1075767D01*
X465109Y1075687D01*
X465084Y1075606D01*
X465063Y1075524D01*
X465045Y1075441D01*
X465032Y1075357D01*
X465022Y1075273D01*
X465016Y1075189D01*
X465014Y1075104D01*
X465016Y1075019D01*
X465022Y1074935D01*
X465032Y1074851D01*
X465045Y1074767D01*
X465063Y1074684D01*
X465084Y1074602D01*
X465109Y1074521D01*
X465138Y1074441D01*
X465170Y1074363D01*
X465206Y1074287D01*
X465246Y1074212D01*
X465289Y1074139D01*
X465335Y1074068D01*
X465384Y1073999D01*
X465437Y1073932D01*
X465493Y1073868D01*
X465551Y1073807D01*
X465612Y1073749D01*
X465676Y1073693D01*
X465743Y1073640D01*
X465812Y1073591D01*
X465883Y1073545D01*
X465956Y1073502D01*
X466031Y1073462D01*
X466107Y1073426D01*
X466185Y1073394D01*
X466265Y1073365D01*
X466346Y1073340D01*
X466428Y1073319D01*
X466511Y1073301D01*
X466595Y1073288D01*
X466679Y1073278D01*
X466763Y1073272D01*
X466848Y1073270D01*
X466848Y1073269D02*
X468683Y1073269D01*
X468790Y1073271D01*
X468897Y1073277D01*
X469004Y1073287D01*
X469110Y1073300D01*
X469216Y1073318D01*
X469321Y1073339D01*
X469425Y1073364D01*
X469529Y1073393D01*
X469631Y1073426D01*
X469731Y1073463D01*
X469831Y1073503D01*
X469929Y1073547D01*
X470025Y1073594D01*
X470119Y1073645D01*
X470212Y1073699D01*
X470302Y1073756D01*
X470391Y1073817D01*
X470477Y1073881D01*
X470560Y1073948D01*
X470642Y1074018D01*
X470720Y1074091D01*
X470796Y1074167D01*
X470869Y1074245D01*
X470939Y1074327D01*
X471006Y1074410D01*
X471070Y1074496D01*
X471131Y1074585D01*
X471188Y1074675D01*
X471242Y1074768D01*
X471293Y1074862D01*
X471340Y1074958D01*
X471384Y1075056D01*
X471424Y1075156D01*
X471461Y1075256D01*
X471494Y1075358D01*
X471523Y1075462D01*
X471548Y1075566D01*
X471569Y1075671D01*
X471587Y1075777D01*
X471600Y1075883D01*
X471610Y1075990D01*
X471616Y1076097D01*
X471618Y1076204D01*
D10*
X473500Y1106000D02*
X473500Y1134000D01*
X486500Y1134000D02*
X486500Y1106000D01*
X473500Y1106000D01*
X473500Y1134000D02*
X486500Y1134000D01*
X480000Y1118000D02*
X476000Y1118000D01*
X480000Y1118000D02*
X484000Y1118000D01*
X480000Y1118000D02*
X476000Y1122000D01*
X484000Y1122000D01*
X480000Y1118000D01*
D11*
X471618Y1115710D02*
X465014Y1115710D01*
X471618Y1115710D02*
X471618Y1117545D01*
X471616Y1117630D01*
X471610Y1117714D01*
X471600Y1117798D01*
X471587Y1117882D01*
X471569Y1117965D01*
X471548Y1118047D01*
X471523Y1118128D01*
X471494Y1118208D01*
X471462Y1118286D01*
X471426Y1118362D01*
X471386Y1118437D01*
X471343Y1118510D01*
X471297Y1118581D01*
X471248Y1118650D01*
X471195Y1118717D01*
X471139Y1118781D01*
X471081Y1118842D01*
X471020Y1118900D01*
X470956Y1118956D01*
X470889Y1119009D01*
X470820Y1119058D01*
X470749Y1119104D01*
X470676Y1119147D01*
X470601Y1119187D01*
X470525Y1119223D01*
X470447Y1119255D01*
X470367Y1119284D01*
X470286Y1119309D01*
X470204Y1119330D01*
X470121Y1119348D01*
X470037Y1119361D01*
X469953Y1119371D01*
X469869Y1119377D01*
X469784Y1119379D01*
X466848Y1119379D01*
X466763Y1119377D01*
X466679Y1119371D01*
X466595Y1119361D01*
X466511Y1119348D01*
X466428Y1119330D01*
X466346Y1119309D01*
X466265Y1119284D01*
X466185Y1119255D01*
X466107Y1119223D01*
X466031Y1119187D01*
X465956Y1119147D01*
X465883Y1119104D01*
X465812Y1119058D01*
X465743Y1119009D01*
X465676Y1118956D01*
X465612Y1118900D01*
X465551Y1118842D01*
X465493Y1118781D01*
X465437Y1118717D01*
X465384Y1118650D01*
X465335Y1118581D01*
X465289Y1118510D01*
X465246Y1118437D01*
X465206Y1118362D01*
X465170Y1118286D01*
X465138Y1118208D01*
X465109Y1118128D01*
X465084Y1118047D01*
X465063Y1117965D01*
X465045Y1117882D01*
X465032Y1117798D01*
X465022Y1117714D01*
X465016Y1117630D01*
X465014Y1117545D01*
X465014Y1115710D01*
X470884Y1123269D02*
X471618Y1123269D01*
X471618Y1126938D01*
X465014Y1125104D01*
D10*
X473500Y1156000D02*
X473500Y1184000D01*
X486500Y1184000D02*
X486500Y1156000D01*
X473500Y1156000D01*
X473500Y1184000D02*
X486500Y1184000D01*
X480000Y1168000D02*
X476000Y1168000D01*
X480000Y1168000D02*
X484000Y1168000D01*
X480000Y1168000D02*
X476000Y1172000D01*
X484000Y1172000D01*
X480000Y1168000D01*
D11*
X471618Y1165710D02*
X465014Y1165710D01*
X471618Y1165710D02*
X471618Y1167545D01*
X471616Y1167630D01*
X471610Y1167714D01*
X471600Y1167798D01*
X471587Y1167882D01*
X471569Y1167965D01*
X471548Y1168047D01*
X471523Y1168128D01*
X471494Y1168208D01*
X471462Y1168286D01*
X471426Y1168362D01*
X471386Y1168437D01*
X471343Y1168510D01*
X471297Y1168581D01*
X471248Y1168650D01*
X471195Y1168717D01*
X471139Y1168781D01*
X471081Y1168842D01*
X471020Y1168900D01*
X470956Y1168956D01*
X470889Y1169009D01*
X470820Y1169058D01*
X470749Y1169104D01*
X470676Y1169147D01*
X470601Y1169187D01*
X470525Y1169223D01*
X470447Y1169255D01*
X470367Y1169284D01*
X470286Y1169309D01*
X470204Y1169330D01*
X470121Y1169348D01*
X470037Y1169361D01*
X469953Y1169371D01*
X469869Y1169377D01*
X469784Y1169379D01*
X466848Y1169379D01*
X466763Y1169377D01*
X466679Y1169371D01*
X466595Y1169361D01*
X466511Y1169348D01*
X466428Y1169330D01*
X466346Y1169309D01*
X466265Y1169284D01*
X466185Y1169255D01*
X466107Y1169223D01*
X466031Y1169187D01*
X465956Y1169147D01*
X465883Y1169104D01*
X465812Y1169058D01*
X465743Y1169009D01*
X465676Y1168956D01*
X465612Y1168900D01*
X465551Y1168842D01*
X465493Y1168781D01*
X465437Y1168717D01*
X465384Y1168650D01*
X465335Y1168581D01*
X465289Y1168510D01*
X465246Y1168437D01*
X465206Y1168362D01*
X465170Y1168286D01*
X465138Y1168208D01*
X465109Y1168128D01*
X465084Y1168047D01*
X465063Y1167965D01*
X465045Y1167882D01*
X465032Y1167798D01*
X465022Y1167714D01*
X465016Y1167630D01*
X465014Y1167545D01*
X465014Y1165710D01*
X466848Y1173270D02*
X466933Y1173272D01*
X467017Y1173278D01*
X467101Y1173288D01*
X467185Y1173301D01*
X467268Y1173319D01*
X467350Y1173340D01*
X467431Y1173365D01*
X467511Y1173394D01*
X467589Y1173426D01*
X467665Y1173462D01*
X467740Y1173502D01*
X467813Y1173545D01*
X467884Y1173591D01*
X467953Y1173640D01*
X468020Y1173693D01*
X468084Y1173749D01*
X468145Y1173807D01*
X468203Y1173868D01*
X468259Y1173932D01*
X468312Y1173999D01*
X468361Y1174068D01*
X468407Y1174139D01*
X468450Y1174212D01*
X468490Y1174287D01*
X468526Y1174363D01*
X468558Y1174441D01*
X468587Y1174521D01*
X468612Y1174602D01*
X468633Y1174684D01*
X468651Y1174767D01*
X468664Y1174851D01*
X468674Y1174935D01*
X468680Y1175019D01*
X468682Y1175104D01*
X468680Y1175189D01*
X468674Y1175273D01*
X468664Y1175357D01*
X468651Y1175441D01*
X468633Y1175524D01*
X468612Y1175606D01*
X468587Y1175687D01*
X468558Y1175767D01*
X468526Y1175845D01*
X468490Y1175921D01*
X468450Y1175996D01*
X468407Y1176069D01*
X468361Y1176140D01*
X468312Y1176209D01*
X468259Y1176276D01*
X468203Y1176340D01*
X468145Y1176401D01*
X468084Y1176459D01*
X468020Y1176515D01*
X467953Y1176568D01*
X467884Y1176617D01*
X467813Y1176663D01*
X467740Y1176706D01*
X467665Y1176746D01*
X467589Y1176782D01*
X467511Y1176814D01*
X467431Y1176843D01*
X467350Y1176868D01*
X467268Y1176889D01*
X467185Y1176907D01*
X467101Y1176920D01*
X467017Y1176930D01*
X466933Y1176936D01*
X466848Y1176938D01*
X466763Y1176936D01*
X466679Y1176930D01*
X466595Y1176920D01*
X466511Y1176907D01*
X466428Y1176889D01*
X466346Y1176868D01*
X466265Y1176843D01*
X466185Y1176814D01*
X466107Y1176782D01*
X466031Y1176746D01*
X465956Y1176706D01*
X465883Y1176663D01*
X465812Y1176617D01*
X465743Y1176568D01*
X465676Y1176515D01*
X465612Y1176459D01*
X465551Y1176401D01*
X465493Y1176340D01*
X465437Y1176276D01*
X465384Y1176209D01*
X465335Y1176140D01*
X465289Y1176069D01*
X465246Y1175996D01*
X465206Y1175921D01*
X465170Y1175845D01*
X465138Y1175767D01*
X465109Y1175687D01*
X465084Y1175606D01*
X465063Y1175524D01*
X465045Y1175441D01*
X465032Y1175357D01*
X465022Y1175273D01*
X465016Y1175189D01*
X465014Y1175104D01*
X465016Y1175019D01*
X465022Y1174935D01*
X465032Y1174851D01*
X465045Y1174767D01*
X465063Y1174684D01*
X465084Y1174602D01*
X465109Y1174521D01*
X465138Y1174441D01*
X465170Y1174363D01*
X465206Y1174287D01*
X465246Y1174212D01*
X465289Y1174139D01*
X465335Y1174068D01*
X465384Y1173999D01*
X465437Y1173932D01*
X465493Y1173868D01*
X465551Y1173807D01*
X465612Y1173749D01*
X465676Y1173693D01*
X465743Y1173640D01*
X465812Y1173591D01*
X465883Y1173545D01*
X465956Y1173502D01*
X466031Y1173462D01*
X466107Y1173426D01*
X466185Y1173394D01*
X466265Y1173365D01*
X466346Y1173340D01*
X466428Y1173319D01*
X466511Y1173301D01*
X466595Y1173288D01*
X466679Y1173278D01*
X466763Y1173272D01*
X466848Y1173270D01*
X470150Y1173636D02*
X470226Y1173638D01*
X470301Y1173644D01*
X470376Y1173653D01*
X470450Y1173667D01*
X470524Y1173684D01*
X470596Y1173706D01*
X470668Y1173730D01*
X470738Y1173759D01*
X470806Y1173791D01*
X470873Y1173826D01*
X470938Y1173865D01*
X471001Y1173908D01*
X471061Y1173953D01*
X471119Y1174001D01*
X471175Y1174053D01*
X471227Y1174107D01*
X471277Y1174164D01*
X471324Y1174223D01*
X471368Y1174284D01*
X471409Y1174348D01*
X471446Y1174414D01*
X471480Y1174482D01*
X471510Y1174551D01*
X471537Y1174622D01*
X471560Y1174694D01*
X471579Y1174767D01*
X471594Y1174841D01*
X471606Y1174916D01*
X471614Y1174991D01*
X471618Y1175066D01*
X471618Y1175142D01*
X471614Y1175217D01*
X471606Y1175292D01*
X471594Y1175367D01*
X471579Y1175441D01*
X471560Y1175514D01*
X471537Y1175586D01*
X471510Y1175657D01*
X471480Y1175726D01*
X471446Y1175794D01*
X471409Y1175860D01*
X471368Y1175924D01*
X471324Y1175985D01*
X471277Y1176044D01*
X471227Y1176101D01*
X471175Y1176155D01*
X471119Y1176207D01*
X471061Y1176255D01*
X471001Y1176300D01*
X470938Y1176343D01*
X470873Y1176382D01*
X470806Y1176417D01*
X470738Y1176449D01*
X470668Y1176478D01*
X470596Y1176502D01*
X470524Y1176524D01*
X470450Y1176541D01*
X470376Y1176555D01*
X470301Y1176564D01*
X470226Y1176570D01*
X470150Y1176572D01*
X470074Y1176570D01*
X469999Y1176564D01*
X469924Y1176555D01*
X469850Y1176541D01*
X469776Y1176524D01*
X469704Y1176502D01*
X469632Y1176478D01*
X469562Y1176449D01*
X469494Y1176417D01*
X469427Y1176382D01*
X469362Y1176343D01*
X469299Y1176300D01*
X469239Y1176255D01*
X469181Y1176207D01*
X469125Y1176155D01*
X469073Y1176101D01*
X469023Y1176044D01*
X468976Y1175985D01*
X468932Y1175924D01*
X468891Y1175860D01*
X468854Y1175794D01*
X468820Y1175726D01*
X468790Y1175657D01*
X468763Y1175586D01*
X468740Y1175514D01*
X468721Y1175441D01*
X468706Y1175367D01*
X468694Y1175292D01*
X468686Y1175217D01*
X468682Y1175142D01*
X468682Y1175066D01*
X468686Y1174991D01*
X468694Y1174916D01*
X468706Y1174841D01*
X468721Y1174767D01*
X468740Y1174694D01*
X468763Y1174622D01*
X468790Y1174551D01*
X468820Y1174482D01*
X468854Y1174414D01*
X468891Y1174348D01*
X468932Y1174284D01*
X468976Y1174223D01*
X469023Y1174164D01*
X469073Y1174107D01*
X469125Y1174053D01*
X469181Y1174001D01*
X469239Y1173953D01*
X469299Y1173908D01*
X469362Y1173865D01*
X469427Y1173826D01*
X469494Y1173791D01*
X469562Y1173759D01*
X469632Y1173730D01*
X469704Y1173706D01*
X469776Y1173684D01*
X469850Y1173667D01*
X469924Y1173653D01*
X469999Y1173644D01*
X470074Y1173638D01*
X470150Y1173636D01*
M02*
