G04 EAGLE Gerber RS-274X export*
G75*
%MOMM*%
%FSLAX34Y34*%
%LPD*%
%INSoldermask Top*%
%IPPOS*%
%AMOC8*
5,1,8,0,0,1.08239X$1,22.5*%
G01*
%ADD10C,3.200000*%
%ADD11C,1.447800*%
%ADD12C,1.879600*%
%ADD13R,1.100000X1.000000*%
%ADD14C,1.500000*%
%ADD15R,2.794000X1.778000*%


D10*
X470000Y120000D03*
X470000Y1380000D03*
X30000Y1380000D03*
X30000Y120000D03*
X30000Y1240000D03*
X30000Y1120000D03*
X30000Y260000D03*
X30000Y380000D03*
D11*
X336200Y24900D03*
X336200Y50300D03*
X336200Y75700D03*
X336200Y101100D03*
X336200Y126500D03*
X336200Y151900D03*
X336200Y177300D03*
X336200Y202700D03*
X336200Y228100D03*
X336200Y253500D03*
X336200Y278900D03*
X336200Y304300D03*
X336200Y329700D03*
X336200Y355100D03*
X183800Y355100D03*
X183800Y329700D03*
X183800Y304300D03*
X183800Y278900D03*
X183800Y253500D03*
X183800Y228100D03*
X183800Y202700D03*
X183800Y177300D03*
X183800Y151900D03*
X183800Y126500D03*
X183800Y101100D03*
X183800Y75700D03*
X183800Y50300D03*
X183800Y24900D03*
D12*
X420000Y940000D03*
X420000Y965400D03*
X420000Y990800D03*
X420000Y1016200D03*
X420000Y800000D03*
X420000Y825400D03*
X420000Y850800D03*
X420000Y876200D03*
X420000Y660000D03*
X420000Y685400D03*
X420000Y710800D03*
X420000Y736200D03*
X420000Y520000D03*
X420000Y545400D03*
X420000Y570800D03*
X420000Y596200D03*
X420000Y380000D03*
X420000Y405400D03*
X420000Y430800D03*
X420000Y456200D03*
D13*
X211500Y980000D03*
X194500Y980000D03*
D12*
X240000Y980000D03*
X270000Y980000D03*
D13*
X211500Y840000D03*
X194500Y840000D03*
D12*
X240000Y840000D03*
X270000Y840000D03*
D13*
X211500Y700000D03*
X194500Y700000D03*
D12*
X240000Y700000D03*
X270000Y700000D03*
D14*
X452500Y227500D03*
X452500Y272500D03*
X427500Y215000D03*
X427500Y285000D03*
D13*
X211500Y560000D03*
X194500Y560000D03*
D12*
X240000Y560000D03*
X270000Y560000D03*
D13*
X221500Y420000D03*
X204500Y420000D03*
D12*
X250000Y420000D03*
X280000Y420000D03*
D13*
X278500Y1078000D03*
X261500Y1078000D03*
D12*
X320000Y1080000D03*
X350000Y1080000D03*
D13*
X278500Y1130000D03*
X261500Y1130000D03*
D12*
X320000Y1130000D03*
X350000Y1130000D03*
D13*
X278500Y1180000D03*
X261500Y1180000D03*
D12*
X320000Y1180000D03*
X350000Y1180000D03*
D15*
X330000Y965000D03*
D12*
X380000Y965000D03*
X380000Y990000D03*
X380000Y825000D03*
X380000Y850000D03*
X385000Y685000D03*
X385000Y710000D03*
X390000Y545000D03*
X390000Y570000D03*
X390000Y405000D03*
X390000Y430000D03*
D15*
X330000Y990000D03*
X330000Y825000D03*
X330000Y850000D03*
X335000Y685000D03*
X335000Y710000D03*
X340000Y545000D03*
X340000Y570000D03*
X348000Y406000D03*
X348000Y431000D03*
D12*
X420000Y1250000D03*
X420000Y1275400D03*
X420000Y1300800D03*
M02*
