G04 EAGLE Gerber RS-274X export*
G75*
%MOMM*%
%FSLAX34Y34*%
%LPD*%
%INSolderpaste Bottom*%
%IPPOS*%
%AMOC8*
5,1,8,0,0,1.08239X$1,22.5*%
G01*
%ADD10C,0.300000*%


D10*
X23500Y925270D02*
X16500Y925270D01*
X16500Y932270D01*
X23500Y932270D01*
X23500Y925270D01*
X23500Y928120D02*
X16500Y928120D01*
X16500Y930970D02*
X23500Y930970D01*
X23500Y907730D02*
X16500Y907730D01*
X16500Y914730D01*
X23500Y914730D01*
X23500Y907730D01*
X23500Y910580D02*
X16500Y910580D01*
X16500Y913430D02*
X23500Y913430D01*
X23500Y805270D02*
X16500Y805270D01*
X16500Y812270D01*
X23500Y812270D01*
X23500Y805270D01*
X23500Y808120D02*
X16500Y808120D01*
X16500Y810970D02*
X23500Y810970D01*
X23500Y787730D02*
X16500Y787730D01*
X16500Y794730D01*
X23500Y794730D01*
X23500Y787730D01*
X23500Y790580D02*
X16500Y790580D01*
X16500Y793430D02*
X23500Y793430D01*
X23500Y685270D02*
X16500Y685270D01*
X16500Y692270D01*
X23500Y692270D01*
X23500Y685270D01*
X23500Y688120D02*
X16500Y688120D01*
X16500Y690970D02*
X23500Y690970D01*
X23500Y667730D02*
X16500Y667730D01*
X16500Y674730D01*
X23500Y674730D01*
X23500Y667730D01*
X23500Y670580D02*
X16500Y670580D01*
X16500Y673430D02*
X23500Y673430D01*
X23500Y545270D02*
X16500Y545270D01*
X16500Y552270D01*
X23500Y552270D01*
X23500Y545270D01*
X23500Y548120D02*
X16500Y548120D01*
X16500Y550970D02*
X23500Y550970D01*
X23500Y527730D02*
X16500Y527730D01*
X16500Y534730D01*
X23500Y534730D01*
X23500Y527730D01*
X23500Y530580D02*
X16500Y530580D01*
X16500Y533430D02*
X23500Y533430D01*
X23500Y425270D02*
X16500Y425270D01*
X16500Y432270D01*
X23500Y432270D01*
X23500Y425270D01*
X23500Y428120D02*
X16500Y428120D01*
X16500Y430970D02*
X23500Y430970D01*
X23500Y407730D02*
X16500Y407730D01*
X16500Y414730D01*
X23500Y414730D01*
X23500Y407730D01*
X23500Y410580D02*
X16500Y410580D01*
X16500Y413430D02*
X23500Y413430D01*
X23500Y1095270D02*
X16500Y1095270D01*
X16500Y1102270D01*
X23500Y1102270D01*
X23500Y1095270D01*
X23500Y1098120D02*
X16500Y1098120D01*
X16500Y1100970D02*
X23500Y1100970D01*
X23500Y1077730D02*
X16500Y1077730D01*
X16500Y1084730D01*
X23500Y1084730D01*
X23500Y1077730D01*
X23500Y1080580D02*
X16500Y1080580D01*
X16500Y1083430D02*
X23500Y1083430D01*
X23500Y1145270D02*
X16500Y1145270D01*
X16500Y1152270D01*
X23500Y1152270D01*
X23500Y1145270D01*
X23500Y1148120D02*
X16500Y1148120D01*
X16500Y1150970D02*
X23500Y1150970D01*
X23500Y1127730D02*
X16500Y1127730D01*
X16500Y1134730D01*
X23500Y1134730D01*
X23500Y1127730D01*
X23500Y1130580D02*
X16500Y1130580D01*
X16500Y1133430D02*
X23500Y1133430D01*
X23500Y1195270D02*
X16500Y1195270D01*
X16500Y1202270D01*
X23500Y1202270D01*
X23500Y1195270D01*
X23500Y1198120D02*
X16500Y1198120D01*
X16500Y1200970D02*
X23500Y1200970D01*
X23500Y1177730D02*
X16500Y1177730D01*
X16500Y1184730D01*
X23500Y1184730D01*
X23500Y1177730D01*
X23500Y1180580D02*
X16500Y1180580D01*
X16500Y1183430D02*
X23500Y1183430D01*
X23500Y1245270D02*
X16500Y1245270D01*
X16500Y1252270D01*
X23500Y1252270D01*
X23500Y1245270D01*
X23500Y1248120D02*
X16500Y1248120D01*
X16500Y1250970D02*
X23500Y1250970D01*
X23500Y1227730D02*
X16500Y1227730D01*
X16500Y1234730D01*
X23500Y1234730D01*
X23500Y1227730D01*
X23500Y1230580D02*
X16500Y1230580D01*
X16500Y1233430D02*
X23500Y1233430D01*
X23500Y1300270D02*
X16500Y1300270D01*
X16500Y1307270D01*
X23500Y1307270D01*
X23500Y1300270D01*
X23500Y1303120D02*
X16500Y1303120D01*
X16500Y1305970D02*
X23500Y1305970D01*
X23500Y1282730D02*
X16500Y1282730D01*
X16500Y1289730D01*
X23500Y1289730D01*
X23500Y1282730D01*
X23500Y1285580D02*
X16500Y1285580D01*
X16500Y1288430D02*
X23500Y1288430D01*
M02*
