M48
;GenerationSoftware,Autodesk,EAGLE,9.6.2*%
;CreationDate,2021-06-23T10:24:23Z*%
FMAT,2
ICI,OFF
METRIC,TZ,000.000
T5C0.350
T4C0.965
T3C1.000
T2C1.016
T1C3.200
%
G90
M71
T1
X3000Y38000
X3000Y26000
X3000Y112000
X3000Y124000
X3000Y12000
X3000Y138000
X47000Y138000
X47000Y12000
T2
X38500Y68500
X38000Y85000
X38000Y82500
X38000Y99000
X38000Y96500
X35000Y118000
X32000Y118000
X35000Y113000
X32000Y113000
X35000Y108000
X32000Y108000
X28000Y42000
X25000Y42000
X27000Y56000
X24000Y56000
X42000Y94000
X42000Y96540
X42000Y99080
X42000Y101620
X27000Y70000
X24000Y70000
X27000Y84000
X24000Y84000
X27000Y98000
X24000Y98000
X42000Y45620
X42000Y43080
X42000Y40540
X42000Y38000
X42000Y59620
X42000Y57080
X42000Y54540
X42000Y52000
X42000Y73620
X38500Y71000
X39000Y54500
X39000Y57000
X39000Y40500
X39000Y43000
X42000Y125000
X42000Y127540
X42000Y130080
X42000Y71080
X42000Y68540
X42000Y66000
X42000Y87620
X42000Y85080
X42000Y82540
X42000Y80000
T3
X45250Y22750
X45250Y27250
X42750Y21500
X42750Y28500
T4
X33620Y30430
X33620Y32970
X33620Y35510
X18380Y35510
X18380Y32970
X18380Y30430
X18380Y27890
X18380Y25350
X18380Y22810
X18380Y20270
X18380Y17730
X18380Y15190
X18380Y12650
X18380Y10110
X18380Y7570
X18380Y5030
X18380Y2490
X33620Y27890
X33620Y25350
X33620Y22810
X33620Y20270
X33620Y17730
X33620Y15190
X33620Y12650
X33620Y10110
X33620Y7570
X33620Y5030
X33620Y2490
T5
X39200Y36500
X46900Y48500
X46707Y46900
X46200Y64500
X45800Y63000
X46050Y78950
X45800Y77800
X33000Y100900
X35500Y52600
X34600Y66700
X34500Y80100
X32300Y94500
X28900Y47700
X48000Y44700
X47950Y58950
X48000Y72600
X47900Y87100
X48000Y100200
X30500Y92300
X35450Y123975
X12000Y12000
X26000Y6000
X42000Y8000
X42000Y16000
X36000Y74000
X38000Y46000
X36000Y60000
X28000Y52000
X12000Y20000
X20000Y48000
X10000Y48000
X22000Y62000
X10000Y62000
X22000Y76000
X10000Y76000
X46000Y94000
X22000Y92000
X10000Y92000
X42000Y106000
X42000Y112000
X42000Y116000
X18000Y116000
M30