G04 EAGLE Gerber RS-274X export*
G75*
%MOMM*%
%FSLAX34Y34*%
%LPD*%
%INSoldermask Bottom*%
%IPPOS*%
%AMOC8*
5,1,8,0,0,1.08239X$1,22.5*%
G01*
%ADD10C,3.200000*%
%ADD11C,1.447800*%
%ADD12C,1.270000*%
%ADD13C,1.879600*%
%ADD14C,1.879600*%
%ADD15C,4.800000*%
%ADD16C,4.495800*%


D10*
X30000Y670000D03*
X720000Y670000D03*
X720000Y30000D03*
X30000Y30000D03*
D11*
X247800Y34400D03*
X247800Y59800D03*
X247800Y85200D03*
X247800Y110600D03*
X247800Y136000D03*
X247800Y161400D03*
X247800Y186800D03*
X247800Y212200D03*
X247800Y237600D03*
X247800Y263000D03*
X247800Y288400D03*
X247800Y313800D03*
X247800Y339200D03*
X247800Y364600D03*
X95400Y364600D03*
X95400Y339200D03*
X95400Y313800D03*
X95400Y288400D03*
X95400Y263000D03*
X95400Y237600D03*
X95400Y212200D03*
X95400Y186800D03*
X95400Y161400D03*
X95400Y136000D03*
X95400Y110600D03*
X95400Y85200D03*
X95400Y59800D03*
X95400Y34400D03*
D12*
X342500Y242400D03*
X342500Y222400D03*
X342500Y202400D03*
X342500Y182400D03*
X342500Y162400D03*
X342500Y142400D03*
X342500Y122400D03*
X342500Y102400D03*
X342500Y82400D03*
X342500Y62400D03*
X562500Y62400D03*
X562500Y82400D03*
X562500Y102400D03*
X562500Y122400D03*
X562500Y142400D03*
X562500Y162400D03*
X562500Y182400D03*
X562500Y202400D03*
X562500Y222400D03*
X562500Y242400D03*
D13*
X670000Y470000D03*
X670000Y495400D03*
X670000Y520800D03*
X670000Y546200D03*
X670000Y571600D03*
X670000Y597000D03*
X670000Y275000D03*
X670000Y300400D03*
X670000Y325800D03*
X670000Y351200D03*
X670000Y376600D03*
X670000Y402000D03*
X670000Y90000D03*
X670000Y115400D03*
X670000Y140800D03*
X670000Y166200D03*
X670000Y191600D03*
X670000Y217000D03*
D14*
X109398Y452500D02*
X90602Y452500D01*
X90602Y477900D02*
X109398Y477900D01*
X109398Y503300D02*
X90602Y503300D01*
X90602Y528700D02*
X109398Y528700D01*
D15*
X570000Y561222D03*
D16*
X569746Y634430D03*
X532384Y593000D03*
D13*
X397488Y632606D03*
X462512Y632606D03*
X397488Y587394D03*
X462512Y587394D03*
M02*
